<?xml version="1.0" encoding="UTF-8"?>
<svg version="1.1" xmlns="http://www.w3.org/2000/svg" width="512" height="512">
<path d="M0 0 C72.27 0 144.54 0 219 0 C212.30359315 7.81247465 212.30359315 7.81247465 208.43359375 11.453125 C207.61826172 12.23816406 206.80292969 13.02320313 205.96289062 13.83203125 C204.28503361 15.4385177 202.59753761 17.03499949 200.90039062 18.62109375 C191.04366832 28.18906014 188.30435981 37.90429711 186.91381836 51.21484375 C186.68830346 53.36733118 186.43542948 55.51521388 186.17773438 57.6640625 C185.4456269 64.07672861 184.96335767 70.31205561 184.98200989 76.7706604 C184.98460721 77.93814631 184.98720453 79.10563221 184.98988056 80.30849648 C184.99488968 81.64079072 184.99488968 81.64079072 185 83 C183.76863501 83.00358253 183.76863501 83.00358253 182.51239395 83.00723743 C162.54918498 83.06634174 142.58609719 83.14186241 122.62302017 83.23571491 C112.96906881 83.28070409 103.3151546 83.32011152 93.66113281 83.34643555 C85.24789408 83.36939038 76.83477259 83.40276013 68.42162681 83.44870156 C63.96582271 83.4726678 59.51013499 83.49137424 55.05426788 83.49761391 C50.86159648 83.50364944 46.66922295 83.52359345 42.47666168 83.55427551 C40.93675808 83.5630804 39.39681558 83.56677326 37.85688782 83.56500816 C35.75599137 83.56336017 33.65600816 83.58001229 31.55523682 83.60127258 C29.79092505 83.60818603 29.79092505 83.60818603 27.99097061 83.61523914 C24.70017491 84.03856974 23.32378261 84.66793692 21 87 C19.80691838 90.65878362 19.67332256 92.29997692 21.3125 95.8125 C22.81578588 98.08915626 22.81578588 98.08915626 25 99 C27.32273159 99.15520557 29.64959313 99.25019167 31.9765625 99.31640625 C33.00443375 99.3475779 33.00443375 99.3475779 34.05307007 99.37937927 C36.24361069 99.44480185 38.43427189 99.50372554 40.625 99.5625 C42.1093875 99.60569218 43.59376278 99.6493067 45.078125 99.69335938 C48.71862084 99.80047553 52.35925251 99.90176362 56 100 C56.00054477 101.28382411 56.00108953 102.56764822 56.00165081 103.89037609 C56.01569109 134.35707731 56.05542564 164.8236243 56.12685562 195.29024092 C56.13562251 199.03911527 56.14417229 202.78799008 56.15258789 206.53686523 C56.15426695 207.28320738 56.15594602 208.02954952 56.15767596 208.79850809 C56.18435504 220.88754173 56.19344169 232.97652796 56.19604143 245.06558802 C56.19909951 257.46756466 56.22102928 269.86940407 56.26052457 282.27131873 C56.28430465 289.9257191 56.29331614 297.57984564 56.28351311 305.23427788 C56.27757531 311.10100047 56.29787776 316.96744669 56.32806015 322.83410072 C56.3363217 325.24275957 56.33601036 327.651465 56.32659721 330.06011963 C56.3150343 333.34322669 56.33400523 336.62477518 56.36076355 339.90776062 C56.35009029 340.86593349 56.33941703 341.82410635 56.32842034 342.81131476 C56.39767782 347.35063455 56.54514442 349.38443321 59.31338978 353.13076496 C61.95045422 355.34505405 61.95045422 355.34505405 65.625 355 C68.9638476 354.01071182 70.00060427 353.6982296 72 351 C72.45946088 348.49530634 72.45946088 348.49530634 72.39872742 345.62800598 C72.41126556 344.51321365 72.42380371 343.39842133 72.4367218 342.24984741 C72.43528671 341.02633575 72.43385162 339.8028241 72.43237305 338.54223633 C72.4425647 337.25432693 72.45275635 335.96641754 72.46325684 334.63948059 C72.49087557 331.10669073 72.50011787 327.57406184 72.50611091 324.04117799 C72.51548199 320.3495457 72.54168428 316.65803424 72.56611633 312.96647644 C72.60982002 305.97548832 72.63834314 298.98452359 72.66143972 291.99344033 C72.69352382 282.54675524 72.74900246 273.10020961 72.80318546 263.65363026 C72.88794089 248.76912822 72.94139094 233.88468111 73 219 C106.66 219 140.32 219 175 219 C175 243.42 175 267.84 175 293 C141.8125 293.25 141.8125 293.25 131.35083008 293.29785156 C128.61537993 293.32721493 125.87994491 293.35803956 123.14453125 293.390625 C122.08319221 293.39107819 122.08319221 293.39107819 121.00041199 293.39154053 C118.90564365 293.39396498 116.8125028 293.42134974 114.71801758 293.45410156 C113.53887283 293.46298401 112.35972809 293.47186646 111.14485168 293.48101807 C107.34543193 294.10802068 105.6616378 295.25109822 103 298 C102.38033659 301.85568347 102.26038716 303.95967866 104.55484295 307.18700409 C107.86272515 309.63967964 110.72393786 309.55656817 114.68501282 309.50793457 C115.46345006 309.51417453 116.2418873 309.5204145 117.04391354 309.52684355 C119.6549898 309.54281115 122.26513736 309.53015484 124.8762207 309.51757812 C126.7472081 309.52299772 128.61819123 309.53011946 130.48916626 309.53881836 C135.57405409 309.5570778 140.65861783 309.54997235 145.74351144 309.53730202 C151.06405789 309.52718344 156.38457637 309.53656494 161.7051239 309.54284668 C170.64388006 309.55012831 179.58250412 309.54052382 188.52124023 309.52148438 C198.85161742 309.49973464 209.1816786 309.50675118 219.51204807 309.52879 C228.38098201 309.54695311 237.2498209 309.54949724 246.11876744 309.53903532 C251.41580741 309.53280285 256.71269898 309.53195764 262.00972939 309.54518127 C266.99288432 309.55675163 271.97563292 309.5486922 276.95874405 309.52560425 C278.78605284 309.52032265 280.61339592 309.52182153 282.44069099 309.53065491 C284.93893169 309.54161646 287.43587764 309.52784017 289.93403625 309.50793457 C291.01411539 309.5213189 291.01411539 309.5213189 292.1160143 309.53497362 C297.57385654 309.45085605 300.60596273 308.01802737 305 305 C308.8486853 300.03722159 310.1208418 296.44525036 310.15390015 290.24404907 C310.16680084 288.44386574 310.16680084 288.44386574 310.17996216 286.60731506 C310.18422211 285.28880051 310.18848206 283.97028595 310.19287109 282.61181641 C310.20077379 281.21063535 310.20904284 279.80945632 310.21765137 278.40827942 C310.24384634 273.80606016 310.25917381 269.20383189 310.2734375 264.6015625 C310.27879772 263.01705291 310.28417523 261.43254338 310.28956985 259.84803391 C310.3111925 253.25803478 310.32993018 246.66803808 310.34119225 240.07801247 C310.35743972 230.63314039 310.39064345 221.18867913 310.44759309 211.74396193 C310.48627448 205.10268921 310.50582262 198.46152648 310.51111281 191.82014406 C310.51476803 187.85323309 310.52680707 183.88676054 310.55921555 179.91997147 C310.58926599 176.18846612 310.59561941 172.45766518 310.58383179 168.72606468 C310.5835055 166.70522347 310.60798987 164.68442593 310.63320923 162.66374207 C310.85500311 155.61773947 310.85500311 155.61773947 307.65493774 149.68222046 C304.39574791 147.61713406 302.78714727 147.27480159 299 148 C286.21763367 160.78236633 294.36146763 183.9266185 294 202 C221.07 202 148.14 202 73 202 C73 168.34 73 134.68 73 100 C82.86519531 99.96261719 92.73039063 99.92523438 102.89453125 99.88671875 C109.19727891 99.85639247 115.50000925 99.82533128 121.80273438 99.79101562 C131.77561756 99.73685104 141.74845282 99.68542782 151.72143555 99.65356445 C158.98968927 99.6303287 166.25781351 99.59665616 173.52596396 99.55129844 C177.36154875 99.52770409 181.19700808 99.50875772 185.03266335 99.50238609 C199.71460041 99.47468036 214.28910388 99.24499014 228.9050293 97.65551758 C229.97210271 97.53977481 231.03917612 97.42403204 232.13858509 97.30478191 C248.35084281 95.32435219 258.31959305 90.70077541 269.07177734 78.33251953 C270.6365967 76.57221123 272.20302857 74.8133354 273.77084351 73.05569458 C274.59235271 72.13099491 275.41386192 71.20629524 276.26026535 70.25357437 C281.18275147 64.76712864 286.2299409 59.39483171 291.27002978 54.01655602 C296.56277554 48.36747754 301.79660471 42.68573675 306.87304688 36.84082031 C339.79837907 -0.96339693 339.79837907 -0.96339693 363.89941406 -2.86816406 C400.66144331 -5.21165292 400.66144331 -5.21165292 409.61863685 2.15308106 C412.47694499 5.5701876 412.62605251 7.04693027 412.6292057 11.44216919 C412.64224444 12.75183088 412.65528318 14.06149258 412.66871703 15.41084099 C412.65790692 16.86260189 412.64662365 18.31435932 412.63491821 19.76611328 C412.6406788 21.30954979 412.6486195 22.85297945 412.65855443 24.39639473 C412.67946003 28.63981975 412.66909597 32.88268378 412.65362334 37.12611103 C412.64232885 41.70152432 412.65976307 46.27683989 412.67352295 50.85223389 C412.69578025 59.81626672 412.69094308 68.78009047 412.67645974 77.74413157 C412.6651773 85.02802658 412.66363229 92.31186292 412.66907883 99.59576416 C412.67022807 101.14956022 412.67022807 101.14956022 412.67140054 102.7347461 C412.67299913 104.83894779 412.6746202 106.94314946 412.6762635 109.04735112 C412.6905283 128.78807873 412.67411679 148.52869034 412.64726166 168.26939893 C412.62492224 185.21546469 412.62880216 202.16135921 412.65185547 219.10742188 C412.67860055 238.7765046 412.68915494 258.4454856 412.67379415 278.11458397 C412.67220137 280.21113458 412.67062952 282.3076852 412.66907883 284.40423584 C412.66792176 285.95163395 412.66792176 285.95163395 412.66674132 287.53029263 C412.66242044 294.80718684 412.66971922 302.08401664 412.68147659 309.36090088 C412.69548578 318.22653654 412.69173499 327.09195079 412.66507287 335.95756102 C412.65191334 340.4827846 412.64681851 345.00763878 412.66331863 349.5328598 C412.67818727 353.67319401 412.67008172 357.81281543 412.64343087 361.95308471 C412.6378327 363.45300711 412.64071631 364.95298938 412.65280981 366.45287347 C412.66796242 368.48781805 412.64946477 370.52293066 412.6292057 372.55783081 C412.62798806 374.25510221 412.62798806 374.25510221 412.62674582 375.98666191 C411.7699198 380.10620512 410.38964426 381.54243744 407 384 C404.20169943 384.49146924 402.01313333 384.67273086 399.22146606 384.62641239 C398.44125133 384.63338 397.66103659 384.64034761 396.85717899 384.64752635 C394.23257746 384.66482486 391.60944146 384.64637711 388.98486328 384.62818909 C387.08827321 384.63323234 385.19168789 384.64045945 383.29511356 384.64968723 C378.07522343 384.66866924 372.85579984 384.656342 367.63592124 384.6389643 C362.00923387 384.62562432 356.38261631 384.64101563 350.75593567 384.65278625 C339.72778735 384.67119525 328.69981586 384.66262751 317.671673 384.64469803 C308.70640575 384.63068438 299.74118658 384.62677659 290.77590942 384.6301403 C289.50089874 384.63061775 288.22588806 384.63109519 286.91224068 384.6315871 C284.32214585 384.63261342 281.73205102 384.63366878 279.14195621 384.63475286 C255.527141 384.64358645 231.91244085 384.62490756 208.29765217 384.59422263 C186.75390249 384.56638791 165.21026567 384.56138584 143.66650391 384.57641602 C138.15415452 384.58023863 132.64180513 384.5840335 127.12945557 384.5875864 C126.11141884 384.58824312 126.11141884 384.58824312 125.07281572 384.58891311 C107.06320308 384.60016521 89.05360221 384.59272158 71.04399109 384.57970566 C68.4608663 384.57786128 65.8777415 384.57602655 63.2946167 384.57420158 C62.02366606 384.57328949 60.75271543 384.5723774 59.44325113 384.57143768 C50.49448566 384.56583588 41.54574878 384.5691364 32.59698486 384.57574654 C21.68250079 384.58348841 10.76813787 384.57669711 -0.14632183 384.5515715 C-5.71346007 384.53909326 -11.28040986 384.53290952 -16.84755516 384.54411316 C-21.94917525 384.55418574 -27.05042032 384.54563142 -32.15199494 384.52253198 C-33.99256974 384.51739099 -35.83317839 384.51890129 -37.67373824 384.52792663 C-55.6247116 384.60859162 -70.63313042 381.09807034 -84.25 368.4375 C-95.59796243 356.43168467 -100.51576702 342.88170374 -100.42236328 326.5390625 C-99.99024659 311.4234512 -93.84271443 299.34011157 -83.62109375 288.39453125 C-73.23757008 278.90854018 -60.98029186 273.99043381 -47.046875 273.7890625 C-45.69139444 273.76098111 -44.33592586 273.73231657 -42.98046875 273.703125 C-40.86995961 273.6620588 -38.75967096 273.62512136 -36.64892578 273.59863281 C-21.83489858 273.45298821 -21.83489858 273.45298821 -9.1875 266.4375 C-8.12595703 265.53837891 -8.12595703 265.53837891 -7.04296875 264.62109375 C-1.56138955 257.58832196 -0.41018287 249.91462129 -0.48101807 241.2305603 C-0.47351681 240.19296086 -0.46601556 239.15536142 -0.458287 238.08631957 C-0.43810433 234.63465023 -0.44609428 231.18364371 -0.45410156 227.73193359 C-0.44536147 225.24772496 -0.43487418 222.76352194 -0.42277527 220.27932739 C-0.40070338 214.94394068 -0.39071157 209.6087438 -0.39188385 204.27332687 C-0.39355757 196.55940011 -0.37317294 188.84565345 -0.34752855 181.13177486 C-0.30650859 168.61438863 -0.28315018 156.09703495 -0.27099609 143.57958984 C-0.25915654 131.4252611 -0.23889306 119.27099387 -0.20751953 107.11669922 C-0.20557402 106.35896843 -0.2036285 105.60123764 -0.20162404 104.82054532 C-0.18634176 98.89395836 -0.17057334 92.96737273 -0.1546514 87.04078746 C-0.0768299 58.02720167 -0.04138312 29.01370485 0 0 Z " fill="#aaa" transform="translate(100,128)"/>
<path d="M0 0 C0.7352742 -0.0066568 1.4705484 -0.0133136 2.22810364 -0.02017212 C3.77012654 -0.03023001 5.31219237 -0.03499128 6.85424805 -0.03466797 C9.2114941 -0.03907084 11.56690877 -0.07553917 13.92382812 -0.11328125 C15.42837906 -0.11914507 16.93293882 -0.12311737 18.4375 -0.125 C19.48915596 -0.14655655 19.48915596 -0.14655655 20.5620575 -0.16854858 C23.93494663 -0.13699802 25.71737565 0.10521385 28.4309082 2.17724609 C31.16933249 5.89833838 31.14596672 8.98338634 31.15095901 13.46954155 C31.15480016 14.76128756 31.1586413 16.05303358 31.16259885 17.38392341 C31.16181856 18.82584442 31.16093976 20.26776538 31.15997314 21.70968628 C31.16255596 23.23488888 31.16556889 24.76009081 31.16897655 26.28529179 C31.17705946 30.48744638 31.17883683 34.68958389 31.17957401 38.89174533 C31.1814223 43.41944257 31.18896844 47.9471309 31.19570923 52.474823 C31.2093017 62.37962265 31.21531854 72.28441825 31.21971989 82.18922567 C31.22248046 88.37055771 31.22671744 94.55188817 31.23122406 100.73321915 C31.24341734 117.83857818 31.25371692 134.94393595 31.25709915 152.04929924 C31.2574285 153.69202873 31.2574285 153.69202873 31.2577645 155.36794467 C31.25809192 157.0146584 31.25809192 157.0146584 31.25842595 158.69463909 C31.25886942 160.91931017 31.25931598 163.14398126 31.25976562 165.36865234 C31.25998705 166.47217175 31.26020848 167.57569116 31.26043662 168.71265055 C31.2643864 186.60197951 31.28184564 204.49126778 31.30512515 222.38058101 C31.32881832 240.73549317 31.34130005 259.09038491 31.34246707 277.44531262 C31.34338492 287.75572813 31.34916482 298.06609061 31.36728668 308.37649155 C31.38266016 317.15427819 31.38782441 325.93199542 31.37954858 334.70979296 C31.37563244 339.19037511 31.37661851 343.67081736 31.39060593 348.15138245 C31.40328712 352.25091008 31.40219858 356.35019184 31.39001521 360.44971885 C31.38804815 361.93490579 31.39118293 363.42010981 31.39985958 364.90527271 C31.4108894 366.92037062 31.40170676 368.93554908 31.39146805 370.95065117 C31.39206514 372.07109853 31.39266222 373.19154588 31.39327741 374.34594619 C30.85012245 378.69121786 29.07329906 381.28216969 26.01953125 384.3359375 C23.84326172 384.62304688 23.84326172 384.62304688 21.13671875 384.6796875 C20.1420459 384.70772461 19.14737305 384.73576172 18.12255859 384.76464844 C17.05730957 384.78817383 15.99206055 384.81169922 14.89453125 384.8359375 C-9.87073137 385.66548387 -30.50201957 389.73502276 -48.8984375 407.39453125 C-50.98046875 409.3359375 -50.98046875 409.3359375 -51.98046875 409.3359375 C-52.07205312 363.04137698 -52.14252214 316.74682607 -52.18473007 270.4521928 C-52.18973281 264.98489271 -52.19491011 259.51759279 -52.20019531 254.05029297 C-52.20124455 252.9618663 -52.2022938 251.87343964 -52.20337483 250.75203034 C-52.22077319 233.13559151 -52.25230776 215.51920496 -52.28907993 197.90279713 C-52.32650516 179.82254404 -52.34870796 161.74231831 -52.35682273 143.66202807 C-52.36230721 132.50832067 -52.37962051 121.35476108 -52.41213462 110.20109919 C-52.43330201 102.5493765 -52.43966374 94.89773006 -52.43447426 87.24598023 C-52.43191596 82.83336165 -52.43579769 78.42100111 -52.45729065 74.00842857 C-52.47685247 69.96263963 -52.47767686 65.9172806 -52.46406433 61.87147126 C-52.46238361 60.41365439 -52.4673761 58.95580995 -52.48000148 57.49804679 C-52.6161009 40.80264953 -47.71597092 27.77777754 -36.296875 15.625 C-26.50400824 5.947732 -13.87646091 0.04443556 0 0 Z " fill="#aaa" transform="translate(51.98046875,-0.3359375)"/>
<path d="M0 0 C3.7441247 3.16713562 7.45220368 6.32560822 10.91577148 9.80224609 C11.59594833 10.48249847 12.27612518 11.16275085 12.97691345 11.86361694 C13.68449295 12.57635773 14.39207245 13.28909851 15.12109375 14.0234375 C15.86585464 14.76961334 16.61061554 15.51578918 17.37794495 16.28457642 C19.73350827 18.64569389 22.08555216 21.01028162 24.4375 23.375 C26.04338763 24.98590856 27.64950516 26.59658796 29.25585938 28.20703125 C33.17323513 32.13537513 37.08773487 36.06656674 41 40 C39.5366459 43.3729114 37.67212401 45.57509078 35.07699585 48.16351318 C34.25807358 48.98518478 33.43915131 49.80685638 32.59541321 50.65342712 C31.69558212 51.54606766 30.79575104 52.43870819 29.86865234 53.35839844 C28.91227483 54.31421162 27.95633786 55.27046578 27.00080872 56.22712708 C24.40836168 58.8201478 21.80979564 61.40695695 19.21009016 63.99269772 C16.49322558 66.69705757 13.78202584 69.40708438 11.07022095 72.11651611 C5.9354292 77.24509234 0.79556062 82.3685491 -4.3461498 87.49018788 C-10.20008892 93.32177026 -16.04834825 99.15903446 -21.89613652 104.99678373 C-33.92444729 117.00419087 -45.9598742 129.00444037 -58 141 C-61.23617306 139.45952577 -63.40632246 137.83763539 -65.94238281 135.28466797 C-66.70286926 134.52403046 -67.46335571 133.76339294 -68.24688721 132.97970581 C-69.05744568 132.15882477 -69.86800415 131.33794373 -70.703125 130.4921875 C-71.54091492 129.65156769 -72.37870483 128.81094788 -73.24188232 127.94485474 C-75.91598431 125.25955999 -78.58304724 122.56739345 -81.25 119.875 C-83.06204062 118.05292845 -84.87453518 116.23130823 -86.6875 114.41015625 C-91.13028036 109.94532748 -95.56730165 105.47483717 -100 101 C-95.19002801 95.20957365 -90.02199348 89.88610951 -84.68994141 84.57641602 C-83.77222961 83.6585582 -82.85451782 82.74070038 -81.90899658 81.79502869 C-79.41166478 79.29741188 -76.91127842 76.802874 -74.41030169 74.30890775 C-71.78999074 71.69488002 -69.17254206 69.07798937 -66.55477905 66.46141052 C-61.60583285 61.51556305 -56.65434478 56.5722686 -51.70192182 51.62990278 C-46.06024193 45.99942946 -40.42142683 40.3660908 -34.78284192 34.73251832 C-23.19172962 23.15183737 -11.59705307 11.57473185 0 0 Z " fill="#aaa" transform="translate(416,55)"/>
<path d="M0 0 C33.66 0 67.32 0 102 0 C102 24.42 102 48.84 102 74 C68.34 74 34.68 74 0 74 C0 49.58 0 25.16 0 0 Z " fill="#aaa" transform="translate(292,347)"/>
<path d="M0 0 C9.18399578 1.49521747 16.41054062 11.94162555 22.75024414 18.30737305 C24.33039644 19.89295796 25.91591976 21.47303442 27.50195312 23.05273438 C28.51073806 24.06217892 29.51921338 25.07193299 30.52734375 26.08203125 C31.43476318 26.99057861 32.34218262 27.89912598 33.27709961 28.83520508 C36.53584146 32.29493996 36.96234841 34.9377294 36.91015625 39.58935547 C35.85007513 44.48836175 31.97252778 47.38297116 28.375 50.625 C27.611875 51.34751953 26.84875 52.07003906 26.0625 52.81445312 C24.18541361 54.58595341 22.29074862 56.3330401 20.375 58.0625 C15.06431195 53.62833328 10.12663383 48.94733314 5.25390625 44.0390625 C4.13676491 42.91979874 4.13676491 42.91979874 2.99705505 41.77792358 C0.64149173 39.41680611 -1.71055216 37.05221838 -4.0625 34.6875 C-5.66838763 33.07659144 -7.27450516 31.46591204 -8.88085938 29.85546875 C-12.79823513 25.92712487 -16.71273487 21.99593326 -20.625 18.0625 C-20.0180706 17.35449501 -20.0180706 17.35449501 -19.39888 16.63218689 C-18.86417587 16.00840652 -18.32947174 15.38462616 -17.77856445 14.74194336 C-16.98601006 13.81737587 -16.98601006 13.81737587 -16.17744446 12.87413025 C-14.84031787 11.31376591 -13.50405983 9.75265735 -12.16796875 8.19140625 C-5.01554964 0.39847199 -5.01554964 0.39847199 0 0 Z " fill="#fff" transform="translate(475.625,-1.0625)"/>
<path d="M0 0 C3.22745524 1.41901662 5.37258107 3.12855765 7.85058594 5.62353516 C8.59105164 6.36415192 9.33151733 7.10476868 10.09442139 7.86782837 C10.88310608 8.66683563 11.67179077 9.4658429 12.484375 10.2890625 C13.29996887 11.10748627 14.11556274 11.92591003 14.95587158 12.76913452 C17.55864562 15.38309973 20.15437762 18.00393505 22.75 20.625 C24.5138634 22.39889454 26.2781809 24.17233766 28.04296875 25.9453125 C32.36726136 30.29165142 36.6857933 34.64365081 41 39 C39.16307611 43.00374431 36.50882084 45.71957934 33.375 48.75 C32.859375 49.25660156 32.34375 49.76320312 31.8125 50.28515625 C30.54616661 51.52803902 29.2736856 52.76465276 28 54 C24.77254476 52.58098338 22.62741893 50.87144235 20.14941406 48.37646484 C19.40894836 47.63584808 18.66848267 46.89523132 17.90557861 46.13217163 C17.11689392 45.33316437 16.32820923 44.5341571 15.515625 43.7109375 C14.70003113 42.89251373 13.88443726 42.07408997 13.04412842 41.23086548 C10.44135438 38.61690027 7.84562238 35.99606495 5.25 33.375 C3.4861366 31.60110546 1.7218191 29.82766234 -0.04296875 28.0546875 C-4.36726136 23.70834858 -8.6857933 19.35634919 -13 15 C-11.16307611 10.99625569 -8.50882084 8.28042066 -5.375 5.25 C-4.859375 4.74339844 -4.34375 4.23679687 -3.8125 3.71484375 C-2.54616661 2.47196098 -1.2736856 1.23534724 0 0 Z " fill="#fff" transform="translate(442,29)"/>
<path d="M0 0 C3.0308418 1.35781214 5.13650673 2.88418564 7.48339844 5.22460938 C8.14378113 5.87868774 8.80416382 6.53276611 9.48455811 7.20666504 C10.18574768 7.91190308 10.88693726 8.61714111 11.609375 9.34375 C12.33618469 10.06864624 13.06299438 10.79354248 13.81182861 11.54040527 C15.34397279 13.07119011 16.87360075 14.60449697 18.40087891 16.14013672 C20.74811631 18.4981077 23.10585778 20.84519546 25.46484375 23.19140625 C26.95116282 24.67904636 28.43686169 26.16730644 29.921875 27.65625 C30.6311615 28.36148804 31.340448 29.06672607 32.07122803 29.79333496 C32.71900208 30.44741333 33.36677612 31.1014917 34.03417969 31.77539062 C34.60835632 32.35115845 35.18253296 32.92692627 35.77410889 33.5201416 C37 35 37 35 37 37 C32.71489488 37.60024372 28.42828527 38.1877487 24.13989258 38.76391602 C22.68369485 38.96133646 21.22794959 39.16212673 19.77270508 39.36645508 C17.67120833 39.6609094 15.56833948 39.94288465 13.46484375 40.22265625 C12.202771 40.39547119 10.94069824 40.56828613 9.64038086 40.74633789 C0.61171138 41.3754565 0.61171138 41.3754565 -2.9453125 38.33984375 C-7.36914757 28.52548372 -1.60314859 10.43780942 0 0 Z " fill="#fff" transform="translate(305,170)"/>
</svg>
