<?xml version="1.0" encoding="UTF-8"?>
<svg 
version="1.1" 
xmlns="http://www.w3.org/2000/svg"
 width="512" 
 height="512">
<path d="M0 0 C3.44312071 3.19256731 6.78700865 6.47550296 10.10498047 9.79833984 C11.40511857 11.0963038 12.71759406 12.38321862 14.07373047 13.62255859 C38.86511915 36.59677743 52.21309079 72.61900802 57.44091797 105.13037109 C57.72902344 106.91507812 57.72902344 106.91507812 58.02294922 108.73583984 C60.38308839 128.96453271 59.03636203 150.36767911 54.44091797 170.13037109 C54.26431641 170.89655762 54.08771484 171.66274414 53.90576172 172.45214844 C46.67801928 202.46735662 30.49278757 228.01495979 9.44091797 250.13037109 C8.74869141 250.88705078 8.05646484 251.64373047 7.34326172 252.42333984 C-12.02923589 272.91563501 -38.32265028 286.56798589 -65.12158203 294.44287109 C-65.89872559 294.67337158 -66.67586914 294.90387207 -67.4765625 295.14135742 C-82.61710758 299.33713437 -97.65336844 300.68259993 -113.30908203 300.56787109 C-114.18138458 300.56516205 -115.05368713 300.562453 -115.9524231 300.55966187 C-129.50434544 300.49598545 -142.41025325 299.63634414 -155.55908203 296.13037109 C-156.30512695 295.94313477 -157.05117187 295.75589844 -157.81982422 295.56298828 C-164.36662381 293.9040837 -170.71236233 292.09964012 -176.78955078 289.11474609 C-186.88531523 284.20101148 -193.34312054 283.7423391 -204.0078125 287.29345703 C-242.23583094 299.83371035 -242.23583094 299.83371035 -257.28564453 292.59130859 C-266.52393191 286.65467719 -274.29843278 278.8411927 -276.9921875 268.01000977 C-279.55528561 254.99031029 -275.53890993 243.18402838 -271.99658203 230.75537109 C-271.19259378 227.92125821 -270.39391874 225.08618068 -269.61183167 222.24594116 C-269.12855582 220.49150587 -268.63292859 218.74040919 -268.12290955 216.99356079 C-265.88487339 208.88289852 -267.33038365 203.09884728 -270.74658203 195.50537109 C-288.01214668 155.12810371 -288.54862621 108.40795302 -272.74658203 67.44287109 C-253.96425821 22.88276611 -221.11916196 -11.12034621 -176.33251953 -30.01806641 C-118.02079807 -53.40589971 -46.87557249 -42.41489455 0 0 Z " fill="#aaa" transform="translate(304.55908203125,83.86962890625)"/>
<path d="M0 0 C14.9289523 2.02944789 30.96042969 16.7517875 41.60546875 26.7578125 C43.60371686 28.628929 45.63509164 30.38993106 47.75 32.125 C76.27577935 56.46969585 94.05992104 98.90679506 97.75390625 135.50390625 C99.70694677 165.95846124 97.26199965 199.68342862 81.91333008 226.92895508 C78.01855783 235.76064526 84.92754381 251.47455663 87.2097168 260.40869141 C90.80083414 274.53475773 93.58672611 287.23113752 87 301 C81.74784438 309.56803267 75.10498172 314.27224221 66.0625 318.3125 C52.96581535 321.25257206 41.25577075 318.46687967 28.73046875 314.45703125 C12.09234026 308.35040134 12.09234026 308.35040134 -4.7800293 309.93164062 C-7.57121704 311.43831603 -10.25050477 313.07621284 -12.91308594 314.79882812 C-16.70320367 316.98031844 -20.815394 318.11394225 -25 319.3125 C-25.83176758 319.55516602 -26.66353516 319.79783203 -27.52050781 320.04785156 C-71.9449606 332.51027121 -118.22809825 325.57203457 -158.41015625 303.64453125 C-164.98892331 299.93654857 -171.04938076 295.63577744 -177 291 C-177.5475293 290.57734863 -178.09505859 290.15469727 -178.65917969 289.71923828 C-185.26758819 284.58742669 -185.26758819 284.58742669 -188 282 C-188 281.34 -188 280.68 -188 280 C-186.73929688 279.91363281 -185.47859375 279.82726562 -184.1796875 279.73828125 C-128.66903698 275.47937155 -77.22811679 248.95424854 -40.46044922 207.25390625 C-37.11625228 203.30695627 -34.01776244 199.20004599 -31 195 C-30.52498047 194.34225586 -30.04996094 193.68451172 -29.56054688 193.00683594 C-11.55232453 167.77397103 0.91659309 139.42312404 7 109 C7.16226074 108.20787109 7.32452148 107.41574219 7.49169922 106.59960938 C14.07081154 72.84176987 11.02235692 36.25197713 0.48730469 3.72631836 C0 2 0 2 0 0 Z " fill="#aaa" transform="translate(394,144)"/>
</svg>
