<?xml version="1.0" encoding="UTF-8"?>
<svg version="1.1" xmlns="http://www.w3.org/2000/svg" width="512" height="512">
<path d="M0 0 C94.71 0 189.42 0 287 0 C287 55.11 287 110.22 287 167 C283.93875928 165.77550371 280.94875626 164.5501316 277.953125 163.1953125 C245.66023372 148.88008485 212.90038599 148.63221092 180 161 C179.36166733 161.35267441 178.72333466 161.70534882 178.06565857 162.06871033 C175.63914008 163.16269151 173.87466654 163.26994901 171.21899414 163.30297852 C170.27443863 163.31962051 169.32988312 163.33626251 168.35670471 163.35340881 C167.34309372 163.36182297 166.32948273 163.37023712 165.28515625 163.37890625 C163.71331825 163.40439796 163.71331825 163.40439796 162.10972595 163.43040466 C158.76071193 163.48352207 155.41170933 163.52380999 152.0625 163.5625 C148.71692576 163.60649857 145.3714451 163.65328925 142.02598572 163.70530701 C139.94480922 163.73712989 137.8635508 163.76406106 135.78224182 163.78553772 C134.36068031 163.80577248 134.36068031 163.80577248 132.91040039 163.82641602 C132.08085342 163.83592789 131.25130646 163.84543976 130.3966217 163.85523987 C127.85674737 164.00865271 125.48096032 164.44664437 123 165 C122.75045995 166.43410368 122.52607358 167.87260072 122.3125 169.3125 C122.18488281 170.11300781 122.05726563 170.91351563 121.92578125 171.73828125 C121.79221315 174.02160741 121.79221315 174.02160741 123.14453125 175.609375 C125.71319108 177.53451795 127.57205133 177.43076272 130.76171875 177.51171875 C131.87998047 177.54716797 132.99824219 177.58261719 134.15039062 177.61914062 C135.90125977 177.65297852 135.90125977 177.65297852 137.6875 177.6875 C138.86634766 177.72166016 140.04519531 177.75582031 141.25976562 177.79101562 C144.17308225 177.87357925 147.08609466 177.94270322 150 178 C148.44781897 181.4777641 146.64495175 183.23791994 143.6171875 185.5703125 C141.85988992 187.12386543 140.71874113 188.77127745 139.375 190.6875 C136.56473335 194.16651994 134.11567475 194.63005335 129.75 195.25 C128.71359375 195.33765625 127.6771875 195.4253125 126.609375 195.515625 C125.31773437 195.75539062 125.31773437 195.75539062 124 196 C121.63777514 198.87861224 121.63777514 198.87861224 122.25 202.4375 C122.71604335 205.86105985 122.71604335 205.86105985 124.26953125 207.73828125 C125.29747352 210.92105438 124.04369457 212.71660273 122.58447266 215.58349609 C122.01672119 216.65591553 122.01672119 216.65591553 121.4375 217.75 C107.65682182 245.32919927 105.36090509 276.67051712 115 306 C125.55162281 336.30451195 146.00777642 360.57971322 174.82421875 375.10546875 C182.5841519 378.78183028 190.8404859 381.36701394 199 384 C199 384.33 199 384.66 199 385 C133.33 385 67.66 385 0 385 C0 257.95 0 130.9 0 0 Z M63.5 71.4375 C62.18773415 72.75479059 60.87523605 74.07184986 59.5625 75.38867188 C56.37231494 78.5897861 53.18529349 81.79401865 50 85 C48.87385081 84.04555813 47.7492241 83.08931968 46.62524414 82.13232422 C45.99880508 81.6000119 45.37236603 81.06769958 44.72694397 80.51925659 C42.81515096 78.83738145 41.12584608 77.02914972 39.4375 75.125 C37.06429477 72.73586721 36.24899265 72.05975824 32.875 71.25 C28.94424283 72.27541491 27.3581328 73.71290579 25 77 C25.18440645 82.05634758 26.75506196 84.39423185 30.26171875 87.92578125 C31.13376953 88.80427734 32.00582031 89.68277344 32.90429688 90.58789062 C33.82275391 91.48701172 34.74121094 92.38613281 35.6875 93.3125 C36.58662109 94.23095703 37.48574219 95.14941406 38.41210938 96.09570312 C39.29060547 96.96775391 40.16910156 97.83980469 41.07421875 98.73828125 C41.87432373 99.53274658 42.67442871 100.32721191 43.4987793 101.14575195 C46.6326306 103.46899262 48.06910213 104.25103631 52 104 C55.01836587 102.0269433 57.462158 99.54737377 60 97 C60.68714081 96.34239685 61.37428162 95.6847937 62.08224487 95.00726318 C64.28285204 92.89770095 66.4547961 90.76194857 68.62109375 88.6171875 C69.40646011 87.83989288 70.19182648 87.06259827 71.00099182 86.26174927 C72.64526523 84.63120758 74.28806465 82.99917825 75.92944336 81.36572266 C77.6095871 79.69719092 79.29421167 78.0331598 80.9831543 76.37353516 C83.43475017 73.96440862 85.87300917 71.54248725 88.30859375 69.1171875 C89.06579208 68.37749725 89.82299042 67.63780701 90.60313416 66.8757019 C91.29798416 66.17792633 91.99283417 65.48015076 92.70874023 64.76123047 C93.32192612 64.15391083 93.935112 63.54659119 94.56687927 62.92086792 C96.30787615 60.58734152 96.74852956 58.88687562 97 56 C95.24886475 52.28738773 95.24886475 52.28738773 92 50 C81.54936512 48.00940288 70.28259747 64.60951393 63.5 71.4375 Z M122.72753906 60.31288147 C120.68240789 62.97593653 120.68240789 62.97593653 120.9375 66.625 C122.12037122 70.38235565 122.6879348 71.08383726 126 73 C128.55924722 73.45104019 128.55924722 73.45104019 131.38267517 73.38768005 C132.47478806 73.39758469 133.56690094 73.40748932 134.69210815 73.41769409 C136.48214767 73.41094162 136.48214767 73.41094162 138.30834961 73.40405273 C139.56886642 73.41091599 140.82938324 73.41777924 142.12809753 73.42485046 C145.58270542 73.44279305 149.03705945 73.44161148 152.49169993 73.43590808 C155.37691405 73.43281764 158.26207931 73.43890708 161.14728647 73.44494683 C167.95459626 73.45899417 174.76178055 73.45742921 181.5690918 73.44604492 C188.58902402 73.43456439 195.60857418 73.44863747 202.62845606 73.4754414 C208.65831629 73.49760207 214.68805663 73.50423495 220.7179547 73.49836498 C224.31810979 73.49499491 227.91801999 73.4974134 231.51814079 73.51461601 C235.53309172 73.53296346 239.54729986 73.5188945 243.56225586 73.50170898 C244.75359131 73.51137695 245.94492676 73.52104492 247.17236328 73.53100586 C253.48210527 73.50549161 253.48210527 73.50549161 259.23829651 71.18739319 C261.28939662 68.99931554 261.28939662 68.99931554 261.625 65.5 C261.28975502 62.00056865 261.28975502 62.00056865 259.23730469 59.81459045 C254.18653347 56.98350654 249.27485662 57.43530606 243.578125 57.46655273 C242.31746216 57.45793716 241.05679932 57.44932159 239.75793457 57.44044495 C236.30745378 57.41797373 232.85743216 57.42088483 229.40690613 57.42976642 C226.52411419 57.4348818 223.64140812 57.42757942 220.75862503 57.42029434 C213.95749635 57.40330301 207.1565921 57.40685382 200.35546875 57.42358398 C193.34281424 57.44051156 186.33078192 57.42466097 179.31819534 57.3923611 C173.29254175 57.36566019 167.26708178 57.35839027 161.24137497 57.36687618 C157.64454078 57.37180322 154.04808107 57.36960231 150.45129395 57.34908867 C146.44109269 57.3273111 142.43207067 57.34613531 138.421875 57.36889648 C137.2321106 57.35720428 136.04234619 57.34551208 134.81652832 57.33346558 C128.24440893 57.23041822 128.24440893 57.23041822 122.72753906 60.31288147 Z M121 94 C120.66339855 97.64407137 120.66339855 97.64407137 122 101 C126.01864713 104.21127253 129.32573141 104.38317467 134.37304688 104.40405273 C135.09726334 104.41091599 135.8214798 104.41777924 136.56764221 104.42485046 C138.95154659 104.44308928 141.33479111 104.43928582 143.71875 104.43359375 C145.38114638 104.43815656 147.04354086 104.44346243 148.70593262 104.44947815 C152.18603185 104.45840318 155.66590152 104.45599265 159.14599609 104.44604492 C163.60164491 104.43454844 168.056502 104.45477968 172.51204681 104.48396206 C175.94363419 104.50232239 179.37503171 104.5020321 182.80665588 104.49632454 C184.44927584 104.49617134 186.09190867 104.50221434 187.73448181 104.51461601 C190.03247552 104.52952399 192.3290047 104.51885273 194.62695312 104.50170898 C195.93313599 104.50154282 197.23931885 104.50137665 198.58508301 104.50120544 C202.57247699 103.91597787 204.24506283 102.9050823 207 100 C207.62081715 96.13713774 207.74534711 94.03753413 205.43003845 90.81459045 C202.19367948 88.39789368 199.44282275 88.43020961 195.55688477 88.46655273 C194.81330719 88.45793716 194.06972961 88.44932159 193.30361938 88.44044495 C190.84919274 88.41776929 188.3959065 88.42452651 185.94140625 88.43359375 C184.23273886 88.42835853 182.52407437 88.42208243 180.81541443 88.41481018 C177.23512164 88.40440284 173.6552262 88.40897157 170.07495117 88.42358398 C165.49019222 88.44076565 160.90668721 88.41728689 156.32206821 88.38209438 C152.79351012 88.36011612 149.26525182 88.36156293 145.73664665 88.3698597 C144.04657555 88.37067912 142.35648242 88.36381729 140.6664753 88.34908867 C138.30104033 88.33163521 135.93785488 88.34618874 133.57250977 88.36889648 C132.87676346 88.35720428 132.18101715 88.34551208 131.46418762 88.33346558 C126.32797673 88.4336122 124.06846029 89.94731269 121 94 Z M72.09375 172.80859375 C69.55755392 175.3466603 67.02865483 177.89192361 64.5 180.4375 C63.18773415 181.75479059 61.87523605 183.07184986 60.5625 184.38867188 C57.37231494 187.5897861 54.18529349 190.79401865 51 194 C46.44623404 191.87363499 43.65238902 188.71553362 40.21875 185.09375 C37.38629513 182.42087005 35.43654065 180.96408648 31.5 181.0625 C28.06139241 182.35197785 26.82794015 183.83625742 25 187 C25.22680851 192.09430135 26.76374676 194.38883811 30.33203125 197.92578125 C31.65364258 199.24352539 31.65364258 199.24352539 33.00195312 200.58789062 C33.92943359 201.48701172 34.85691406 202.38613281 35.8125 203.3125 C36.72837891 204.23095703 37.64425781 205.14941406 38.58789062 206.09570312 C43.4642906 211.62312845 43.4642906 211.62312845 50 214 C56.27110849 211.89955506 60.48904658 206.9609477 65.046875 202.38671875 C65.89928772 201.53954788 66.75170044 200.69237701 67.62994385 199.8195343 C69.42552722 198.03036064 71.21725986 196.2373152 73.00537109 194.44067383 C75.74214574 191.69537871 78.49706601 188.96926762 81.25390625 186.24414062 C82.99852713 184.50113161 84.74205445 182.75702719 86.484375 181.01171875 C87.3083075 180.19902023 88.13223999 179.38632172 88.98114014 178.54899597 C94.47452798 173.13838477 94.47452798 173.13838477 97 166 C95.46079825 162.43553279 94.25728341 161.17152227 91 159 C83.09071765 159 77.4624077 167.47069361 72.09375 172.80859375 Z M77.7578125 276.65625 C76.98944061 277.43311157 76.22106873 278.20997314 75.42941284 279.01037598 C72.98016825 281.49318809 70.55260957 283.99604749 68.125 286.5 C66.46753306 288.18756152 64.80869433 289.8737769 63.1484375 291.55859375 C59.08291561 295.69024488 55.0350016 299.83854917 51 304 C46.14693741 301.76676053 43.27719622 298.14500122 39.73046875 294.21484375 C36.39839172 291.51200015 34.25426222 291.08399821 30 291 C26.83333333 292.83333333 26.83333333 292.83333333 25 296 C24.70817603 300.17042985 25.23296242 302.02791681 27.83935547 305.33105469 C30.3015877 307.92919435 32.84048265 310.4116942 35.4375 312.875 C36.76491211 314.174375 36.76491211 314.174375 38.11914062 315.5 C43.16793801 320.9255253 43.16793801 320.9255253 49.8367157 323.30523682 C53.77561386 322.9251582 54.85093203 321.89362073 57.61254883 319.11621094 C58.46976028 318.26822937 59.32697174 317.4202478 60.2101593 316.54656982 C61.11662704 315.61854553 62.02309479 314.69052124 62.95703125 313.734375 C63.90903429 312.7787932 64.86215167 311.8243204 65.81632996 310.87091064 C67.81011008 308.8724449 69.79342882 306.86432825 71.76928711 304.84814453 C74.30057073 302.26585652 76.85119358 299.70379653 79.40923023 297.14803696 C81.37726499 295.17918595 83.3373804 293.20260933 85.2949276 291.22333527 C86.68845918 289.81563589 88.08648839 288.41239349 89.48457336 287.00921631 C90.32602402 286.1486261 91.16747467 285.28803589 92.03442383 284.40136719 C92.77799637 283.64635925 93.52156891 282.89135132 94.28767395 282.11346436 C96.03026403 279.96264616 96.70366592 278.72689915 97 276 C95.91970563 272.2189697 95.35693737 271.23795825 92 269 C85.25909619 267.47766177 82.04448888 272.18886857 77.7578125 276.65625 Z " fill="#aaa" transform="translate(53,32)"/>
<path d="M0 0 C14.68650395 12.37760463 23.26169793 28.33477038 25.46484375 47.5 C26.60371198 66.04157403 22.20671052 84.64385137 9.69897461 98.8515625 C7.42418459 101.3413748 5.06706618 103.73487362 2.6875 106.125 C2.12546875 106.72183594 1.5634375 107.31867188 0.984375 107.93359375 C-11.40414782 119.96350143 -30.89207581 124.53889544 -47.5078125 124.328125 C-63.21423717 123.48958898 -78.51066985 117.7414935 -90.3125 107.125 C-91.04726562 106.47015625 -91.78203125 105.8153125 -92.5390625 105.140625 C-106.64902447 91.83290167 -113.49140517 74.41674167 -114.2734375 55.28125 C-114.69715607 35.77216536 -106.94352577 18.5353501 -93.75 4.47265625 C-67.73287391 -20.58550526 -28.29775003 -21.65468066 0 0 Z " fill="#aaa" transform="translate(324.3125,246.875)"/>
<path d="M0 0 C2.08590216 1.83058242 4.11672648 3.70980275 6.125 5.625 C6.99640625 6.45386719 7.8678125 7.28273437 8.765625 8.13671875 C27.44416304 27.31452589 36.68263308 53.25622268 37.3125 79.75 C36.96244714 104.67376345 29.03212427 128.95046431 12.125 147.625 C11.44050781 148.45 10.75601563 149.275 10.05078125 150.125 C-6.95342015 170.15149214 -32.6919709 181.65330102 -58.60205078 183.85693359 C-87.03587271 185.45990737 -114.45457341 177.07915303 -136.10522461 158.30712891 C-158.03925621 138.37538756 -169.19630724 111.98404803 -171.05859375 82.7421875 C-171.78789827 53.99900928 -160.60538526 27.97432209 -141.28491211 7.04296875 C-104.52067472 -31.32623025 -40.53196391 -34.08082209 0 0 Z M-130.6875 23.375 C-145.04134485 40.26816563 -153.1659761 62.37264883 -151.875 84.625 C-150.17349435 104.24092944 -142.99619592 121.90065044 -129.875 136.625 C-129.20984375 137.38425781 -128.5446875 138.14351562 -127.859375 138.92578125 C-113.35073023 154.48227259 -92.18123763 163.59744214 -71.125 164.84765625 C-48.51235404 165.57070258 -27.79836392 158.20577788 -10.6875 143.25 C-9.066366 141.72618526 -7.46141352 140.18492915 -5.875 138.625 C-5.17503906 137.93792969 -4.47507812 137.25085938 -3.75390625 136.54296875 C11.96021096 120.03242455 18.19385799 97.93007086 18.125 75.625 C16.79783688 52.25218286 6.20890709 31.24359554 -11.09375 15.6484375 C-29.82195577 -0.35922705 -51.85682033 -5.8575554 -76.09423828 -4.59375 C-97.23184575 -2.93094962 -116.22358847 8.33652894 -130.6875 23.375 Z " fill="#aaa" transform="translate(346.875,221.375)"/>
<path d="M0 0 C3.04464891 1.36222797 5.14947874 2.89855419 7.50466919 5.2507019 C8.18040985 5.92080292 8.85615051 6.59090393 9.55236816 7.28131104 C10.648172 8.38318756 10.648172 8.38318756 11.76611328 9.50732422 C12.54377045 10.28147675 13.32142761 11.05562927 14.12265015 11.85324097 C16.69359471 14.41537811 19.25714874 16.98476813 21.8203125 19.5546875 C23.60313128 21.33615935 25.38624689 23.1173342 27.16964722 24.89822388 C30.9068878 28.63251453 34.64058471 32.370313 38.37158203 36.11083984 C42.682674 40.43281579 47.00092361 44.74753961 51.32296193 49.05856693 C55.48367479 53.20910429 59.63873966 57.36525377 63.79143906 61.52380753 C65.55784085 63.29154486 67.32573332 65.05779393 69.09512711 66.82253647 C71.56584492 69.28818356 74.0300743 71.76013688 76.49267578 74.23388672 C77.22726013 74.96442261 77.96184448 75.6949585 78.71868896 76.44763184 C79.38878998 77.1233725 80.05889099 77.79911316 80.7492981 78.49533081 C81.33220675 79.07899351 81.91511539 79.66265621 82.51568794 80.26400566 C86.10121165 84.45749639 86.43469881 88.16865385 86.31640625 93.53125 C85.84613026 97.20056389 84.4200872 99.25287399 82 102 C81.34 102.78375 80.68 103.5675 80 104.375 C75.23748282 106.9546968 70.25706563 107.18236301 65 106 C58.94377992 102.23476811 53.92014776 97.19839802 48.93164062 92.15869141 C48.16969391 91.39703674 47.40774719 90.63538208 46.62271118 89.85064697 C44.12911504 87.35566803 41.64265998 84.85370121 39.15625 82.3515625 C37.41934273 80.61092137 35.6819906 78.87072403 33.94421387 77.13095093 C29.38931203 72.56844203 24.84045058 67.99995727 20.29284668 63.43017578 C15.64419672 58.76100422 10.98982352 54.09754538 6.3359375 49.43359375 C-2.78163228 40.29462572 -11.89302308 31.14952324 -21 22 C-15.67497555 16.67277461 -15.67497555 16.67277461 -13.02734375 14.0625 C-11.99737267 13.04169004 -10.96742499 12.02085647 -9.9375 11 C-9.42123047 10.49210937 -8.90496094 9.98421875 -8.37304688 9.4609375 C-5.35186525 6.45899907 -2.59699182 3.38792219 0 0 Z " fill="#aaa" transform="translate(373,374)"/>
</svg>
