<?xml version="1.0" encoding="UTF-8"?>
<svg version="1.1" xmlns="http://www.w3.org/2000/svg" width="512" height="512">
<path d="M0 0 C1.05700712 -0.00644889 2.11401423 -0.01289778 3.20305187 -0.0195421 C4.9356197 -0.01489629 4.9356197 -0.01489629 6.7031889 -0.01015663 C7.93504931 -0.01468774 9.16690972 -0.01921886 10.43609923 -0.02388728 C13.85270262 -0.03436043 17.26909556 -0.03585663 20.68570006 -0.03349853 C24.37156821 -0.0330904 28.05740496 -0.04412909 31.74325848 -0.05361366 C38.9636347 -0.07022567 46.18397828 -0.0757233 53.40437201 -0.07683842 C59.27375458 -0.07778881 65.14312637 -0.08189867 71.01250553 -0.08823967 C87.65437853 -0.10585275 104.29622574 -0.11507845 120.93810812 -0.11357872 C121.83525198 -0.11349881 122.73239585 -0.1134189 123.65672588 -0.11333656 C125.00408539 -0.11321392 125.00408539 -0.11321392 126.37866428 -0.1130888 C140.93560393 -0.11227592 155.4924401 -0.13141401 170.04934982 -0.1596133 C184.99735816 -0.18834164 199.94531604 -0.20215361 214.89335269 -0.20042574 C223.28510577 -0.19976182 231.67675037 -0.20525524 240.06847858 -0.22678185 C247.21353167 -0.24499302 254.35842711 -0.24934157 261.50349335 -0.235763 C265.14808412 -0.22923291 268.79237246 -0.22911723 272.43693447 -0.2464695 C276.39049069 -0.2650991 280.34360532 -0.25264658 284.29718304 -0.23720741 C286.01971262 -0.2526381 286.01971262 -0.2526381 287.77704078 -0.26838052 C295.54620088 -0.20127353 300.92761416 0.95968567 306.93284893 6.22211266 C307.47167706 6.87308922 308.01050518 7.52406578 308.56566143 8.19476891 C309.11995831 8.84316734 309.67425518 9.49156578 310.24534893 10.15961266 C343.17798954 57.95644511 313.69066143 126.21335441 313.69066143 184.25726891 C202.81066143 184.25726891 91.93066143 184.25726891 -22.30933857 184.25726891 C-22.30933857 13.82188123 -22.30933857 13.82188123 -16.34449482 7.01508141 C-15.69351826 6.47625328 -15.04254169 5.93742516 -14.37183857 5.38226891 C-13.72344013 4.82797203 -13.07504169 4.27367516 -12.40699482 3.70258141 C-8.39650113 0.93929898 -4.83754914 0.00747982 0 0 Z M91.69066143 11.25726891 C87.14818796 15.77444108 82.60959718 20.29548688 78.07371807 24.81928062 C76.52936851 26.35859338 74.98412372 27.89700851 73.43797588 29.434515 C71.21907593 31.64132092 69.0033881 33.85130747 66.78831768 36.06195641 C66.09351803 36.75159477 65.39871838 37.44123314 64.68286419 38.15176964 C64.04227566 38.79228264 63.40168713 39.43279564 62.74168682 40.09271812 C62.17543087 40.65675346 61.60917492 41.2207888 61.0257597 41.80191612 C59.1846676 43.80883844 58.70329647 45.19093497 58.19066143 47.88226891 C59.57353538 57.21666804 72.56842036 66.24465624 79.12816143 72.75726891 C80.34909833 73.97318004 81.56980335 75.18932406 82.79027081 76.40570641 C85.75440156 79.35891856 88.72165101 82.30896289 91.69066143 85.25726891 C92.77905917 84.36759547 93.86110751 83.47015316 94.94066143 82.56976891 C95.54394268 82.07090172 96.14722393 81.57203453 96.76878643 81.05805016 C99.19520104 78.87034958 99.19520104 78.87034958 102.69066143 74.25726891 C94.44066143 66.00726891 86.19066143 57.75726891 77.69066143 49.25726891 C79.65227574 45.33404028 81.84798347 42.84034033 84.91722393 39.83539391 C85.42490307 39.33054466 85.93258221 38.82569542 86.45564556 38.30554771 C88.07099985 36.70134794 89.69318352 35.10426035 91.31566143 33.50726891 C92.41507841 32.41788783 93.51404202 31.32804901 94.61253643 30.23773766 C97.30002163 27.57225006 99.99365164 24.91311747 102.69066143 22.25726891 C101.80098799 21.16887116 100.90354569 20.08682282 100.00316143 19.00726891 C99.50429424 18.40398766 99.00542706 17.80070641 98.49144268 17.17914391 C96.39931093 14.94632651 94.11217074 13.12187233 91.69066143 11.25726891 Z M196.40550518 13.44476891 C195.48898174 14.37289391 194.57245831 15.30101891 193.62816143 16.25726891 C192.24950909 17.64945641 192.24950909 17.64945641 190.84300518 19.06976891 C190.13273174 19.79164391 189.42245831 20.51351891 188.69066143 21.25726891 C193.65260998 27.25227887 199.03832383 32.72153928 204.56566143 38.19476891 C205.44480206 39.06939781 206.32394268 39.94402672 207.22972393 40.84515953 C209.38109603 42.98483939 211.53477935 45.12213488 213.69066143 47.25726891 C212.1063469 51.16578089 209.42431048 53.78094247 206.46409893 56.67914391 C205.95641979 57.18399315 205.44874065 57.68884239 204.9256773 58.2089901 C203.31032301 59.81318987 201.68813934 61.41027746 200.06566143 63.00726891 C198.96624445 64.09664998 197.86728084 65.18648881 196.76878643 66.27680016 C194.08130123 68.94228775 191.38767122 71.60142034 188.69066143 74.25726891 C189.58033487 75.34566665 190.47777717 76.42771499 191.37816143 77.50726891 C191.87702862 78.11055016 192.37589581 78.71383141 192.88988018 79.33539391 C194.98201193 81.5682113 197.26915212 83.39266548 199.69066143 85.25726891 C204.23313491 80.74009674 208.77172568 76.21905093 213.30760479 71.69525719 C214.85195435 70.15594443 216.39719915 68.6175293 217.94334698 67.08002281 C220.16224693 64.87321689 222.37793476 62.66323034 224.59300518 60.45258141 C225.28780483 59.76294304 225.98260448 59.07330467 226.69845867 58.36276817 C227.3390472 57.72225517 227.97963573 57.08174217 228.63963604 56.42181969 C229.20589199 55.85778435 229.77214794 55.29374901 230.35556316 54.71262169 C232.19665526 52.70569937 232.67802639 51.32360284 233.19066143 48.63226891 C231.88648958 39.82910894 220.28285055 31.69698324 214.10911846 25.54535484 C212.29526526 23.73693382 210.48690963 21.92313526 208.67894268 20.10883141 C207.52952422 18.96007251 206.37979627 17.81162318 205.22972393 16.66351891 C204.68812634 16.11989708 204.14652874 15.57627525 203.5885191 15.01618004 C200.18908248 10.83331885 200.18908248 10.83331885 196.40550518 13.44476891 Z M162.69066143 12.25726891 C161.78901748 13.36850806 160.93211387 14.51605222 160.09300518 15.67523766 C159.54708721 16.42418297 159.00116924 17.17312828 158.43870831 17.94476891 C157.84122784 18.76976891 157.24374737 19.59476891 156.62816143 20.44476891 C151.39603877 27.61250586 146.08762142 34.71286434 140.69066143 41.75726891 C135.36294348 48.73047373 130.05561645 55.71778862 124.81566143 62.75726891 C124.22655987 63.54037437 123.63745831 64.32347984 123.03050518 65.13031578 C122.21646221 66.22956383 122.21646221 66.22956383 121.38597393 67.35101891 C120.67465313 68.30524742 120.67465313 68.30524742 119.94896221 69.27875328 C118.35414282 71.65176837 118.35414282 71.65176837 116.69066143 76.25726891 C120.32066143 78.89726891 123.95066143 81.53726891 127.69066143 84.25726891 C130.35397064 81.59395969 132.43419272 79.41827437 134.58128643 76.44867516 C135.117617 75.7125399 135.65394756 74.97640465 136.20653057 74.21796227 C136.77879375 73.42655846 137.35105694 72.63515465 137.94066143 71.81976891 C143.1257417 64.70996044 148.39780892 57.67711311 153.75316143 50.69476891 C158.9621653 43.87217167 164.15684904 37.0396036 169.25316143 30.13226891 C169.81978497 29.38002037 170.3864085 28.62777184 170.97020245 27.85272789 C171.47736797 27.1586483 171.9845335 26.46456871 172.50706768 25.74945641 C173.17911236 24.84235924 173.17911236 24.84235924 173.8647337 23.91693687 C175.0231798 22.07853593 175.0231798 22.07853593 173.69066143 19.25726891 C171.41028005 17.35517974 171.41028005 17.35517974 168.69066143 15.56976891 C167.32941143 14.63584312 167.32941143 14.63584312 165.94066143 13.68305016 C163.99383206 12.16805867 163.99383206 12.16805867 162.69066143 12.25726891 Z M121.31566143 107.56976891 C120.40126378 108.76991582 119.52518395 110.00026936 118.69066143 111.25726891 C118.27816143 111.87859703 117.86566143 112.49992516 117.44066143 113.14008141 C113.60662553 120.14252197 113.45236332 128.5034396 114.69066143 136.25726891 C117.75949747 146.15818517 123.74673529 152.80218027 132.75316143 157.69476891 C140.60607962 160.83321891 150.22529198 160.51199552 158.12816143 157.69476891 C166.51794048 153.70892703 172.02873548 147.75985234 175.69066143 139.25726891 C178.36430574 131.11636476 177.63731531 121.17840685 173.99925518 113.49945641 C168.75431341 104.51260095 161.3550219 99.34642523 151.26878643 96.59711266 C139.97571347 94.85509608 129.01451382 99.25191331 121.31566143 107.56976891 Z " fill="#aaa" transform="translate(110.30933856964111,303.74273109436035)"/>
<path d="M0 0 C2.23382139 -0.00389794 4.46764205 -0.00823482 6.70146179 -0.01298523 C11.35153626 -0.02039234 16.0015347 -0.02019463 20.65161133 -0.01489258 C26.58352915 -0.00907727 32.51513682 -0.02610564 38.44700336 -0.04923725 C43.04804779 -0.0640211 47.64901805 -0.06484044 52.25008202 -0.06172752 C54.43675543 -0.06223747 56.62343336 -0.06741314 58.81008339 -0.07753944 C79.44973879 -0.16148372 96.91557783 2.27493451 112.39135742 17.18823242 C113.75682024 18.5462906 115.10361492 19.9230436 116.44921875 21.30078125 C117.12726563 21.95820312 117.8053125 22.615625 118.50390625 23.29296875 C129.57842132 34.76124436 134.11089159 51.3109807 134.69921875 66.86328125 C134.42753587 81.82847993 128.75598457 95.53488356 123.44921875 109.30078125 C122.78921875 108.97078125 122.12921875 108.64078125 121.44921875 108.30078125 C120.76220915 105.86174716 120.17792178 103.45982194 119.63671875 100.98828125 C115.13296889 82.00774179 104.73483779 66.80489585 93.65771484 51.05029297 C92.48601051 49.35404383 91.3663212 47.63144238 90.25 45.8984375 C88.7080788 43.23009284 88.7080788 43.23009284 86.44921875 42.30078125 C82.57143497 41.82640087 80.83887791 42.06012447 77.4765625 44.13671875 C76.45691406 44.97460938 75.43726563 45.8125 74.38671875 46.67578125 C73.82654053 47.12477783 73.2663623 47.57377441 72.68920898 48.03637695 C70.9318339 49.44517366 69.1894338 50.8708637 67.44921875 52.30078125 C52.28991863 64.71082176 37.64120669 72.13515563 17.69921875 73.23828125 C4.91764151 74.13063765 -7.09055531 76.26197532 -18.55078125 82.30078125 C-19.97777344 83.04521484 -19.97777344 83.04521484 -21.43359375 83.8046875 C-30.89454376 88.98248875 -39.69465184 95.07019965 -48.56640625 101.1875 C-54.89871473 105.55282725 -61.27973915 109.84214108 -67.67578125 114.11328125 C-68.70106934 114.80099609 -69.72635742 115.48871094 -70.78271484 116.19726562 C-72.2186499 117.15536133 -72.2186499 117.15536133 -73.68359375 118.1328125 C-74.52809082 118.69718018 -75.37258789 119.26154785 -76.24267578 119.84301758 C-78.3002762 121.14256614 -80.35276851 122.26126615 -82.55078125 123.30078125 C-92.20003807 105.05848902 -92.20003807 105.05848902 -95.61328125 98.36328125 C-95.97550781 97.65300781 -96.33773437 96.94273438 -96.7109375 96.2109375 C-99.28914745 90.34700883 -99.1622497 84.79655486 -97.05078125 78.80078125 C-93.86400483 68.71953663 -94.41551722 58.45314856 -99.02734375 48.94921875 C-104.5386806 39.36797162 -111.74673186 35.65209305 -121.55078125 31.30078125 C-121.55078125 30.64078125 -121.55078125 29.98078125 -121.55078125 29.30078125 C-98.64392751 17.93504763 -75.40578688 9.1937779 -50.30078125 4.05078125 C-49.57060791 3.89971924 -48.84043457 3.74865723 -48.08813477 3.59301758 C-32.06197134 0.49675652 -16.26705963 -0.01195868 0 0 Z " fill="#aaa" transform="translate(236.55078125,23.69921875)"/>
<path d="M0 0 C5.28 0 10.56 0 16 0 C16.04898438 1.62808594 16.09796875 3.25617188 16.1484375 4.93359375 C16.2235192 7.10157775 16.29906465 9.26954573 16.375 11.4375 C16.4059375 12.50677734 16.436875 13.57605469 16.46875 14.67773438 C16.80948057 23.96264229 17.44819837 31.41253778 23 39 C23 39.66 23 40.32 23 41 C35.22445433 47.35671625 49.66668997 49.38687575 63.1796875 45.6875 C69.42350435 43.32932025 74.19711455 38.76368787 77.0703125 32.765625 C78.19530336 29.41901354 78.66716584 26.18666111 79.125 22.6875 C79.41375 20.480625 79.7025 18.27375 80 16 C85.28 16 90.56 16 96 16 C96.17015625 17.15757812 96.3403125 18.31515625 96.515625 19.5078125 C96.75964221 21.04699798 97.00447736 22.58605394 97.25 24.125 C97.41435547 25.26582031 97.41435547 25.26582031 97.58203125 26.4296875 C98.43212845 31.61975459 99.89173592 34.77430213 103 39 C103 39.66 103 40.32 103 41 C115.22445433 47.35671625 129.66668997 49.38687575 143.1796875 45.6875 C149.6205974 43.25488167 154.20366509 38.59266982 157.25 32.5 C158.66588706 27.78037648 159.13169379 23.07213632 159.31640625 18.1640625 C159.35830078 17.10058594 159.40019531 16.03710938 159.44335938 14.94140625 C159.48267578 13.84699219 159.52199219 12.75257813 159.5625 11.625 C159.62727539 9.94857422 159.62727539 9.94857422 159.69335938 8.23828125 C159.79897342 5.49231618 159.89994563 2.74617327 160 0 C165.28 0 170.56 0 176 0 C177.39707241 35.62534636 166.11135487 72.47711207 148 103 C146.39375725 104.60624275 144.66549037 104.15637883 142.44038391 104.18754578 C141.45481003 104.20337204 140.46923615 104.2191983 139.45379639 104.23550415 C138.36343079 104.24761932 137.27306519 104.2597345 136.1496582 104.2722168 C135.00822861 104.28842575 133.86679901 104.3046347 132.69078064 104.32133484 C122.15202319 104.46160075 111.61238414 104.54111187 101.07287312 104.60025311 C93.28124184 104.64481679 85.49137202 104.72192022 77.70052844 104.84183758 C71.56292635 104.93312318 65.42603127 104.96969037 59.28780174 104.98771095 C56.67734785 105.0036801 54.06694088 105.03698853 51.45693398 105.08786583 C47.80225656 105.15569814 44.15249405 105.16086823 40.49731445 105.15112305 C39.41707001 105.18550476 38.33682556 105.21988647 37.22384644 105.25531006 C34.17130434 105.20892127 31.86116326 105.07315454 29 104 C26.25076167 100.96962553 24.63779408 97.72273451 23 94 C22.3355433 92.74664005 21.66443077 91.49672958 20.98046875 90.25390625 C8.51512888 65.15326005 -0.40359806 35.66411911 -0.0625 7.4375 C-0.041875 4.983125 -0.02125 2.52875 0 0 Z " fill="#aaa" transform="translate(168,184)"/>
<path d="M0 0 C3.49689931 1.1656331 3.89532663 1.91328296 5.85546875 4.91015625 C6.39187988 5.72742188 6.92829102 6.5446875 7.48095703 7.38671875 C8.04411621 8.26972656 8.60727539 9.15273437 9.1875 10.0625 C9.76612793 10.96484375 10.34475586 11.8671875 10.94091797 12.796875 C22.48511099 31.06149504 27.52818392 46.12621279 27.1875 67.75 C27.17241601 69.42967541 27.15873422 71.10936403 27.14648438 72.7890625 C27.11379554 76.85970756 27.06222231 80.92970367 27 85 C26.10908157 85.00808685 25.21816315 85.01617371 24.30024719 85.02450562 C15.89876245 85.10248897 7.49743713 85.18979107 -0.90384197 85.28752708 C-5.22289005 85.33744478 -9.54191421 85.38377519 -13.86108398 85.421875 C-18.03035098 85.45878504 -22.19941563 85.50516046 -26.36850929 85.55806351 C-27.95805113 85.57657709 -29.54763629 85.59169625 -31.13724327 85.60334396 C-33.36603837 85.62025859 -35.59437314 85.6493055 -37.82299805 85.68115234 C-39.09096725 85.69447601 -40.35893646 85.70779968 -41.66532898 85.7215271 C-44.90059274 85.99169866 -47.13427143 86.50240359 -50 88 C-52.35364197 92.00119135 -52.53823932 96.45935328 -53 101 C-58.28 101 -63.56 101 -69 101 C-69.42317708 98.23307292 -69.84635417 95.46614583 -70.26953125 92.69921875 C-71.04771242 89.82369368 -71.64501344 88.76196331 -74 87 C-77.48574888 85.83808371 -80.27111727 85.83961986 -83.94995117 85.79467773 C-85.00399391 85.77982834 -85.00399391 85.77982834 -86.07933044 85.76467896 C-88.40050901 85.73310766 -90.72170805 85.70832387 -93.04296875 85.68359375 C-94.65294423 85.66302044 -96.26291436 85.64202387 -97.87287903 85.62062073 C-102.10936138 85.56543894 -106.34589216 85.51601251 -110.5824585 85.46777344 C-114.90592761 85.41752999 -119.22932644 85.36185877 -123.55273438 85.30664062 C-132.03509681 85.19910666 -140.51751807 85.09765113 -149 85 C-149.0744009 82.89856441 -149.12779215 80.79637678 -149.17211914 78.6940918 C-149.20406876 77.52355759 -149.23601837 76.35302338 -149.26893616 75.14701843 C-149 72 -149 72 -147.72581482 70.09663391 C-146.04597356 68.73195668 -144.37238186 67.78183787 -142.4375 66.8125 C-141.05004603 66.0077767 -139.66334735 65.20175001 -138.27734375 64.39453125 C-137.56433105 64.00088379 -136.85131836 63.60723633 -136.11669922 63.20166016 C-132.78963005 61.31286726 -129.65861516 59.15461032 -126.5 57 C-125.25616163 56.16914401 -124.01136505 55.33972075 -122.765625 54.51171875 C-120.21142218 52.80913882 -117.65963946 51.10300421 -115.109375 49.39453125 C-111.97646854 47.29579575 -108.83433751 45.21134839 -105.68994141 43.12988281 C-104.15051932 42.10063615 -102.62704391 41.0476391 -101.10546875 39.9921875 C-89.56115621 32.18329673 -77.76611312 29.41477704 -64.14355469 28.19287109 C-41.0767494 26.11738406 -21.73755953 19.26936038 -4.3984375 3.54785156 C-2.99291626 2.29378735 -1.50090144 1.13818359 0 0 Z " fill="#aaa" transform="translate(317,83)"/>
<path d="M0 0 C0 36.63 0 73.26 0 111 C-15.84 111 -31.68 111 -48 111 C-48.0825 103.925625 -48.165 96.85125 -48.25 89.5625 C-48.28641602 87.36795166 -48.32283203 85.17340332 -48.36035156 82.91235352 C-48.50374066 68.16985988 -47.46631236 53.74655712 -40.1875 40.5625 C-39.84130615 39.90620605 -39.4951123 39.24991211 -39.13842773 38.57373047 C-32.71676681 26.64632094 -15.53804574 0 0 0 Z " fill="#aaa" transform="translate(72,377)"/>
<path d="M0 0 C21.1681024 10.5840512 36.10759463 27.57300112 44 50 C48.38333881 63.23180985 48.47853206 75.67077649 48.25 89.5 C48.1675 96.595 48.085 103.69 48 111 C32.16 111 16.32 111 0 111 C0 74.37 0 37.74 0 0 Z " fill="#aaa" transform="translate(440,377)"/>
<path d="M0 0 C10.56 0 21.12 0 32 0 C32.0825 4.5375 32.165 9.075 32.25 13.75 C32.28641602 15.17538086 32.32283203 16.60076172 32.36035156 18.06933594 C32.3703418 19.19629883 32.38033203 20.32326172 32.390625 21.484375 C32.41157227 22.63647461 32.43251953 23.78857422 32.45410156 24.97558594 C32 28 32 28 30.31933594 30.37402344 C27.49405637 32.35469312 25.92921886 32.51511792 22.5 32.53125 C21.448125 32.53640625 20.39625 32.5415625 19.3125 32.546875 C18.219375 32.53140625 17.12625 32.5159375 16 32.5 C14.906875 32.51546875 13.81375 32.5309375 12.6875 32.546875 C11.635625 32.54171875 10.58375 32.5365625 9.5 32.53125 C8.5409375 32.52673828 7.581875 32.52222656 6.59375 32.51757812 C3.1664637 31.83366934 2.01299908 30.84346355 0 28 C-0.45410156 24.97558594 -0.45410156 24.97558594 -0.390625 21.484375 C-0.38063477 20.35741211 -0.37064453 19.23044922 -0.36035156 18.06933594 C-0.32393555 16.64395508 -0.28751953 15.21857422 -0.25 13.75 C-0.1675 9.2125 -0.085 4.675 0 0 Z " fill="#aaa" transform="translate(280,184)"/>
<path d="M0 0 C10.56 0 21.12 0 32 0 C32.0825 4.5375 32.165 9.075 32.25 13.75 C32.28641602 15.17538086 32.32283203 16.60076172 32.36035156 18.06933594 C32.3703418 19.19629883 32.38033203 20.32326172 32.390625 21.484375 C32.41157227 22.63647461 32.43251953 23.78857422 32.45410156 24.97558594 C32 28 32 28 30.31933594 30.37402344 C27.49405637 32.35469312 25.92921886 32.51511792 22.5 32.53125 C21.448125 32.53640625 20.39625 32.5415625 19.3125 32.546875 C18.219375 32.53140625 17.12625 32.5159375 16 32.5 C14.906875 32.51546875 13.81375 32.5309375 12.6875 32.546875 C11.635625 32.54171875 10.58375 32.5365625 9.5 32.53125 C8.5409375 32.52673828 7.581875 32.52222656 6.59375 32.51757812 C3.1664637 31.83366934 2.01299908 30.84346355 0 28 C-0.45410156 24.97558594 -0.45410156 24.97558594 -0.390625 21.484375 C-0.38063477 20.35741211 -0.37064453 19.23044922 -0.36035156 18.06933594 C-0.32393555 16.64395508 -0.28751953 15.21857422 -0.25 13.75 C-0.1675 9.2125 -0.085 4.675 0 0 Z " fill="#aaa" transform="translate(200,184)"/>
<path d="M0 0 C4.8846525 2.26787438 7.73212562 5.1153475 10 10 C10.75381535 15.5997712 10.77303575 20.33499991 8.375 25.5 C3.80134327 30.3143755 0.6912538 32.25156236 -6 32.5 C-12.6912538 32.25156236 -15.80134327 30.3143755 -20.375 25.5 C-22.77303575 20.33499991 -22.75381535 15.5997712 -22 10 C-17.52212837 0.3553534 -9.85292056 -1.32635469 0 0 Z " fill="#aaa" transform="translate(262,416)"/>
<path d="M0 0 C0.05534912 0.69971924 0.11069824 1.39943848 0.16772461 2.12036133 C0.42366108 5.35112651 0.68057567 8.58181323 0.9375 11.8125 C1.02451172 12.91271484 1.11152344 14.01292969 1.20117188 15.14648438 C1.75516473 22.10217245 2.35126398 29.05249996 3 36 C-4.44337195 32.43712626 -14.47888923 26.30382525 -17.5 18.3125 C-18.36630581 13.90221588 -18.10673829 10.00364209 -16 6 C-11.39027913 -0.09002559 -7.2753655 -0.34935729 0 0 Z " fill="#aaa" transform="translate(153,184)"/>
<path d="M0 0 C9 0 9 0 11.375 1.2421875 C11.91125 1.78101563 12.4475 2.31984375 13 2.875 C13.556875 3.40867188 14.11375 3.94234375 14.6875 4.4921875 C17.16120152 7.33399937 17.21683596 9.56441715 17.3125 13.25 C17.34988281 14.18328125 17.38726562 15.1165625 17.42578125 16.078125 C16.41140122 23.0391916 11.14328981 26.87761722 5.875 30.875 C5.24207031 31.37257812 4.60914063 31.87015625 3.95703125 32.3828125 C-0.72345038 36 -0.72345038 36 -3 36 C-2.01 24.12 -1.02 12.24 0 0 Z " fill="#aaa" transform="translate(359,184)"/>
</svg>
