<?xml version="1.0" encoding="UTF-8"?>
<svg version="1.1" xmlns="http://www.w3.org/2000/svg" width="512" height="512">
<path d="M0 0 C57.42 0 114.84 0 174 0 C174.33 21.12 174.66 42.24 175 64 C177.86223672 74.28512219 177.86223672 74.28512219 182 78 C182 78.66 182 79.32 182 80 C184.77211724 81.39860214 187.55559954 82.76161874 190.375 84.0625 C191.46941406 84.57490234 191.46941406 84.57490234 192.5859375 85.09765625 C197.30630688 86.86206616 202.09641248 87.13020362 207.09716797 87.20532227 C208.86832474 87.2352401 208.86832474 87.2352401 210.67526245 87.26576233 C211.93484772 87.28247482 213.19443298 87.29918732 214.4921875 87.31640625 C216.44380295 87.3475779 216.44380295 87.3475779 218.43484497 87.37937927 C221.87722719 87.43431116 225.3196663 87.48384652 228.762146 87.53222656 C232.28158573 87.58265387 235.80094386 87.6382286 239.3203125 87.69335938 C246.21347079 87.80058708 253.10670296 87.90210912 260 88 C260.11446582 130.12458455 260.20255927 172.24915115 260.25532665 214.37386044 C260.26158012 219.34803612 260.26805173 224.3222115 260.2746582 229.29638672 C260.27596976 230.28664772 260.27728131 231.27690872 260.2786326 232.29717763 C260.30038405 248.32745523 260.33980415 264.35764311 260.38576398 280.3878675 C260.43253585 296.83863071 260.46029695 313.28934696 260.47044247 329.74017394 C260.47730011 339.88973377 260.49895253 350.03903995 260.53958233 360.1885217 C260.5660297 367.15016156 260.57399647 374.11167046 260.56750689 381.07335691 C260.56430709 385.08884807 260.56918212 389.10389625 260.59602737 393.11930847 C260.62045411 396.79994072 260.62152752 400.47983437 260.60449447 404.16050144 C260.60139911 406.11361705 260.62287983 408.06672465 260.64540654 410.01971281 C260.57195482 418.69940565 259.04828226 425.63943559 253.01016122 432.14333379 C245.19538327 439.58089954 238.11855771 440.44251417 227.68449402 440.39440918 C226.44416879 440.40050028 225.20384355 440.40659139 223.92593271 440.41286707 C220.49481304 440.42661166 217.0641732 440.42695573 213.63306224 440.4214921 C209.92809107 440.41881769 206.2231807 440.43336145 202.51823425 440.44558716 C195.26402691 440.46662647 188.00989952 440.47118286 180.75566527 440.46939927 C174.85773846 440.46809082 168.95983656 440.47190005 163.06191444 440.47932434 C161.3619648 440.48142358 159.66201516 440.48352118 157.96206552 440.48561716 C156.69282407 440.48718245 156.69282407 440.48718245 155.39794139 440.48877937 C139.39974163 440.5076759 123.40158774 440.50663342 107.40338144 440.49981004 C92.7767607 440.49423577 78.15031517 440.51505606 63.52373537 440.54817051 C48.49654548 440.58192721 33.46943948 440.59707332 18.44221097 440.59245348 C10.00904396 440.59021069 1.57603886 440.59542393 -6.85709572 440.62034607 C-14.03720896 440.64138488 -21.21707151 440.64492579 -28.39719514 440.62604648 C-32.05830728 440.61690414 -35.71895234 440.61569867 -39.38002777 440.63640213 C-43.35475707 440.65863005 -47.32879221 440.64185664 -51.30354309 440.62145996 C-52.45248812 440.63397781 -53.60143315 440.64649566 -54.78519469 440.65939283 C-63.12578185 440.56776021 -69.90922369 438.78999679 -76.14767009 433.01024008 C-82.62553504 426.18706065 -84.45488299 419.82208702 -84.36076355 410.65431213 C-84.36332682 409.73361543 -84.3658901 408.81291873 -84.36853105 407.86432213 C-84.37345832 404.79030865 -84.35699328 401.71679023 -84.34057617 398.64282227 C-84.33972967 396.43492138 -84.34020549 394.22701965 -84.34190369 392.01911926 C-84.34276417 386.0320473 -84.32512963 380.04515578 -84.30418181 374.05812573 C-84.28542396 367.79876448 -84.28366527 361.53939906 -84.28010559 355.28001404 C-84.27184168 344.77624604 -84.25310494 334.27253381 -84.22631836 323.76879883 C-84.19876235 312.95207041 -84.17753633 302.13535997 -84.16479492 291.31860352 C-84.16361267 290.3177316 -84.16361267 290.3177316 -84.16240653 289.29664005 C-84.15849129 285.94910264 -84.15470019 282.6015651 -84.15097082 279.25402749 C-84.11961587 251.50263895 -84.0668502 223.75132413 -84 196 C-76.31680298 196.95889282 -76.31680298 196.95889282 -73.46557617 197.32885742 C-43.51689037 201.1418545 -15.56814883 194.91427519 9 177 C12.49524816 174.15040185 15.7646429 171.13886399 19 168 C19.67289062 167.40058594 20.34578125 166.80117187 21.0390625 166.18359375 C37.88758123 150.64402368 48.65892713 125.36256579 50.22290039 102.78173828 C51.33451821 69.85576241 43.37246745 42.54191884 21 18 C20.41734375 17.33484375 19.8346875 16.6696875 19.234375 15.984375 C14.94258524 11.34577395 9.80117445 7.85894792 4.62182617 4.28637695 C3.0665331 3.21186819 1.53119612 2.1085775 0 1 C0 0.67 0 0.34 0 0 Z M78.5625 101.1875 C76.52800832 104.84958502 76.09042916 107.95834177 77 112 C80.06159767 116.86253747 82.5123294 118.62579032 88 120 C91.12967669 120.27826349 94.24202289 120.28365187 97.38256836 120.2746582 C98.77153069 120.2823246 98.77153069 120.2823246 100.18855286 120.29014587 C103.23904953 120.30400703 106.2893194 120.30308778 109.33984375 120.30078125 C111.4668435 120.30466992 113.59384248 120.30900494 115.72084045 120.31376648 C120.17516601 120.32122109 124.62941229 120.32094276 129.08374023 120.31567383 C134.78442507 120.30987849 140.48478508 120.32681562 146.18541622 120.3500185 C150.57696929 120.36476817 154.96844433 120.36562588 159.36001778 120.36250877 C161.46150926 120.3630213 163.56300518 120.36824623 165.66447258 120.37832069 C168.60587404 120.39069229 171.54664532 120.38388902 174.48803711 120.37231445 C175.35111481 120.37995819 176.2141925 120.38760193 177.10342407 120.39547729 C183.59225763 120.3391967 188.4592208 119.28018646 193.4375 114.8125 C195.47199168 111.15041498 195.90957084 108.04165823 195 104 C191.93840233 99.13746253 189.4876706 97.37420968 184 96 C180.87032331 95.72173651 177.75797711 95.71634813 174.61743164 95.7253418 C173.69145676 95.72023087 172.76548187 95.71511993 171.81144714 95.70985413 C168.76095047 95.69599297 165.7106806 95.69691222 162.66015625 95.69921875 C160.5331565 95.69533008 158.40615752 95.69099506 156.27915955 95.68623352 C151.82483399 95.67877891 147.37058771 95.67905724 142.91625977 95.68432617 C137.21557493 95.69012151 131.51521492 95.67318438 125.81458378 95.6499815 C121.42303071 95.63523183 117.03155567 95.63437412 112.63998222 95.63749123 C110.53849074 95.6369787 108.43699482 95.63175377 106.33552742 95.62167931 C103.39412596 95.60930771 100.45335468 95.61611098 97.51196289 95.62768555 C96.21734634 95.61621994 96.21734634 95.61621994 94.89657593 95.60452271 C88.40774237 95.6608033 83.5407792 96.71981354 78.5625 101.1875 Z M62.5625 157.1875 C60.52800832 160.84958502 60.09042916 163.95834177 61 168 C64.06301696 172.86479164 66.49733769 174.65819221 72 176 C75.61821929 176.28612603 79.22322457 176.28351617 82.85131836 176.2746582 C83.93335037 176.27976913 85.01538239 176.28488007 86.13020325 176.29014587 C89.70013998 176.30402413 93.26988328 176.30308647 96.83984375 176.30078125 C99.32556734 176.30466897 101.81129026 176.3090038 104.29701233 176.31376648 C109.50458938 176.32122477 114.71209863 176.32094007 119.91967773 176.31567383 C126.58890003 176.30896901 133.25780165 176.32681516 139.92699337 176.3500185 C145.05971394 176.36475837 150.19236768 176.36562721 155.32510567 176.36250877 C157.78385531 176.36302179 160.24260872 176.36825592 162.70133781 176.37832069 C166.14083724 176.39067309 169.57979617 176.38390018 173.01928711 176.37231445 C174.53832138 176.38378006 174.53832138 176.38378006 176.08804321 176.39547729 C183.01716808 176.34395483 188.10536386 175.59775038 193.4375 170.8125 C195.47199168 167.15041498 195.90957084 164.04165823 195 160 C191.93698304 155.13520836 189.50266231 153.34180779 184 152 C180.38178071 151.71387397 176.77677543 151.71648383 173.14868164 151.7253418 C172.06664963 151.72023087 170.98461761 151.71511993 169.86979675 151.70985413 C166.29986002 151.69597587 162.73011672 151.69691353 159.16015625 151.69921875 C156.67443266 151.69533103 154.18870974 151.6909962 151.70298767 151.68623352 C146.49541062 151.67877523 141.28790137 151.67905993 136.08032227 151.68432617 C129.41109997 151.69103099 122.74219835 151.67318484 116.07300663 151.6499815 C110.94028606 151.63524163 105.80763232 151.63437279 100.67489433 151.63749123 C98.21614469 151.63697821 95.75739128 151.63174408 93.29866219 151.62167931 C89.85916276 151.60932691 86.42020383 151.61609982 82.98071289 151.62768555 C81.46167862 151.61621994 81.46167862 151.61621994 79.91195679 151.60452271 C72.98283192 151.65604517 67.89463614 152.40224962 62.5625 157.1875 Z M14.5625 213.1875 C12.52800832 216.84958502 12.09042916 219.95834177 13 224 C16.06263665 228.86418762 18.53596008 230.56370236 24 232 C27.26627741 232.29992971 27.26627741 232.29992971 30.74864197 232.26069641 C31.72897592 232.26643473 31.72897592 232.26643473 32.72911459 232.27228898 C34.90534916 232.28255606 37.08131678 232.27863896 39.25756836 232.2746582 C40.82343285 232.27900815 42.38929521 232.28419225 43.95515442 232.29014587 C48.1989595 232.30351622 52.44267542 232.30411677 56.68649745 232.30158257 C60.23270938 232.3005116 63.77890337 232.30539943 67.32511145 232.310188 C75.69258475 232.32127624 84.06001315 232.32172433 92.42749023 232.31567383 C101.05261711 232.30963283 109.6775809 232.32194979 118.30267996 232.3432439 C125.71517377 232.3608697 133.12761572 232.36685974 140.54012972 232.36360615 C144.96410945 232.36179483 149.38797281 232.36441452 153.81193352 232.37832069 C157.97263347 232.39091049 162.13307944 232.38894412 166.29377556 232.37590981 C167.81793301 232.37354703 169.3421084 232.37626799 170.86624527 232.38453293 C172.95258089 232.39502798 175.03806857 232.38687884 177.12437439 232.3742218 C178.29002395 232.37438954 179.4556735 232.37455729 180.65664577 232.37473011 C185.70531656 231.80886457 189.60181901 230.25477781 193.4375 226.8125 C195.47199168 223.15041498 195.90957084 220.04165823 195 216 C191.93736335 211.13581238 189.46403992 209.43629764 184 208 C180.73372259 207.70007029 180.73372259 207.70007029 177.25135803 207.73930359 C176.27102408 207.73356527 176.27102408 207.73356527 175.27088541 207.72771102 C173.09465084 207.71744394 170.91868322 207.72136104 168.74243164 207.7253418 C167.17656715 207.72099185 165.61070479 207.71580775 164.04484558 207.70985413 C159.8010405 207.69648378 155.55732458 207.69588323 151.31350255 207.69841743 C147.76729062 207.6994884 144.22109663 207.69460057 140.67488855 207.689812 C132.30741525 207.67872376 123.93998685 207.67827567 115.57250977 207.68432617 C106.94738289 207.69036717 98.3224191 207.67805021 89.69732004 207.6567561 C82.28482623 207.6391303 74.87238428 207.63314026 67.45987028 207.63639385 C63.03589055 207.63820517 58.61202719 207.63558548 54.18806648 207.62167931 C50.02736653 207.60908951 45.86692056 207.61105588 41.70622444 207.62409019 C40.18206699 207.62645297 38.6578916 207.62373201 37.13375473 207.61546707 C35.04741911 207.60497202 32.96193143 207.61312116 30.87562561 207.6257782 C29.12715127 207.62552659 29.12715127 207.62552659 27.34335423 207.62526989 C22.29468344 208.19113543 18.39818099 209.74522219 14.5625 213.1875 Z M-17.4375 269.1875 C-19.47199168 272.84958502 -19.90957084 275.95834177 -19 280 C-15.9386168 284.86219685 -13.47452577 286.59387642 -8 288 C-5.30928795 288.18419989 -2.72461851 288.27471279 -0.03651428 288.26069641 C0.74771536 288.26452196 1.531945 288.26834751 2.33993918 288.27228898 C4.95838446 288.28257834 7.5766088 288.2786346 10.19506836 288.2746582 C12.07619936 288.27900691 13.9573286 288.28419059 15.8384552 288.29014587 C20.94173292 288.30352955 26.04493656 288.30411527 31.14822841 288.30158257 C35.41021367 288.30051251 39.67218396 288.30539711 43.93416601 288.310188 C53.98924382 288.32128084 64.04428427 288.32172173 74.09936523 288.31567383 C84.46949177 288.30963233 94.83948269 288.32195007 105.20958608 288.3432439 C114.1167579 288.36086066 123.02388656 288.36686116 131.93107516 288.36360615 C137.24930895 288.36179339 142.56744598 288.3644289 147.88566399 288.37832069 C152.88682401 288.3908957 157.88777259 288.38895796 162.88892937 288.37590981 C164.72269767 288.37354383 166.55648083 288.37627946 168.39023209 288.38453293 C170.89690988 288.3950003 173.40287813 288.38690007 175.90953064 288.3742218 C176.6321101 288.38159609 177.35468957 288.38897037 178.09916538 288.39656812 C184.21324253 288.33168126 188.83847488 286.93983023 193.4375 282.8125 C195.47199168 279.15041498 195.90957084 276.04165823 195 272 C191.9386168 267.13780315 189.47452577 265.40612358 184 264 C181.30928795 263.81580011 178.72461851 263.72528721 176.03651428 263.73930359 C175.25228464 263.73547804 174.468055 263.73165249 173.66006082 263.72771102 C171.04161554 263.71742166 168.4233912 263.7213654 165.80493164 263.7253418 C163.92380064 263.72099309 162.0426714 263.71580941 160.1615448 263.70985413 C155.05826708 263.69647045 149.95506344 263.69588473 144.85177159 263.69841743 C140.58978633 263.69948749 136.32781604 263.69460289 132.06583399 263.689812 C122.01075618 263.67871916 111.95571573 263.67827827 101.90063477 263.68432617 C91.53050823 263.69036767 81.16051731 263.67804993 70.79041392 263.6567561 C61.8832421 263.63913934 52.97611344 263.63313884 44.06892484 263.63639385 C38.75069105 263.63820661 33.43255402 263.6355711 28.11433601 263.62167931 C23.11317599 263.6091043 18.11222741 263.61104204 13.11107063 263.62409019 C11.27730233 263.62645617 9.44351917 263.62372054 7.60976791 263.61546707 C5.10309012 263.6049997 2.59712187 263.61309993 0.09046936 263.6257782 C-0.99339984 263.61471677 -0.99339984 263.61471677 -2.09916538 263.60343188 C-8.21324253 263.66831874 -12.83847488 265.06016977 -17.4375 269.1875 Z M38.45532227 343.9050293 C37.83069092 344.78199463 37.20605957 345.65895996 36.5625 346.5625 C35.91015381 347.46202393 35.25780762 348.36154785 34.58569336 349.28833008 C33.29908682 351.0626007 32.01647477 352.83977622 30.73828125 354.62011719 C29.28714333 356.60687174 27.80129827 358.53683841 26.25 360.4453125 C22.49250059 365.15560641 19.79541508 368.76821664 20.3984375 374.98828125 C21.47505791 378.58866769 23.25255291 380.44423526 26 383 C29.70602135 384.23534045 32.09753614 384.45528745 36 384 C42.01558574 380.140945 45.65437671 374.58687238 49.62426758 368.76318359 C52.81430043 364.09284979 52.81430043 364.09284979 55 363 C55.23203125 363.78246094 55.4640625 364.56492187 55.703125 365.37109375 C57.39616331 370.10854131 59.53238543 374.55137037 61.75 379.0625 C62.16765625 379.94744141 62.5853125 380.83238281 63.015625 381.74414062 C65.66215997 387.12193195 68.01496219 390.61535001 73 394 C78.4057049 395.80190163 82.50062284 395.60991613 87.6875 393.5 C94.27063113 389.25132566 97.44910207 380.41895188 100.8125 373.625 C101.21919922 372.81933594 101.62589844 372.01367188 102.04492188 371.18359375 C102.42841797 370.41402344 102.81191406 369.64445312 103.20703125 368.8515625 C103.5522583 368.15885254 103.89748535 367.46614258 104.25317383 366.75244141 C105.13068229 365.01084175 105.13068229 365.01084175 105 363 C109.53494936 367.32013597 112.965345 372.03003379 116.5234375 377.16015625 C120.36083159 381.56044884 124.01724418 383.73367092 129.73135376 384.50120544 C131.08197855 384.52163063 132.43304592 384.52071668 133.78369141 384.50170898 C134.52770706 384.50711197 135.27172272 384.51251495 136.0382843 384.51808167 C138.47645911 384.53050168 140.91343763 384.51412734 143.3515625 384.49609375 C145.05593935 384.49624886 146.76031655 384.49773988 148.46469116 384.50050354 C152.02707618 384.5018844 155.58905704 384.4893797 159.15136719 384.46655273 C163.71224055 384.4381256 168.2724451 384.44092125 172.8333683 384.45364285 C176.34902642 384.46060349 179.86453047 384.45280709 183.38016891 384.44038582 C185.06184676 384.4358781 186.74354118 384.43552857 188.42522049 384.43945122 C190.77552372 384.44236839 193.12491041 384.42583489 195.47509766 384.40405273 C196.51164742 384.41080521 196.51164742 384.41080521 197.56913757 384.41769409 C202.85595752 384.33646513 205.93313494 382.85305143 209.8125 379.375 C211.67877314 375.64245373 211.65639368 372.08422735 211 368 C208.63960064 363.89115667 206.44675275 362.3986471 202 361 C198.80288578 360.80130974 198.80288578 360.80130974 195.32055664 360.98266602 C193.97121355 361.0250873 192.62185237 361.06693589 191.2724762 361.10829163 C190.5624048 361.13330309 189.85233341 361.15831455 189.12074471 361.18408394 C185.32028881 361.30412284 181.51869506 361.34513577 177.71679688 361.39648438 C172.89528432 361.46207279 168.07951911 361.55126002 163.26147461 361.75073242 C137.22706521 362.78795532 137.22706521 362.78795532 130.17889404 358.13934326 C125.70097881 353.75906967 122.73971452 348.78790325 120.06710815 343.16159058 C117.49366249 337.94868327 114.45975363 334.95727017 109 333 C104.27313305 332.30412372 100.9808082 332.50034299 96.6875 334.6875 C91.25126658 339.36518922 88.35614155 344.84874534 85.25 351.1875 C84.63318359 352.41629883 84.63318359 352.41629883 84.00390625 353.66992188 C81.81189622 357.65411518 81.81189622 357.65411518 81 362 C80.34 362 79.68 362 79 362 C78.75765625 361.18660156 78.5153125 360.37320312 78.265625 359.53515625 C76.74951988 355.30035647 74.82936562 351.41889404 72.75 347.4375 C72.38003906 346.69564453 72.01007813 345.95378906 71.62890625 345.18945312 C68.76337218 339.69799449 65.67083744 335.83541872 60 333 C58.02840797 332.72558771 58.02840797 332.72558771 55.8125 332.6875 C54.70841797 332.63142578 54.70841797 332.63142578 53.58203125 332.57421875 C46.29115281 333.77649674 42.62868921 338.24035295 38.45532227 343.9050293 Z " fill="#aaa" transform="translate(200,36)"/>
<path d="M0 0 C1.05703125 0.37382813 2.1140625 0.74765625 3.203125 1.1328125 C16.19715665 6.16383501 26.14855729 13.39268926 36 23 C36.65742188 23.58394531 37.31484375 24.16789062 37.9921875 24.76953125 C51.61327204 37.16660128 60.96035666 58.71066283 62.19287109 76.83642578 C62.96425457 106.60247768 57.33090632 130.73636621 36.51586914 152.93286133 C20.03072224 169.93309242 -2.15106823 179.89263777 -25.90869141 180.29272461 C-50.0947438 180.43324033 -69.6836752 174.78095009 -89 160 C-89.67417969 159.49855469 -90.34835938 158.99710938 -91.04296875 158.48046875 C-108.02871514 144.992931 -118.3666141 123.00170451 -122 102 C-122.40791722 97.38574612 -122.47758286 92.8178722 -122.4375 88.1875 C-122.43065186 86.96353516 -122.42380371 85.73957031 -122.41674805 84.47851562 C-122.25030901 75.06816461 -121.18584539 66.87039304 -118 58 C-117.62617187 56.94296875 -117.25234375 55.8859375 -116.8671875 54.796875 C-111.02142531 39.69854881 -101.84674869 25.98112232 -89 16 C-88.28714844 15.43925781 -87.57429688 14.87851562 -86.83984375 14.30078125 C-62.2301246 -3.98189825 -29.26313148 -10.50999793 0 0 Z M-14.4375 67.2421875 C-15.58581299 68.39474533 -15.58581299 68.39474533 -16.75732422 69.57058716 C-19.17632956 72.00069424 -21.58824682 74.43769756 -24 76.875 C-25.64927417 78.53431689 -27.29900938 80.19317568 -28.94921875 81.8515625 C-32.97149029 85.89576151 -36.98798213 89.94563006 -41 94 C-45.79063198 91.81742273 -48.91759747 88.18403284 -52.49023438 84.43164062 C-56.6151083 80.18097639 -59.8558776 77.27226951 -65.9375 76.5 C-70.66447863 76.661147 -72.76610106 78.68722547 -76 82 C-77.64107339 85.28214677 -77.63991826 88.46466858 -77 92 C-73.11214554 99.0449591 -66.58843977 104.71116614 -60.9375 110.3125 C-60.05255859 111.20517578 -59.16761719 112.09785156 -58.25585938 113.01757812 C-57.39669922 113.87416016 -56.53753906 114.73074219 -55.65234375 115.61328125 C-54.87882568 116.38454346 -54.10530762 117.15580566 -53.30834961 117.95043945 C-49.18060569 121.61542202 -45.77754803 123.72546763 -40.08158875 123.46690369 C-32.09443573 121.67537248 -25.20418364 112.49425258 -19.69921875 106.96484375 C-18.73163949 105.99861515 -17.76376379 105.03268331 -16.79560852 104.06703186 C-14.78129512 102.05564664 -12.7705918 100.04074085 -10.76245117 98.02319336 C-8.19602868 95.44533141 -5.62066662 92.87661674 -3.04255962 90.31044674 C-1.0477456 88.32287457 0.94226248 86.33054541 2.93086815 84.33676338 C4.33682266 82.9288394 5.74678224 81.52491853 7.15681458 80.12107849 C8.01167953 79.25990921 8.86654449 78.39873993 9.74731445 77.51147461 C10.49817825 76.75901962 11.24904205 76.00656464 12.0226593 75.23130798 C15.72776809 71.05031943 17.62541351 67.74129641 17.4296875 62 C16.65395507 58.38931815 14.60947818 56.54734775 12 54 C1.12968754 48.56484377 -7.62617397 60.33378681 -14.4375 67.2421875 Z " fill="#aaa" transform="translate(174,40)"/>
<path d="M0 0 C6.51889877 5.3689415 12.44357589 11.29769154 18.40234375 17.26953125 C19.49078536 18.35729825 20.57937529 19.44491685 21.66810608 20.53239441 C23.93474235 22.79756485 26.19958084 25.06451321 28.46313477 27.33276367 C31.37072187 30.24608849 34.28283087 33.15484571 37.19626522 36.06232166 C39.43788416 38.30033962 41.67713156 40.54071812 43.91565132 42.78183556 C44.9894723 43.85632498 46.06404036 44.9300683 47.13935661 46.00306129 C48.63300887 47.49419025 50.12344596 48.98845823 51.61303711 50.48364258 C52.46240341 51.33380447 53.31176971 52.18396637 54.18687439 53.05989075 C56 55 56 55 56 56 C48.34622001 56.05057791 40.69248287 56.08568184 33.03857422 56.10986328 C30.43308909 56.11994064 27.82761531 56.1336027 25.22216797 56.15087891 C21.48402101 56.17505102 17.74602315 56.1864656 14.0078125 56.1953125 C12.25152023 56.21079636 12.25152023 56.21079636 10.45974731 56.22659302 C8.838293 56.22681961 8.838293 56.22681961 7.18408203 56.22705078 C6.22921906 56.231492 5.27435608 56.23593323 4.29055786 56.24050903 C2 56 2 56 0 54 C-0.24050903 51.70944214 -0.24050903 51.70944214 -0.22705078 48.81591797 C-0.22689972 47.73494843 -0.22674866 46.65397888 -0.22659302 45.54025269 C-0.21627045 44.36939117 -0.20594788 43.19852966 -0.1953125 41.9921875 C-0.1924826 40.79643097 -0.18965271 39.60067444 -0.18673706 38.36868286 C-0.17551305 34.53735481 -0.15040431 30.70625778 -0.125 26.875 C-0.11497308 24.28255545 -0.10584673 21.69010725 -0.09765625 19.09765625 C-0.07556646 12.73169158 -0.04206706 6.36586229 0 0 Z " fill="#aaa" transform="translate(397,44)"/>
</svg>
