<?xml version="1.0" encoding="UTF-8"?>
<svg version="1.1" xmlns="http://www.w3.org/2000/svg" width="512" height="512">
<path d="M0 0 C1.68188072 -0.00543276 3.36375667 -0.01256184 5.04562378 -0.02124023 C9.57436025 -0.0393339 14.10272853 -0.03246587 18.63147068 -0.01972389 C23.38914984 -0.00952998 28.14679946 -0.01900657 32.90447998 -0.02526855 C40.88657236 -0.03252363 48.86851616 -0.02301069 56.85058594 -0.00390625 C66.06265867 0.01788825 75.27437758 0.01078382 84.48644185 -0.01121187 C92.41971836 -0.02939139 100.35288869 -0.03191263 108.2861793 -0.0214572 C113.01418148 -0.01524012 117.74201753 -0.01433789 122.47000885 -0.02760315 C126.91241582 -0.03919937 131.35436812 -0.03106748 135.79672623 -0.00802612 C137.4216321 -0.00276039 139.04657658 -0.00421603 140.67146683 -0.01307678 C151.00520779 -0.06421276 160.02104139 0.32586042 167.95581055 7.79125977 C168.60814667 8.39737091 169.26048279 9.00348206 169.93258667 9.62796021 C170.57454987 10.25153412 171.21651306 10.87510803 171.87792969 11.51757812 C172.50917755 12.123508 173.14042542 12.72943787 173.790802 13.35372925 C175.75585526 15.26469128 177.69662464 17.1975125 179.63183594 19.13867188 C180.33638412 19.84226334 181.04093231 20.5458548 181.76683044 21.27076721 C183.24446335 22.7477246 184.72085425 24.22592555 186.19604492 25.70532227 C188.4345945 27.94922897 190.67843442 30.18774517 192.92285156 32.42578125 C194.36783372 33.87142431 195.81250561 35.31737758 197.25683594 36.76367188 C197.91744522 37.42225693 198.5780545 38.08084198 199.25868225 38.75938416 C203.061024 42.58062065 206.65662824 46.5194181 210.18052673 50.59779358 C212.81053958 53.57237189 215.61278292 56.35725771 218.44042969 59.14257812 C219.33290405 60.02937256 219.33290405 60.02937256 220.2434082 60.93408203 C222.11912626 62.79774313 223.99807871 64.65808655 225.87792969 66.51757812 C239.7252744 80.21495159 239.7252744 80.21495159 244.93652344 86.35351562 C249.98678585 91.98298319 255.50294528 97.20080654 260.87792969 102.51757812 C275.22799908 116.7122316 275.22799908 116.7122316 280.47705078 122.8984375 C283.34737775 126.21597121 286.5821841 129.18261912 289.74121094 132.22070312 C292.81897943 135.52916359 294.13029098 138.11556355 294.11843872 142.64312744 C294.12256271 143.86301361 294.12256271 143.86301361 294.12677002 145.10754395 C294.11957947 145.99083374 294.11238892 146.87412354 294.10498047 147.78417969 C294.10527252 148.72110657 294.10556458 149.65803345 294.10586548 150.62335205 C294.1044728 153.71839681 294.08891435 156.81320045 294.07324219 159.90820312 C294.06951184 162.05482858 294.06666497 164.20145573 294.06466675 166.3480835 C294.057032 171.99683334 294.03738479 177.64548026 294.01525879 183.29418945 C293.994797 189.05874235 293.98566431 194.82331188 293.97558594 200.58789062 C293.95413882 211.89783166 293.92000471 223.20769634 293.87792969 234.51757812 C292.96886871 234.25525139 292.96886871 234.25525139 292.04144287 233.98762512 C289.27386443 233.18998697 286.5055936 232.39477808 283.73730469 231.59960938 C282.78388184 231.32443481 281.83045898 231.04926025 280.84814453 230.76574707 C248.26667432 221.41941466 213.69606759 225.39897773 183.87011719 241.65039062 C175.88961464 246.18846028 168.81902318 251.49881052 161.87792969 257.51757812 C160.79623541 258.3738195 159.71320446 259.22837955 158.62792969 260.08007812 C136.24288988 279.9213634 121.55649898 311.29590164 119.65478516 341.00341797 C118.17913791 376.47908796 126.72322067 408.16382861 149.87792969 435.51757812 C150.63460937 436.25492187 151.39128906 436.99226563 152.17089844 437.75195312 C153.87792969 439.51757812 153.87792969 439.51757812 153.87792969 441.51757812 C154.78285156 441.92169922 154.78285156 441.92169922 155.70605469 442.33398438 C157.90216159 443.53078364 159.00255089 444.58771878 160.62792969 446.45507812 C180.6237371 466.91987036 211.928579 477.61044596 239.87792969 479.51757812 C239.87792969 479.84757812 239.87792969 480.17757813 239.87792969 480.51757812 C207.46932467 480.60891547 175.06075688 480.67966163 142.65205245 480.72183944 C138.82207121 480.726842 134.99209023 480.73201932 131.16210938 480.73730469 C130.01843489 480.73887855 130.01843489 480.73887855 128.85165587 480.74048421 C116.5215904 480.75786848 104.19159987 480.78939521 91.86157879 480.82618931 C79.20086659 480.86365388 66.54019351 480.88582561 53.87942815 480.8939321 C46.07302455 480.89940847 38.26683279 480.91667722 30.46049443 480.94924399 C24.46495068 480.97297559 18.46958746 480.9753841 12.47399139 480.97000885 C10.02148132 480.97110634 7.56896297 480.97902341 5.11650085 480.99440002 C-18.57135883 481.13559408 -18.57135883 481.13559408 -28.12207031 476.51757812 C-29.08292164 476.0831049 -30.04377296 475.64863167 -31.033741 475.20099258 C-44.17273925 469.02554107 -51.82848557 458.58507506 -57.12207031 445.51757812 C-58.27746832 441.92433609 -58.25187545 438.52821381 -58.2590847 434.76789951 C-58.26173653 434.0867643 -58.26438836 433.40562908 -58.26712054 432.7038534 C-58.27480857 430.41075515 -58.27537252 428.1177105 -58.27597046 425.82460022 C-58.27998542 424.16811741 -58.2844237 422.51163558 -58.28925002 420.85515493 C-58.30121783 416.29445677 -58.30686447 411.73376918 -58.31143117 407.17305839 C-58.31738656 402.25735332 -58.32899666 397.3416609 -58.33972168 392.42596436 C-58.3642485 380.54908568 -58.37887395 368.67220281 -58.39178175 356.79530659 C-58.3954937 353.44048776 -58.39946694 350.08566935 -58.40353441 346.73085093 C-58.42877272 325.89676656 -58.45082533 305.06268153 -58.46326256 284.22858524 C-58.46619225 279.40230876 -58.46915391 274.57603229 -58.47216797 269.74975586 C-58.47328704 267.95043729 -58.47328704 267.95043729 -58.47442873 266.11476886 C-58.48707873 246.68861544 -58.52029674 227.26255362 -58.5619698 207.83644301 C-58.60440726 187.89040411 -58.62795976 167.94441208 -58.63318312 147.99832815 C-58.63659535 136.80007782 -58.64832829 125.6019706 -58.68128586 114.40376472 C-58.70931246 104.86533745 -58.72027423 95.32708263 -58.7090904 85.78861738 C-58.70391033 80.92417616 -58.70674821 76.0600959 -58.73155594 71.19570732 C-58.75410894 66.73608166 -58.75326182 62.27707501 -58.73435207 57.81743806 C-58.7315605 56.21032977 -58.73710338 54.60317895 -58.752165 52.99613882 C-58.87047852 39.54182544 -56.36049325 27.80271893 -47.12207031 17.51757812 C-46.59871094 16.91429688 -46.07535156 16.31101562 -45.53613281 15.68945312 C-33.25123457 2.42407005 -17.23092249 -0.09447778 0 0 Z M165.87792969 53.51757812 C165.80811158 61.05471411 165.75495807 68.59181613 165.72249317 76.12920284 C165.70690369 79.62995343 165.68579028 83.13048115 165.65161133 86.63110352 C165.61247763 90.66489683 165.59816506 94.69845969 165.58496094 98.73242188 C165.56947708 99.97652328 165.55399323 101.22062469 165.53804016 102.50242615 C165.50003366 113.44879678 165.50003366 113.44879678 170.15315247 123.09629822 C177.2121704 129.60009526 186.0745781 128.78924943 195.03027344 128.71289062 C196.28554337 128.71006073 197.54081329 128.70723083 198.8341217 128.70431519 C202.15007315 128.6950494 205.4657427 128.67712112 208.78161621 128.65490723 C212.17372214 128.63434407 215.56585734 128.62529122 218.95800781 128.61523438 C225.59805886 128.59322936 232.23797802 128.55979307 238.87792969 128.51757812 C235.37939053 124.35390926 231.82114469 120.34233839 227.94433594 116.52148438 C227.04779297 115.63267578 226.15125 114.74386719 225.22753906 113.828125 C223.37339977 111.99997224 221.51923322 110.17184712 219.66503906 108.34375 C211.99252217 100.73732801 211.99252217 100.73732801 208.59277344 96.73242188 C203.08304898 90.29803395 196.89588133 84.4703534 190.87792969 78.51757812 C188.39573963 76.06227099 185.91586891 73.60469241 183.44042969 71.14257812 C182.85269775 70.55806885 182.26496582 69.97355957 181.65942383 69.37133789 C178.03443981 65.74220689 174.5636026 62.03714159 171.30761719 58.06835938 C169.65999283 56.28118214 167.83366192 54.95376432 165.87792969 53.51757812 Z M7.87792969 72.51757812 C6.02186011 78.08578685 5.96640053 83.54867515 8.44042969 88.89257812 C12.24504848 92.9898599 15.92814764 95.24111555 21.41273499 96.01878357 C22.65816574 96.01894974 23.9035965 96.01911591 25.18676758 96.01928711 C26.22722984 96.02739159 26.22722984 96.02739159 27.28871155 96.03565979 C29.55978325 96.04807019 31.82956802 96.03171109 34.10058594 96.01367188 C35.69046596 96.01382703 37.28034637 96.01531868 38.870224 96.01808167 C42.19303219 96.01946214 45.5154069 96.00696568 48.83813477 95.98413086 C53.08728608 95.95572377 57.33571907 95.9584944 61.58492374 95.97122097 C64.86472155 95.97819041 68.14435463 95.97037488 71.42413139 95.95796394 C72.99054774 95.95346335 74.55698185 95.95310043 76.12339973 95.95702934 C78.31546147 95.95995471 80.50654816 95.94337397 82.69848633 95.92163086 C83.94312149 95.91622787 85.18775665 95.91082489 86.47010803 95.90525818 C91.53853109 95.32866506 94.78147015 93.73257383 98.19042969 89.95507812 C101.45727253 85.23630513 101.50320921 81.16246275 100.87792969 75.51757812 C98.6655053 71.09272934 95.92993353 68.32281155 91.87792969 65.51757812 C88.45978556 64.37819675 85.81219561 64.37664393 82.20678711 64.35644531 C81.19646172 64.34899796 81.19646172 64.34899796 80.16572571 64.34140015 C77.93827286 64.32680023 75.71089126 64.31997978 73.48339844 64.31445312 C71.9326426 64.30869939 70.38188679 64.30294168 68.83113098 64.29718018 C65.57874216 64.28667602 62.32637801 64.28082969 59.07397461 64.27734375 C54.9144666 64.27186364 50.75528669 64.24784371 46.59588146 64.2193718 C43.39161743 64.20071023 40.18743183 64.19553793 36.98311806 64.19400787 C35.45017009 64.19098818 33.91722329 64.18298275 32.38432884 64.16982269 C30.23505373 64.15268975 28.08657231 64.15465969 25.93725586 64.16113281 C24.10550056 64.15566437 24.10550056 64.15566437 22.23674011 64.15008545 C15.92794309 64.84034075 11.98342316 67.82558559 7.87792969 72.51757812 Z M8.50292969 136.14257812 C6.30193076 140.7138836 6.20000261 144.52937393 6.87792969 149.51757812 C8.7178114 154.1172824 11.96261793 156.64102255 15.87792969 159.51757812 C19.36100733 160.75155445 22.79441088 160.65744634 26.46313477 160.67871094 C27.44200905 160.68615829 27.44200905 160.68615829 28.44065857 160.6937561 C30.59293689 160.70832351 32.74514148 160.71517085 34.89746094 160.72070312 C36.3995514 160.72645933 37.90164185 160.732217 39.4037323 160.73797607 C42.5517918 160.74847084 45.69982587 160.75432337 48.84790039 160.7578125 C52.86940269 160.76329208 56.89056555 160.7873148 60.91196156 160.81578445 C64.0150397 160.8344665 67.118037 160.8396194 70.22116661 160.84114838 C71.70304913 160.84416321 73.18493062 160.85215205 74.66675758 160.86533356 C76.74627671 160.88251055 78.8249785 160.88048611 80.90454102 160.87402344 C82.08494461 160.87766907 83.26534821 160.8813147 84.48152161 160.8850708 C89.06373142 160.38927392 93.09165936 159.09157866 96.62011719 155.98242188 C100.86226298 150.2628391 101.65220976 146.60605767 100.87792969 139.51757812 C98.50766077 134.59471191 95.59283497 132.17664015 90.87792969 129.51757812 C87.33400452 128.91777682 87.33400452 128.91777682 83.49902344 129 C82.78602081 128.99299072 82.07301819 128.98598145 81.33840942 128.97875977 C78.99701222 128.96124928 76.65683776 128.97277656 74.31542969 128.98632812 C72.67927826 128.98363118 71.04312839 128.97974708 69.40698242 128.97473145 C65.98405645 128.96884585 62.56154905 128.97736869 59.13867188 128.99609375 C54.76045918 129.01888316 50.3832274 129.00575498 46.00505066 128.98180389 C42.62830267 128.96732026 39.25178562 128.97196356 35.87503052 128.98231506 C34.26115807 128.98497528 32.64726436 128.98173745 31.03341675 128.97239685 C28.77399504 128.96218831 26.51614143 128.97778956 24.25683594 129 C22.97365479 129.00318237 21.69047363 129.00636475 20.3684082 129.00964355 C15.07601002 129.77979355 12.02942363 132.24487429 8.50292969 136.14257812 Z M9.87792969 198.58007812 C6.45077149 203.61371673 6.22024309 207.49650364 6.87792969 213.51757812 C9.22585627 218.39404102 12.16553823 220.92095426 16.87792969 223.51757812 C20.7764995 224.53876751 24.47331908 224.64774432 28.49285889 224.65802002 C29.4697945 224.6624767 29.4697945 224.6624767 30.46646619 224.66702342 C32.64106875 224.67567024 34.81561601 224.67721525 36.99023438 224.67871094 C38.55270504 224.68334197 40.11517459 224.68836701 41.67764282 224.6937561 C45.91748482 224.70685483 50.157311 224.71332014 54.39717007 224.71776676 C57.04844563 224.72070162 59.6997169 224.72480721 62.3509903 224.72927094 C70.65316203 224.74293932 78.95532393 224.75260915 87.25750613 224.75647283 C96.82825397 224.76095184 106.39885886 224.77849523 115.96956325 224.80747342 C123.37611581 224.8291175 130.78262824 224.83917856 138.18921208 224.84051394 C142.60880996 224.84156003 147.02827336 224.84742603 151.44783783 224.86533356 C155.60769528 224.88186142 159.76731783 224.88394698 163.9271965 224.87519455 C165.44890601 224.87442669 166.97062839 224.87873364 168.49230576 224.8886528 C181.41795991 225.26186307 181.41795991 225.26186307 192.77415085 219.93498611 C196.14908632 216.5576745 197.79634671 213.27650031 198.04589844 208.49804688 C197.64258003 203.74264146 195.55792517 200.39185803 192.69042969 196.70507812 C185.30216432 190.95864951 175.32402376 192.22652452 166.42504883 192.24291992 C164.86213437 192.23856749 163.29922205 192.23338258 161.73631287 192.22743225 C157.50902017 192.21408891 153.28181713 192.21345831 149.05450749 192.21599555 C145.51832505 192.21706832 141.98216051 192.21217415 138.44598192 192.20739013 C130.10044881 192.19631133 121.75496072 192.19584853 113.40942383 192.2019043 C104.8149688 192.20794499 96.22067744 192.19562693 87.62625033 192.17433423 C80.2323684 192.156693 72.83853847 192.1507208 65.44463629 192.15397197 C61.03515412 192.15578076 56.62578876 192.15318897 52.21632576 192.13925743 C48.06872536 192.12664238 43.92137942 192.12865776 39.77378273 192.14166832 C38.25691388 192.14402557 36.74002692 192.14133011 35.22317886 192.1330452 C21.26264286 191.68286058 21.26264286 191.68286058 9.87792969 198.58007812 Z M9.87792969 262.58007812 C6.45077149 267.61371673 6.22024309 271.49650364 6.87792969 277.51757812 C9.22585627 282.39404102 12.16553823 284.92095426 16.87792969 287.51757812 C20.67281663 288.50095234 24.26699465 288.65440727 28.17773438 288.67871094 C29.42963562 288.68831848 30.68153687 288.69792603 31.97137451 288.70782471 C33.33084937 288.71267403 34.69032636 288.71695253 36.04980469 288.72070312 C37.0852026 288.72494419 37.0852026 288.72494419 38.14151764 288.72927094 C41.79584634 288.74422798 45.45013593 288.75347888 49.10449219 288.7578125 C52.85785997 288.76328595 56.61086295 288.78729979 60.36411667 288.81578445 C63.26911425 288.83451438 66.17402584 288.83962194 69.07907867 288.84114838 C70.4616215 288.84415313 71.8441636 288.85210703 73.22664642 288.86533356 C85.64725816 289.28221849 85.64725816 289.28221849 96.48846436 284.06549072 C100.56791714 279.33733953 101.23386356 276.11681194 101.15527344 270.05664062 C100.74416525 266.2929741 99.39506609 264.29967625 96.87792969 261.51757812 C91.19667608 257.04510188 86.65187821 256.40040583 79.578125 256.35644531 C77.70027313 256.342034 77.70027313 256.342034 75.78448486 256.32733154 C74.42501001 256.32248222 73.06553302 256.31820372 71.70605469 256.31445312 C70.67065678 256.31021206 70.67065678 256.31021206 69.61434174 256.30588531 C65.96001304 256.29092827 62.30572345 256.28167737 58.65136719 256.27734375 C54.89799941 256.2718703 51.14499643 256.24785646 47.39174271 256.2193718 C44.48674513 256.20064187 41.58183353 256.19553431 38.6767807 256.19400787 C37.29423788 256.19100312 35.91169577 256.18304922 34.52921295 256.16982269 C20.93455186 255.76913185 20.93455186 255.76913185 9.87792969 262.58007812 Z " fill="#aaa" transform="translate(138.1220703125,15.482421875)"/>
<path d="M0 0 C19.41513413 15.83036047 34.05409201 37.67987498 37 63 C38.94594906 90.51889343 34.34308581 113.58662518 18 136 C19.32251955 138.93545523 20.74642384 140.98622175 23.04101562 143.23632812 C23.65505249 143.84375854 24.26908936 144.45118896 24.9017334 145.07702637 C25.56322388 145.72192017 26.22471436 146.36681396 26.90625 147.03125 C27.58675415 147.70418091 28.2672583 148.37711182 28.96838379 149.07043457 C31.14085125 151.21849089 33.3196056 153.35999217 35.5 155.5 C38.37032953 158.31716356 41.23401313 161.14083877 44.09375 163.96875 C44.75524048 164.6136438 45.41673096 165.2585376 46.0982666 165.92297363 C46.71230347 166.53040405 47.32634033 167.13783447 47.95898438 167.76367188 C48.49922241 168.29343628 49.03946045 168.82320068 49.59606934 169.36901855 C53.50524219 173.91040266 53.42512567 178.29979349 53.3125 184.0859375 C52.73544424 189.46698248 50.25032213 191.94859275 46.25 195.3125 C40.86929669 198.10632672 37.00281114 198.53648599 31.26953125 197.00073242 C25.96391537 194.88706381 22.47179211 191.09936092 18.5625 187.05078125 C17.41418701 185.89185616 17.41418701 185.89185616 16.24267578 184.70951843 C13.81639134 182.25539611 11.40813936 179.78441678 9 177.3125 C7.3514236 175.63882742 5.70169548 173.96628846 4.05078125 172.29492188 C0.0204302 168.20964204 -3.99528367 164.1104038 -8 160 C-9.70700073 160.82383179 -9.70700073 160.82383179 -11.44848633 161.66430664 C-12.97204277 162.3923519 -14.4957315 163.12012037 -16.01953125 163.84765625 C-16.76593872 164.20879517 -17.51234619 164.56993408 -18.28137207 164.9420166 C-39.07157638 174.8321735 -66.09438411 177.06205369 -88.07763672 169.68896484 C-113.96901459 160.40963181 -134.1938043 143.36282569 -146.69140625 118.65625 C-157.31113662 95.44721522 -159.00630488 68.05263728 -150.25244141 43.94091797 C-140.64468657 18.56205421 -121.88197525 -0.97917646 -97.25 -12.25 C-64.83643424 -25.22961167 -27.89614876 -21.33000818 0 0 Z M-102 30 C-114.33119355 41.93157154 -121.95398863 56.30752096 -122.29223633 73.60253906 C-122.36159124 83.51945617 -121.99552044 91.79065289 -118 101 C-117.63777344 101.87527344 -117.27554688 102.75054687 -116.90234375 103.65234375 C-109.86685408 119.13042103 -96.51841767 130.83848774 -80.9375 137.25 C-63.91331734 142.96474679 -45.88616431 141.80499822 -29.75927734 133.93896484 C-14.29110536 125.68326273 -3.47968063 111.87655607 2.23828125 95.54296875 C6.25601008 82.12993559 5.55873161 65.81242073 0 53 C-0.54333984 51.68708984 -0.54333984 51.68708984 -1.09765625 50.34765625 C-8.13314592 34.86957897 -21.48158233 23.16151226 -37.0625 16.75 C-60.05575021 9.03153237 -83.9646753 13.95996266 -102 30 Z " fill="#aaa" transform="translate(443,291)"/>
</svg>
