<?xml version="1.0" encoding="UTF-8"?>
<svg version="1.1" xmlns="http://www.w3.org/2000/svg" width="512" height="512">
<path d="M0 0 C119.79 0 239.58 0 363 0 C356.31906977 7.7944186 356.31906977 7.7944186 352.3125 11.25 C343.01861183 19.48332436 334.61952824 28.19629068 327 38 C326.54512207 38.57314941 326.09024414 39.14629883 325.62158203 39.73681641 C317.30411296 50.23855901 310.37352836 61.22453315 304 73 C303.62891113 73.68030273 303.25782227 74.36060547 302.87548828 75.06152344 C289.15397045 100.48017657 279.94606984 129.45161969 278.625 158.38671875 C278.56022461 159.68407959 278.49544922 160.98144043 278.42871094 162.31811523 C278.31178696 164.89060257 278.22526936 167.46469702 278.17285156 170.03930664 C277.73689569 180.02499765 277.73689569 180.02499765 273.7265625 183.984375 C272.49237516 184.99938987 271.25060917 186.00528884 270 187 C251.47573278 208.75326793 242.09353339 233.04141499 235.95932007 260.67796326 C235.77956823 261.48758231 235.5998164 262.29720137 235.41461754 263.13135433 C235.27779375 263.7480074 235.14096996 264.36466047 235 265 C208.07018073 265.09351239 181.14038585 265.16401313 154.21043682 265.20724869 C141.70590977 265.22785882 129.20148371 265.25594996 116.69702148 265.30175781 C105.79595633 265.34167281 94.89496432 265.36744407 83.99382812 265.37635398 C78.2237208 265.38156078 72.45382272 265.39376669 66.68378258 265.42292023 C61.24767238 265.45016284 55.81185672 265.45842707 50.37568474 265.45243073 C48.38555549 265.453527 46.39541593 265.46142788 44.40534592 265.4768219 C30.10487185 265.58197315 18.97778704 264.92235921 8.16796875 254.5078125 C1.04123182 246.26391141 -0.15391829 237.88796577 -0.12025452 227.40129089 C-0.12111053 226.43155838 -0.12196655 225.46182587 -0.12284851 224.46270752 C-0.12450468 221.20062426 -0.11897843 217.93859225 -0.11352539 214.67651367 C-0.11321909 212.30298775 -0.11335248 209.92946174 -0.11389065 207.55593586 C-0.11411662 201.19351504 -0.10831617 194.83111298 -0.10128021 188.46869659 C-0.09558989 182.50081828 -0.09531734 176.53294455 -0.09460449 170.56506348 C-0.08935489 153.10587316 -0.07539377 135.64668634 -0.0625 118.1875 C-0.041875 79.185625 -0.02125 40.18375 0 0 Z M32 47 C32 69.77 32 92.54 32 116 C54.77 116 77.54 116 101 116 C101 93.23 101 70.46 101 47 C78.23 47 55.46 47 32 47 Z M126 64 C125.42035388 67.47787674 125.56999486 69.24237189 127.3125 72.3125 C130.07973751 75.07973751 132.78381416 75.12735044 136.50314331 75.14717102 C137.88682602 75.15790398 137.88682602 75.15790398 139.29846191 75.16885376 C140.3084021 75.17154266 141.31834229 75.17423157 142.35888672 75.17700195 C143.4241861 75.18357315 144.48948547 75.19014435 145.58706665 75.19691467 C149.11794095 75.21665157 152.64877276 75.22830982 156.1796875 75.23828125 C157.98657232 75.24439454 157.98657232 75.24439454 159.82995987 75.25063133 C166.20288166 75.2714915 172.57578191 75.28579475 178.94873047 75.29516602 C185.53867966 75.30624378 192.12829242 75.34065999 198.71812248 75.38033772 C203.77955769 75.40644717 208.84091196 75.41485271 213.9024086 75.41844749 C216.3321269 75.42332636 218.76184128 75.43497703 221.19149399 75.45348549 C224.58871124 75.47776054 227.9850473 75.47693306 231.38232422 75.4699707 C232.8911618 75.48918579 232.8911618 75.48918579 234.43048096 75.50878906 C238.79724164 75.47611784 241.30248439 75.42219062 245.10110474 73.12297058 C247.3430572 70.61646102 248 69.36534584 248 66 C246.24886475 62.28738773 246.24886475 62.28738773 243 60 C241.51631911 59.89948832 240.02824472 59.86060175 238.54118347 59.85282898 C237.1343203 59.84209602 237.1343203 59.84209602 235.69903564 59.83114624 C234.15068024 59.82711288 234.15068024 59.82711288 232.57104492 59.82299805 C230.94405418 59.81314125 230.94405418 59.81314125 229.28419495 59.80308533 C225.68295224 59.78332115 222.08175128 59.77168331 218.48046875 59.76171875 C216.63911063 59.75560546 216.63911063 59.75560546 214.76055336 59.74936867 C208.93477709 59.73064941 203.1090173 59.71608608 197.28321666 59.7077567 C190.55978794 59.69798511 183.83668853 59.67166815 177.11337584 59.63125581 C171.28920816 59.59745027 165.46515093 59.58561114 159.64089394 59.58155251 C157.1637276 59.57667276 154.68656514 59.5650196 152.20946312 59.54651451 C148.7450864 59.52224108 145.28157389 59.52306685 141.81713867 59.5300293 C140.79097443 59.51721924 139.76481018 59.50440918 138.70755005 59.49121094 C133.28482799 59.53099924 129.76306321 59.62243405 126 64 Z M126 92 C125.42035388 95.47787674 125.56999486 97.24237189 127.3125 100.3125 C130.698173 103.698173 134.85596004 103.1540026 139.32958984 103.16113281 C140.07302139 103.16609772 140.81645294 103.17106262 141.58241272 103.17617798 C144.04193039 103.19078355 146.50138358 103.1975987 148.9609375 103.203125 C150.6710307 103.20887752 152.38112388 103.21463524 154.09121704 103.22039795 C157.67735087 103.23090319 161.26346232 103.23674906 164.84960938 103.24023438 C169.44190923 103.2457199 174.03391272 103.26975108 178.62611961 103.29820633 C182.15889345 103.3168409 185.69159599 103.32203873 189.22441483 103.32357025 C190.91727952 103.32659516 192.61014302 103.33461828 194.30295944 103.34775543 C196.67274207 103.3648343 199.04180168 103.36293153 201.41162109 103.35644531 C202.10893845 103.3656601 202.8062558 103.37487488 203.52470398 103.3843689 C207.83367022 103.34747426 210.61979233 102.72324172 214 100 C215.33660145 96.64407137 215.33660145 96.64407137 215 93 C212.33866732 89.46682446 210.83346686 88.14679232 206.43322754 87.37181091 C205.0423255 87.34531885 203.65073286 87.34608263 202.25976562 87.36889648 C201.49653488 87.36174118 200.73330414 87.35458588 199.94694519 87.34721375 C197.43276476 87.33035266 194.92037412 87.34971226 192.40625 87.37109375 C190.65417331 87.3702648 188.90209669 87.36780445 187.15002441 87.36378479 C183.48145078 87.36092858 179.81348828 87.37561027 176.14501953 87.40307617 C171.44718589 87.43715899 166.75044484 87.43113926 162.0525589 87.4124136 C158.43563767 87.40183512 154.81896982 87.41078906 151.20207214 87.42579842 C149.47015638 87.43097449 147.73821409 87.4305054 146.00630188 87.42425346 C143.58370246 87.41879084 141.16265665 87.43920773 138.74023438 87.46655273 C138.02735764 87.46002686 137.3144809 87.45350098 136.58000183 87.44677734 C131.81928904 87.53795828 129.28625911 88.54252646 126 92 Z M32 149 C32 171.77 32 194.54 32 218 C54.77 218 77.54 218 101 218 C101 195.23 101 172.46 101 149 C78.23 149 55.46 149 32 149 Z M127.35852051 163.84385681 C125.48863492 166.81160081 125.42614132 168.55684792 126 172 C128.23206431 174.84780619 129.54992999 175.84997666 133 177 C134.46082185 177.09273947 135.92549245 177.13056703 137.38925171 177.13371277 C138.28646439 177.13797775 139.18367706 177.14224274 140.108078 177.14663696 C141.08996597 177.14618378 142.07185394 177.14573059 143.08349609 177.14526367 C144.11953476 177.14862228 145.15557343 177.1519809 146.2230072 177.15544128 C149.65649608 177.16495976 153.08993624 177.16689486 156.5234375 177.16796875 C158.90613831 177.17118074 161.28883892 177.17454477 163.67153931 177.17805481 C168.67002825 177.18404835 173.6684999 177.18589448 178.66699219 177.18530273 C185.07523273 177.18520111 191.48336249 177.19885287 197.89157677 177.21607494 C202.81404124 177.22718794 207.73647888 177.22922215 212.65895462 177.22869301 C215.02166755 177.2298742 217.38438115 177.23430373 219.74708176 177.24202538 C223.05070527 177.25181082 226.35408754 177.24895279 229.65771484 177.24291992 C231.12447411 177.25134918 231.12447411 177.25134918 232.62086487 177.25994873 C238.15255582 177.2342495 242.63320117 177.20901224 246.875 173.25 C248.45996822 170.08006357 248.06419137 168.3344663 247 165 C244.12457168 162.29220726 242.1652889 161.62384226 238.25598145 161.61231995 C236.83020531 161.597463 236.83020531 161.597463 235.37562561 161.58230591 C233.82167336 161.58905838 233.82167336 161.58905838 232.23632812 161.59594727 C231.14001572 161.58908401 230.04370331 161.58222076 228.91416931 161.57514954 C225.28639821 161.55683186 221.65905747 161.56072594 218.03125 161.56640625 C215.51306008 161.56184717 212.99487142 161.55654242 210.47668457 161.55052185 C205.1974698 161.54158121 199.91836706 161.54379192 194.63916016 161.55395508 C188.53827066 161.5654406 182.43782053 161.55135318 176.33698893 161.5245586 C170.4647234 161.49973444 164.592629 161.49722255 158.72032166 161.50367546 C156.22280649 161.5038291 153.72528302 161.49774958 151.22779846 161.48538399 C147.73942134 161.47054533 144.25201803 161.48109931 140.76367188 161.49829102 C139.7277037 161.48862305 138.69173553 161.47895508 137.62437439 161.46899414 C132.14164669 161.45469633 132.14164669 161.45469633 127.35852051 163.84385681 Z M126 194 C125.25 197 125.25 197 126 200 C128.23206431 202.84780619 129.54992999 203.84997666 133 205 C135.38038001 205.10026663 137.76351537 205.1383345 140.14599609 205.14526367 C140.8699205 205.14862228 141.59384491 205.1519809 142.33970642 205.15544128 C144.73430088 205.16494471 147.12882535 205.16689413 149.5234375 205.16796875 C151.18869048 205.17118191 152.85394317 205.17454603 154.51919556 205.17805481 C158.01117609 205.18404467 161.50313188 205.18589487 164.99511719 205.18530273 C169.46628449 205.18520116 173.93729283 205.1988495 178.40842247 205.21607494 C181.84854865 205.2272025 185.2886365 205.2292217 188.72877884 205.22869301 C190.37697523 205.22987213 192.02517263 205.23429013 193.67335129 205.24202538 C195.98075181 205.2518399 198.28780861 205.24894148 200.59521484 205.24291992 C201.90743011 205.24434494 203.21964539 205.24576996 204.57162476 205.24723816 C207.89224511 205.00777077 210.08642654 204.57970202 213 203 C215.33043558 199.50434664 215.58763244 198.1134271 215 194 C212.192711 191.03407679 210.50594826 190.07205074 206.43322754 189.49206543 C205.0422703 189.46845039 203.65083358 189.46662199 202.25976562 189.48242188 C201.49653488 189.4754126 200.73330414 189.46840332 199.94694519 189.46118164 C197.43300612 189.44362759 194.92019981 189.45521445 192.40625 189.46875 C190.65417261 189.46605432 188.90209669 189.46217127 187.15002441 189.45715332 C183.48154428 189.45126181 179.81345425 189.45980987 176.14501953 189.47851562 C171.44721678 189.50130518 166.75032813 189.48818021 162.0525589 189.46422577 C158.43566016 189.44975829 154.81897746 189.45437809 151.20207214 189.46473694 C149.47014762 189.46740161 147.73820335 189.46414359 146.00630188 189.45481873 C143.58375237 189.44463718 141.16267452 189.46017493 138.74023438 189.48242188 C138.02735764 189.47432495 137.3144809 189.46622803 136.58000183 189.45788574 C131.81466563 189.53878944 129.29095421 190.54258872 126 194 Z " fill="#aaa" transform="translate(15,94)"/>
<path d="M0 0 C1.44676505 -0.00389971 2.89352625 -0.00954551 4.34027851 -0.0167709 C8.28873936 -0.03144711 12.23679821 -0.02139145 16.18524575 -0.00703418 C20.45385915 0.00411641 24.72241803 -0.00788038 28.99102783 -0.01687622 C37.34194811 -0.03078223 45.69271678 -0.02327238 54.04362978 -0.00820064 C63.77379339 0.00868975 73.50391955 0.00544544 83.23409329 0.00170528 C100.59675643 -0.00416831 117.95934696 0.00997943 135.32199097 0.03465271 C152.16121135 0.0585794 169.00033476 0.06565344 185.83956909 0.05516052 C204.18954513 0.04374667 222.53947636 0.04182646 240.88945186 0.05625862 C242.8466796 0.05778442 244.80390735 0.05930477 246.7611351 0.06081963 C247.72406242 0.06157744 248.68698974 0.06233525 249.67909668 0.06311603 C256.45823234 0.06785466 263.23734796 0.06601046 270.01648331 0.06175423 C278.2786826 0.05682349 286.5407903 0.06283033 294.80296864 0.08264852 C299.01675849 0.09250766 303.23040898 0.0976405 307.44420624 0.08975601 C311.30432638 0.08268113 315.16416573 0.08954583 319.02424894 0.10735964 C320.41774001 0.11139239 321.81125681 0.11042401 323.20473816 0.10384078 C335.53228363 0.05060305 344.41526393 1.73830586 353.45040894 10.50120544 C367.18191178 26.62599854 362.45040894 46.95006904 362.45040894 67.50120544 C229.13040894 67.50120544 95.81040894 67.50120544 -41.54959106 67.50120544 C-41.54959106 20.24556635 -41.54959106 20.24556635 -30.99099731 8.81370544 C-22.33115713 0.50690431 -11.41448167 -0.08584695 0 0 Z M-4.42459106 27.12620544 C-6.20686937 30.88879297 -6.31336293 34.42775548 -5.54959106 38.50120544 C-3.06105662 42.04548178 -1.06708599 43.27538948 2.88790894 45.00120544 C7.28260674 45.61800514 8.8554965 45.05758762 12.45040894 42.50120544 C14.78509176 39.92706797 16.27445642 38.02215094 16.68087769 34.50901794 C16.46740503 30.31862886 15.66883525 28.73995049 12.76290894 25.56370544 C6.07658797 21.40052446 1.54277638 21.954487 -4.42459106 27.12620544 Z M43.45040894 25.50120544 C40.43961776 28.51199662 39.61978873 31.26671055 39.45040894 35.50120544 C40.98932531 39.63198098 42.56786619 42.3315492 46.45040894 44.50120544 C49.98920712 45.84021016 51.41094292 45.51413397 55.07540894 44.31370544 C59.20930285 42.09365131 60.69192875 40.50576021 62.32540894 36.18870544 C62.50533395 32.32031767 61.26549423 29.88101944 59.45040894 26.50120544 C54.52918866 21.41028791 49.11945479 21.84782034 43.45040894 25.50120544 Z M87.63790894 26.68870544 C85.66041731 29.70698214 85.33305432 32.97366389 85.45040894 36.50120544 C87.01857536 40.21528381 88.97999819 42.45978736 92.45040894 44.50120544 C95.95871456 45.82867244 97.4282666 45.5080772 101.07540894 44.37620544 C104.73348304 42.34394205 105.9576019 41.3649413 107.45040894 37.50120544 C107.99521096 33.2206181 107.73054691 31.05110592 105.76290894 27.18870544 C103.35009481 24.38462416 101.98910223 23.4085627 98.45040894 22.50120544 C94.14427301 22.50120544 91.1887677 24.36228074 87.63790894 26.68870544 Z " fill="#aaa" transform="translate(56.549591064453125,11.498794555664063)"/>
<path d="M0 0 C34.65 0 69.3 0 105 0 C116.58847126 26.6534839 116.58847126 26.6534839 118.9375 35.4375 C119.21489014 36.43861816 119.49228027 37.43973633 119.77807617 38.47119141 C120.54824896 41.30756447 121.285064 44.14925888 122 47 C122.18143555 47.72171387 122.36287109 48.44342773 122.54980469 49.18701172 C134.42879887 98.47871437 123.77625126 153.85610648 98 197 C95.48050742 201.10379731 92.81130392 205.09027559 90 209 C89.6643956 209.65323746 89.3287912 210.30647491 88.98301697 210.97950745 C86.85968204 214.62343213 85.25163382 216.65524737 81.09468079 217.80024719 C77.37221929 218.16164392 73.72455363 218.2659655 69.984375 218.2734375 C68.60440879 218.2940993 67.22446386 218.31622942 65.84454346 218.3397522 C62.95584635 218.37853663 60.06908309 218.38549457 57.18017578 218.37255859 C54.23069392 218.36296255 51.28938662 218.40449272 48.34130859 218.49560547 C22.67260103 219.28026594 22.67260103 219.28026594 16.96508789 214.07177734 C14.18918897 210.68734575 12.61589037 207.04608333 11 203 C10.08531898 201.51719413 9.14210553 200.0509679 8.15234375 198.6171875 C7.40403797 197.37577942 6.66557948 196.12837777 5.9375 194.875 C5.53104248 194.17600586 5.12458496 193.47701172 4.70581055 192.75683594 C-21.81463136 146.09565169 -28.56425161 90.82667157 -15 39 C-13.97522777 35.34710072 -12.86591998 31.73114741 -11.6875 28.125 C-11.44040283 27.36678955 -11.19330566 26.6085791 -10.9387207 25.82739258 C-7.86478772 16.9368485 -3.84680968 8.65532178 0 0 Z M22.5703125 38.93359375 C15.45664065 48.29461964 14.2100579 58.64740359 15 70 C17.14573852 80.31505627 23.22331161 88.75075419 31.84375 94.71875 C41.07684045 100.20507911 50.49875993 102.20985382 61.0625 99.9375 C71.93010012 96.80234498 80.80351174 90.59017008 86.34765625 80.5625 C90.55310668 71.39793418 91.67359183 61.47672535 89.12890625 51.62890625 C85.06655232 41.17333959 77.7212102 32.50940307 67.4375 27.75 C51.09282078 20.64108426 34.42776236 26.60736099 22.5703125 38.93359375 Z " fill="#aaa" transform="translate(328,178)"/>
<path d="M0 0 C20.79 0 41.58 0 63 0 C63 7.1640126 62.30206216 11.74274963 60.3125 18.375 C59.85870972 19.90640625 59.85870972 19.90640625 59.39575195 21.46875 C52.23495833 44.83064504 42.60083153 67.55743875 33 90 C32.01 90 31.02 90 30 90 C8.95911073 39.70525188 8.95911073 39.70525188 2.375 17.3125 C2.12685547 16.48129639 1.87871094 15.65009277 1.62304688 14.79370117 C1.40455078 14.0122876 1.18605469 13.23087402 0.9609375 12.42578125 C0.77321777 11.75973877 0.58549805 11.09369629 0.39208984 10.4074707 C-0.1659585 6.98099828 0 3.47161795 0 0 Z " fill="#aaa" transform="translate(349,409)"/>
<path d="M0 0 C2.53637381 1.10046775 4.02599295 2.47960188 5.98681641 4.43041992 C6.72996094 5.16744141 7.47310547 5.90446289 8.23876953 6.66381836 C9.02058594 7.45949219 9.80240234 8.25516602 10.60791016 9.07495117 C11.41421875 9.88996094 12.22052734 10.7049707 13.05126953 11.54467773 C19.62499581 18.27918882 25.51697374 25.28450612 31.04541016 32.88745117 C31.98417551 34.15440547 32.92297847 35.4213319 33.86181641 36.68823242 C34.77897486 37.94082716 35.69439634 39.19469593 36.60791016 40.44995117 C37.23536133 41.3079834 37.23536133 41.3079834 37.87548828 42.18334961 C40.18408005 45.41960347 41.53816426 48.11933642 43.04541016 51.88745117 C14.33541016 51.88745117 -14.37458984 51.88745117 -43.95458984 51.88745117 C-41.97752903 46.94479913 -39.69220747 43.30060061 -36.64208984 39.01245117 C-36.11010986 38.26431152 -35.57812988 37.51617187 -35.0300293 36.74536133 C-29.4633496 29.03815202 -23.41898484 21.85321014 -16.95458984 14.88745117 C-16.30425781 14.18652344 -15.65392578 13.4855957 -14.98388672 12.76342773 C-12.97258052 10.61861076 -10.93843377 8.49882563 -8.89208984 6.38745117 C-8.26069092 5.72148926 -7.62929199 5.05552734 -6.97875977 4.36938477 C-6.08314331 3.46567139 -6.08314331 3.46567139 -5.16943359 2.54370117 C-4.64470459 2.00551758 -4.11997559 1.46733398 -3.5793457 0.9128418 C-1.95458984 -0.11254883 -1.95458984 -0.11254883 0 0 Z " fill="#aaa" transform="translate(380.95458984375,112.112548828125)"/>
<path d="M0 0 C0.66 0 1.32 0 2 0 C2.08975098 0.58152832 2.17950195 1.16305664 2.27197266 1.76220703 C5.16460587 20.17347525 8.77439343 38.45769736 16.21484375 55.63671875 C17 58 17 58 16 61 C13.7421875 62.796875 13.7421875 62.796875 10.875 64.75 C-6.66661918 77.21497487 -15.50137194 96.00422135 -22 116 C-24.69037084 113.30962916 -24.80352876 111.08640908 -25.5625 107.375 C-25.81128906 106.18648438 -26.06007813 104.99796875 -26.31640625 103.7734375 C-32.29907596 70.74910068 -25.58352244 36.03400069 -6.49609375 8.28125 C-4.44287263 5.41737593 -2.37648263 2.60759933 0 0 Z " fill="#aaa" transform="translate(292,294)"/>
<path d="M0 0 C8.21288056 2.73762685 14.01344145 17.2131733 17.91113281 24.75244141 C30.86955608 51.50025409 34.83403222 84.88664849 25.8984375 113.53125 C25.60195313 114.3459375 25.30546875 115.160625 25 116 C22.22142455 113.22142455 21.55509737 109.9062301 20.375 106.25 C13.97759084 87.38743289 2.27866809 70.45814121 -15 60 C-13.6109693 55.2927293 -12.21121914 50.59934562 -10.640625 45.94921875 C-5.6532716 31.00350517 -2.03110576 15.63733038 0 0 Z " fill="#aaa" transform="translate(467,294)"/>
<path d="M0 0 C3.57421875 0.66015625 3.57421875 0.66015625 6.01171875 2.34765625 C7.83572435 5.04718453 8.57421875 6.38396842 8.57421875 9.66015625 C6.0510701 14.67579606 3.2761993 18.32696482 -0.7421875 22.3046875 C-1.23992172 22.80054855 -1.73765594 23.29640961 -2.25047302 23.80729675 C-3.29326767 24.84342471 -4.33962593 25.87597769 -5.3894043 26.9050293 C-6.99475154 28.47900008 -8.5889753 30.06359778 -10.18164062 31.65039062 C-20.08814767 41.46786265 -20.08814767 41.46786265 -25.1484375 42.1953125 C-29.69875531 42.07137388 -31.91599456 40.15930433 -35.05664062 37.02539062 C-35.65283203 36.38923828 -36.24902344 35.75308594 -36.86328125 35.09765625 C-37.48654297 34.48857422 -38.10980469 33.87949219 -38.75195312 33.25195312 C-42.63947365 29.25444835 -44.34036936 26.45392922 -44.42578125 20.66015625 C-43.63849041 18.01199614 -42.90298016 17.03131096 -40.73828125 15.34765625 C-37.26622307 14.31542274 -34.91268203 14.74255078 -31.42578125 15.66015625 C-28.48828125 18.22265625 -28.48828125 18.22265625 -26.42578125 20.66015625 C-22.96549812 19.19113164 -20.90859672 17.28467051 -18.37890625 14.52734375 C-17.61578125 13.72167969 -16.85265625 12.91601562 -16.06640625 12.0859375 C-14.47602359 10.3890096 -12.89776491 8.68063497 -11.33203125 6.9609375 C-4.77283236 0.10459369 -4.77283236 0.10459369 0 0 Z " fill="#aaa" transform="translate(99.42578125,154.33984375)"/>
<path d="M0 0 C2.64508959 2.64508959 2.78233633 4.29971764 3 8 C0.81050349 12.50182659 -2.46410629 15.84789459 -5.91796875 19.39453125 C-6.49404373 19.98674973 -7.07011871 20.5789682 -7.66365051 21.18913269 C-8.88027258 22.43330743 -10.09995742 23.67449378 -11.32250977 24.9128418 C-12.56594989 26.179396 -13.80038554 27.45485354 -15.02563477 28.73901367 C-16.80375287 30.60251961 -18.60697006 32.43802921 -20.41796875 34.26953125 C-20.95785934 34.84443802 -21.49774994 35.41934479 -22.05400085 36.01167297 C-24.97386977 38.89932349 -26.98744534 40.368583 -31.17333984 40.53417969 C-34.90239435 40.01362519 -36.23289596 39.77702572 -38.80859375 37.18359375 C-39.40994141 36.58353516 -40.01128906 35.98347656 -40.63085938 35.36523438 C-41.22705078 34.72908203 -41.82324219 34.09292969 -42.4375 33.4375 C-43.06076172 32.82841797 -43.68402344 32.21933594 -44.32617188 31.59179688 C-48.1981396 27.61028491 -49.98594647 24.78302775 -50 19 C-48.65437601 16.05244268 -47.91445456 14.45722728 -45 13 C-39.68795159 12.39635814 -37.1987162 13.82763665 -33 17 C-32.01 17.66 -31.02 18.32 -30 19 C-29.40985107 18.39937744 -28.81970215 17.79875488 -28.21166992 17.17993164 C-26.01843575 14.95260016 -23.82072205 12.72981526 -21.61987305 10.51000977 C-20.66850843 9.54859153 -19.71894709 8.58538536 -18.77124023 7.62036133 C-17.40824879 6.2330945 -16.03819589 4.85277672 -14.66796875 3.47265625 C-13.84578857 2.64000244 -13.0236084 1.80734863 -12.17651367 0.94946289 C-7.89443566 -2.88591489 -5.11923922 -1.76846446 0 0 Z " fill="#aaa" transform="translate(105,258)"/>
<path d="M0 0 C11.88 0 23.76 0 36 0 C36 11.88 36 23.76 36 36 C35.34 36 34.68 36 34 36 C32.75815799 34.56615249 31.58457712 33.07322975 30.4375 31.5625 C26.0869479 26.11724729 21.37155356 21.17009888 16.4375 16.25 C15.72972412 15.54174072 15.02194824 14.83348145 14.29272461 14.10375977 C10.15220335 10.0044568 5.90228326 6.10196756 1.45336914 2.33886719 C0.97375732 1.89704102 0.49414551 1.45521484 0 1 C0 0.67 0 0.34 0 0 Z " fill="#aaa" transform="translate(383,94)"/>
</svg>
