<?xml version="1.0" encoding="UTF-8"?>
<svg version="1.1" xmlns="http://www.w3.org/2000/svg" width="512" height="512">
<path d="M0 0 C1.71787702 -0.00461706 3.43575009 -0.01097535 5.153615 -0.01890898 C9.84230926 -0.03551493 14.53067536 -0.02739593 19.21937037 -0.0149641 C24.28830783 -0.00587997 29.35719051 -0.01989997 34.42611694 -0.03088379 C44.34355356 -0.04863778 54.26086885 -0.04484293 64.17831016 -0.03323323 C72.24092333 -0.02418689 80.30350259 -0.0229801 88.36611938 -0.02732849 C90.08967265 -0.02824789 90.08967265 -0.02824789 91.84804517 -0.02918586 C94.18254273 -0.03046481 96.51704028 -0.03176166 98.85153782 -0.03307623 C120.72423596 -0.04447289 142.59686695 -0.03138265 164.46955407 -0.00987476 C183.22314453 0.00799537 201.97663594 0.00489101 220.73022461 -0.0135498 C242.52651823 -0.03497265 264.32275307 -0.04337434 286.11905575 -0.03110075 C288.44479814 -0.0298266 290.77054055 -0.02856912 293.09628296 -0.02732849 C294.24048873 -0.02671139 295.38469451 -0.02609429 296.56357318 -0.02545848 C304.61324816 -0.02200983 312.66288574 -0.02782348 320.71255493 -0.0372467 C330.52708011 -0.04848376 340.34147738 -0.04539072 350.15598798 -0.02412373 C355.16016886 -0.01363634 360.16413674 -0.00945202 365.16831589 -0.02272034 C369.75520767 -0.03469799 374.34169034 -0.02799364 378.92854536 -0.00681013 C380.58180508 -0.00236674 382.23509985 -0.004559 383.88833678 -0.01431328 C396.62108293 -0.08363564 408.75449101 0.93084119 418.80151367 9.59777832 C426.49413142 17.21253557 430.84623147 25.58676728 431.21221924 36.51895142 C431.22373604 39.24409792 431.21409822 41.96362734 431.18530273 44.68811035 C431.18417239 46.19695505 431.18481176 47.70580195 431.18707275 49.21464539 C431.18821355 53.28230157 431.16480818 57.3494794 431.13677692 61.41702509 C431.11165651 65.67841275 431.10941293 69.93981315 431.10467529 74.20126343 C431.09227662 82.25816794 431.05949743 90.31485359 431.01927733 98.37166202 C430.97446247 107.54943922 430.95254823 116.72722725 430.93249559 125.90508676 C430.89076178 144.77282646 430.82047065 163.64036287 430.73120117 182.50793457 C430.01463097 181.89142029 430.01463097 181.89142029 429.28358459 181.26245117 C428.65536301 180.7227771 428.02714142 180.18310303 427.37988281 179.6270752 C426.75779434 179.09231567 426.13570587 178.55755615 425.49476624 178.0065918 C419.59988842 172.9971927 413.54639709 169.24292578 406.39135742 166.28918457 C405.74815552 166.01880371 405.10495361 165.74842285 404.44226074 165.46984863 C402.87382388 164.81129456 401.30277759 164.15896087 399.73120117 163.50793457 C399.72623595 162.53029664 399.72623595 162.53029664 399.72117043 161.53290844 C399.63999867 145.68423776 399.5479255 129.83567376 399.44367409 113.9871397 C399.39352288 106.32294911 399.3470803 98.65876935 399.30932617 90.99450684 C399.27641559 84.31540785 399.23658964 77.63639231 399.18841112 70.95738536 C399.16313673 67.41992947 399.14135831 63.88252899 399.12785721 60.34500694 C399.11266695 56.39880866 399.08203955 52.45281355 399.05004883 48.50671387 C399.04788864 47.3299559 399.04572845 46.15319794 399.04350281 44.94078064 C399.02675758 43.3316983 399.02675758 43.3316983 399.00967407 41.69010925 C399.00414331 40.75633296 398.99861256 39.82255667 398.9929142 38.86048412 C398.88359515 36.23894612 398.88359515 36.23894612 396.73120117 33.50793457 C393.70283658 33.05057536 393.70283658 33.05057536 390.05633545 33.13041115 C389.359017 33.12605083 388.66169854 33.1216905 387.94324923 33.11719805 C385.58298593 33.1061617 383.22329711 33.11670218 380.86303711 33.12698364 C379.16331557 33.12353037 377.46359626 33.11876805 375.76388168 33.11280191 C371.07475286 33.10021671 366.38580595 33.10649625 361.69667625 33.11576056 C356.64685169 33.12252011 351.59705945 33.11208527 346.54724121 33.1038208 C336.64737908 33.09044806 326.747585 33.09337693 316.84772015 33.10205872 C308.80525337 33.10882097 300.76280572 33.10975833 292.72033691 33.10648727 C291.00643631 33.10579773 291.00643631 33.10579773 289.25791144 33.10509425 C286.93708197 33.10413512 284.6162525 33.10316248 282.29542303 33.10217647 C260.50895893 33.09361221 238.72253264 33.10347295 216.93607473 33.11957757 C198.22323335 33.13298169 179.51044779 33.13065388 160.79760742 33.11682129 C139.0916006 33.10078376 117.38562694 33.09443628 95.67961502 33.10365808 C93.3670985 33.10461378 91.05458197 33.10555689 88.74206543 33.10648727 C87.6041234 33.1069501 86.46618137 33.10741293 85.29375625 33.10788978 C77.25657975 33.11048516 69.21942422 33.1060969 61.18225098 33.09904861 C51.39388166 33.09065367 41.60558455 33.09287134 31.81722355 33.10889085 C26.8185637 33.11680069 21.82002444 33.11981924 16.82136536 33.10994339 C12.25194471 33.10105181 7.68275729 33.10583707 3.11335802 33.12187605 C1.45390699 33.1252475 -0.20556345 33.12347732 -1.86500216 33.11624868 C-4.1082655 33.10722097 -6.35071352 33.11638433 -8.59393311 33.13041115 C-9.84364773 33.13089821 -11.09336235 33.13138526 -12.38094711 33.13188708 C-13.33393818 33.25598275 -14.28692924 33.38007842 -15.26879883 33.50793457 C-17.92651819 37.49451361 -17.55737877 40.97099186 -17.54727173 45.60038757 C-17.55306413 46.54216789 -17.55885653 47.48394821 -17.56482446 48.45426732 C-17.58188751 51.62347647 -17.58470639 54.79254055 -17.58764648 57.96179199 C-17.59694031 60.2282192 -17.60710815 62.49464296 -17.61808777 64.76106262 C-17.64546336 70.92597031 -17.66055955 77.09085505 -17.6735158 83.25580764 C-17.68911333 89.69406892 -17.71591426 96.13228312 -17.74154663 102.57051086 C-17.78306691 113.3806127 -17.81764425 124.19071331 -17.84692383 135.00085449 C-17.87710256 146.13596443 -17.9114497 157.27104863 -17.95141602 168.40612793 C-17.95510834 169.43545915 -17.95510834 169.43545915 -17.95887525 170.48558494 C-17.97124972 173.92810967 -17.98370628 177.3706341 -17.99620366 180.81315839 C-18.09979639 209.37804743 -18.18884384 237.94297014 -18.26879883 266.50793457 C-17.03614288 266.45019867 -15.80348694 266.39246277 -14.53347778 266.33297729 C-2.80039201 265.80123266 8.93019613 265.41404532 20.67268181 265.1608181 C26.70811244 265.02621303 32.7336793 264.84449084 38.76342773 264.54650879 C81.80594155 262.47272248 81.80594155 262.47272248 93.64233398 272.44641113 C99.42780664 277.70172946 104.19296757 283.76292007 108.50637817 290.26052856 C109.24056976 291.00217255 109.97476135 291.74381653 110.73120117 292.50793457 C114.35930719 292.38599913 117.19618234 291.52508549 120.38745117 289.84387207 C121.01780273 289.5267627 121.6481543 289.20965332 122.29760742 288.88293457 C123.5898724 288.21461167 124.87894811 287.5400867 126.16479492 286.85949707 C130.55012369 284.67131666 133.02878569 284.1910177 137.73120117 285.50793457 C138.68687988 285.72062988 138.68687988 285.72062988 139.66186523 285.93762207 C145.91544763 287.42003917 152.4761964 289.2757376 156.29516602 294.74963379 C159.52052754 301.00866869 162.73120117 308.38151671 162.73120117 315.50793457 C181.21120117 315.50793457 199.69120117 315.50793457 218.73120117 315.50793457 C219.06120117 313.85793457 219.39120117 312.20793457 219.73120117 310.50793457 C223.01145664 295.40501829 223.01145664 295.40501829 228.82641602 290.87609863 C234.85926627 287.43545977 241.77748456 284.38265838 248.81323242 284.60559082 C253.40709338 286.02618236 257.65838161 288.0763681 261.98510742 290.15637207 C265.67458275 291.9385021 265.67458275 291.9385021 269.671875 292.4432373 C272.8151188 291.01564193 274.26512874 288.65817486 276.36010742 285.94152832 C292.69127117 265.98443562 292.69127117 265.98443562 305.81713867 264.50012207 C308.94454449 264.28246841 312.03531941 264.25907662 315.16870117 264.32043457 C315.91918732 264.32195526 316.66967346 264.32347595 317.44290161 264.32504272 C325.52503288 264.44903267 331.48255535 265.41710978 337.43432617 271.40637207 C338.15136719 272.27052734 338.8684082 273.13468262 339.60717773 274.02502441 C348.29784789 284.18411815 363.79187932 289.17703289 376.73120117 290.50793457 C392.73057688 291.73193053 409.38294312 287.36343986 421.89526367 277.01965332 C423.5998739 275.47960921 425.27681142 273.90778071 426.91088867 272.29309082 C428.73120117 270.50793457 428.73120117 270.50793457 430.73120117 269.50793457 C430.83116887 273.73964408 430.9031779 277.97070167 430.95092773 282.20324707 C430.97086306 283.63859044 430.99802192 285.07385454 431.03295898 286.50891113 C431.3584058 300.23510902 428.72549985 310.0225856 419.14135742 320.19543457 C412.03298391 326.88566847 402.73566463 329.63733939 393.11869812 329.62818909 C392.00115646 329.62956375 390.88361481 329.63093842 389.73220825 329.63235474 C387.90772659 329.62696182 387.90772659 329.62696182 386.04638672 329.62145996 C384.75818527 329.62160599 383.46998383 329.62175201 382.14274597 329.62190247 C378.61834705 329.62218897 375.09398228 329.61631593 371.56959128 329.60932851 C367.88337614 329.60307057 364.19716019 329.60248924 360.51094055 329.6013031 C353.53415397 329.59819698 346.55738309 329.58999329 339.58060342 329.57995361 C330.15033864 329.56667836 320.72006955 329.56128676 311.28979778 329.55545139 C296.43692049 329.54605292 281.58407632 329.52612919 266.73120117 329.50793457 C266.73120117 348.64793457 266.73120117 367.78793457 266.73120117 387.50793457 C271.30737305 387.46152832 275.88354492 387.41512207 280.59838867 387.36730957 C283.51507833 387.34684693 286.43167822 387.32758963 289.34838867 387.31262207 C293.96771864 387.28880404 298.58672841 387.26077206 303.20581055 387.20617676 C306.93410858 387.16239096 310.66206278 387.13872936 314.3905983 387.1284256 C315.80584238 387.12109238 317.22106982 387.10677378 318.63616562 387.08501434 C331.09383709 386.90125231 339.74716779 388.79099801 348.88354492 397.49230957 C358.67147139 408.17004754 354.73120117 425.91679746 354.73120117 438.50793457 C246.49120117 438.50793457 138.25120117 438.50793457 26.73120117 438.50793457 C26.73120117 403.90793457 26.73120117 403.90793457 34.19604492 395.94543457 C43.16210263 387.50679202 53.10439887 386.93552503 64.92651367 387.11730957 C66.36952931 387.12478669 67.81255522 387.13047265 69.25558472 387.13446045 C73.02047659 387.14960146 76.78473339 387.18878011 80.54937744 387.23327637 C85.08405436 387.28174864 89.61894578 387.29981824 94.15380859 387.3230896 C101.01337869 387.36164145 107.87156036 387.43837202 114.73120117 387.50793457 C114.73120117 368.36793457 114.73120117 349.22793457 114.73120117 329.50793457 C100.66430664 329.57754395 100.66430664 329.57754395 86.31323242 329.64855957 C80.35684777 329.66900806 74.40048872 329.68843068 68.4440918 329.70324707 C58.99877175 329.72693153 49.55359501 329.75469218 40.10839844 329.80969238 C33.22783167 329.8497392 26.34738177 329.87540953 19.46670169 329.88428855 C15.82817172 329.88947336 12.18997589 329.90153578 8.55155373 329.9308548 C4.47562887 329.96342854 0.40027359 329.96388266 -3.67578125 329.96203613 C-4.86334015 329.97641724 -6.05089905 329.99079834 -7.27444458 330.00561523 C-20.02806193 329.94347492 -30.80504843 326.90209289 -39.94458008 317.84777832 C-45.72233869 311.55389239 -49.38413273 304.43137771 -49.40301991 295.81136894 C-49.40747775 294.86557154 -49.41193559 293.91977413 -49.41652852 292.9453162 C-49.41634416 291.90934177 -49.4161598 290.87336735 -49.41596985 289.80599976 C-49.41964654 288.70299502 -49.42332322 287.59999029 -49.42711133 286.46356118 C-49.43815609 282.75422654 -49.44199337 279.04491991 -49.44580078 275.33557129 C-49.45206483 272.68128798 -49.45869878 270.02700766 -49.4657135 267.37272644 C-49.4854641 259.39801064 -49.49554244 251.4232936 -49.50444129 243.44855946 C-49.50882658 239.69120113 -49.51419278 235.9338442 -49.51943016 232.17648697 C-49.5364412 219.68282552 -49.55093472 207.18916495 -49.5581789 194.6954937 C-49.56008873 191.45426304 -49.56200907 188.21303239 -49.56396484 184.97180176 C-49.56444858 184.16623027 -49.56493232 183.36065877 -49.56543072 182.53067602 C-49.5737286 169.48495838 -49.59906195 156.43933251 -49.63154552 143.39365493 C-49.66463843 129.99379112 -49.68262969 116.59397391 -49.68582314 103.19406903 C-49.6879862 95.67301118 -49.69670481 88.15208715 -49.72228432 80.63106918 C-49.74402188 74.22496229 -49.7520268 67.81902172 -49.74231753 61.41288213 C-49.73778154 58.14673704 -49.74181274 54.88100549 -49.75907898 51.61489296 C-49.77678359 48.06689764 -49.76969758 44.51976741 -49.75654602 40.97177124 C-49.76751527 39.94918115 -49.77848451 38.92659105 -49.78978616 37.87301338 C-49.68831455 26.5036529 -45.366568 17.54398543 -37.33911133 9.59777832 C-26.57663681 0.31366569 -13.51386234 -0.07973328 0 0 Z " fill="#aaa" transform="translate(65.268798828125,36.4920654296875)"/>
<path d="M0 0 C1.43352212 0.00015908 2.86704998 0.00585132 4.30053711 0.01586914 C5.43041298 0.01799156 5.43041298 0.01799156 6.58311462 0.02015686 C8.99807646 0.02577163 11.41294687 0.03832656 13.82788086 0.05102539 C15.46134307 0.05603849 17.09480672 0.06060173 18.72827148 0.06469727 C22.74067671 0.07574585 26.75301326 0.09302033 30.76538086 0.11352539 C33.1107304 4.66177687 35.29195765 9.16020482 37.01538086 13.98852539 C37.35053711 14.91407227 37.68569336 15.83961914 38.03100586 16.79321289 C38.76538086 19.11352539 38.76538086 19.11352539 38.76538086 21.11352539 C39.30163086 21.17668945 39.83788086 21.23985352 40.39038086 21.30493164 C49.88875595 22.78905275 59.76387045 26.77918512 67.76538086 32.11352539 C73.72677721 31.7278373 78.41463953 28.96655453 83.64428711 26.29321289 C87.18315398 24.95561866 88.23401976 24.94958459 91.76538086 26.11352539 C95.3026744 28.90434449 98.42760933 32.11697065 101.59692383 35.3137207 C103.13930282 36.86244292 104.70648314 38.38257308 106.27709961 39.90258789 C107.26179118 40.88273525 108.24492058 41.86445506 109.22631836 42.84790039 C110.12141113 43.73703125 111.01650391 44.62616211 111.9387207 45.54223633 C113.76538086 48.11352539 113.76538086 48.11352539 113.63720703 50.74536133 C112.08275632 54.96775614 110.0413666 58.93177529 108.04272461 62.95727539 C106.75411426 66.14136458 106.24633376 67.75282649 106.76538086 71.11352539 C108.1485703 74.33531309 108.1485703 74.33531309 110.01538086 77.67602539 C117.76538086 92.42906106 117.76538086 92.42906106 117.76538086 100.11352539 C118.74571289 100.2662793 118.74571289 100.2662793 119.74584961 100.42211914 C123.67345758 101.32145499 127.32318935 102.72984841 131.07788086 104.17602539 C131.81844727 104.45768555 132.55901367 104.7393457 133.32202148 105.02954102 C135.13780741 105.72071114 136.95177985 106.41664228 138.76538086 107.11352539 C138.76538086 111.73352539 138.76538086 116.35352539 138.76538086 121.11352539 C132.57578382 120.47048532 126.71040032 119.24603919 120.68334961 117.71508789 C119.74735428 117.47946136 118.81135895 117.24383484 117.84700012 117.00106812 C115.88236821 116.50436507 113.91840129 116.005025 111.95507812 115.50317383 C108.94728256 114.73709952 105.93566144 113.98756182 102.92358398 113.23852539 C101.00991687 112.75255186 99.09649618 112.26560667 97.18334961 111.77758789 C96.28335739 111.55559723 95.38336517 111.33360657 94.45610046 111.10488892 C93.20383415 110.77972794 93.20383415 110.77972794 91.92626953 110.44799805 C91.19317062 110.26226227 90.46007172 110.07652649 89.70475769 109.88516235 C87.42494775 108.97807427 86.30775323 108.01165163 84.76538086 106.11352539 C83.81760932 103.66080752 82.96233017 101.23184958 82.14038086 98.73852539 C75.8788865 81.0775927 63.32253783 67.72785156 46.76538086 59.11352539 C29.26292407 51.21632043 9.76763387 48.97333239 -8.77368164 54.78540039 C-18.50767202 58.52079173 -27.39930428 63.13186351 -35.23461914 70.11352539 C-35.89719727 70.68329102 -36.55977539 71.25305664 -37.24243164 71.84008789 C-47.36891062 81.17233323 -53.45892067 93.04135925 -57.23461914 106.11352539 C-57.47954102 106.92821289 -57.72446289 107.74290039 -57.97680664 108.58227539 C-62.78191343 127.80270257 -58.01785516 147.52870642 -48.32446289 164.32397461 C-38.86167073 179.86211676 -22.7294618 190.97430286 -5.35961914 195.98852539 C-1.01435329 197.01949822 3.30322429 197.84333976 7.76538086 198.11352539 C8.62260742 198.16637695 9.47983398 198.21922852 10.36303711 198.27368164 C29.11876673 198.85427623 46.28483184 193.1252595 60.76538086 181.11352539 C61.95344281 179.90574457 63.14101044 178.69747712 64.32788086 177.48852539 C66.25623908 175.83556055 67.17476468 175.08638564 69.75244141 175.20483398 C70.50307861 175.38868652 71.25371582 175.57253906 72.02709961 175.76196289 C72.91067139 175.96837402 73.79424316 176.17478516 74.70458984 176.38745117 C75.71465088 176.62705566 76.72471191 176.86666016 77.76538086 177.11352539 C78.92948486 177.34410645 80.09358887 177.5746875 81.29296875 177.81225586 C84.54797282 178.45836382 87.77632977 179.16095835 91.00756836 179.91333008 C92.34852224 180.21400116 93.69460333 180.4926365 95.04467773 180.74926758 C105.91447996 182.83799531 105.91447996 182.83799531 109.00195312 186.63378906 C111.62770812 191.01410042 113.86300432 196.04637386 113.69824219 201.22290039 C112.26366104 204.13035822 110.16086903 206.0505313 107.85522461 208.31665039 C107.36832657 208.79930359 106.88142853 209.28195679 106.379776 209.77923584 C104.82772636 211.31453389 103.2655595 212.83905464 101.70288086 214.36352539 C100.64685729 215.40449759 99.59151047 216.44615679 98.53686523 217.48852539 C95.95416671 220.03820172 93.36229204 222.57831735 90.76538086 225.11352539 C84.64107746 223.18127212 79.0439311 220.88171609 73.34350586 217.90649414 C69.95336875 216.86377015 68.89845814 217.51699411 65.76538086 219.11352539 C64.56526367 219.64848633 63.36514648 220.18344727 62.12866211 220.73461914 C60.11246054 221.63748404 58.0974116 222.54211293 56.08764648 223.45922852 C53.11711203 224.78233613 50.37856756 225.98714826 47.17944336 226.64648438 C41.96992154 227.69670011 41.96992154 227.69670011 38.22265625 231.22216797 C36.98864539 233.88996253 36.03980326 236.50092422 35.14038086 239.30102539 C34.02663086 242.53915039 32.91288086 245.77727539 31.76538086 249.11352539 C19.88538086 249.11352539 8.00538086 249.11352539 -4.23461914 249.11352539 C-5.18336914 245.93727539 -6.13211914 242.76102539 -7.10961914 239.48852539 C-9.47510697 232.77938411 -9.47510697 232.77938411 -14.20288086 227.67407227 C-18.64372573 225.61299604 -23.33101168 224.66723959 -28.10229492 223.6730957 C-32.13201287 222.61560618 -35.44424753 220.30710646 -38.87524414 218.01977539 C-42.29248006 216.70719471 -43.92009746 217.68244159 -47.23461914 219.11352539 C-50.23747818 220.46447757 -53.23554773 221.81938891 -56.19946289 223.25415039 C-60.70432287 225.29556842 -60.70432287 225.29556842 -63.12353516 224.46508789 C-67.44054349 221.701244 -70.93118707 217.90812813 -74.56347656 214.32006836 C-76.04466132 212.86593832 -77.54805494 211.43754976 -79.05297852 210.00805664 C-80.45193359 208.6294043 -80.45193359 208.6294043 -81.87915039 207.22290039 C-83.16849487 205.96944824 -83.16849487 205.96944824 -84.48388672 204.69067383 C-86.23461914 202.11352539 -86.23461914 202.11352539 -86.1262207 199.0144043 C-85.37682513 196.57620107 -84.67246353 194.72599762 -83.32446289 192.59008789 C-79.21272674 185.73702913 -79.21272674 185.73702913 -78.61206055 178.03735352 C-80.24296403 173.71457687 -82.73430419 169.94568538 -85.18774414 166.05395508 C-86.79384531 163.07697465 -87.28315343 159.90339956 -87.98461914 156.61352539 C-89.1484673 152.96763546 -90.12673378 150.81879326 -93.39916992 148.7355957 C-99.21265418 145.88311861 -105.0068161 144.12249411 -111.23461914 142.11352539 C-111.23461914 130.56352539 -111.23461914 119.01352539 -111.23461914 107.11352539 C-108.32649414 105.95852539 -105.41836914 104.80352539 -102.42211914 103.61352539 C-101.50970459 103.24807617 -100.59729004 102.88262695 -99.65722656 102.50610352 C-98.57211792 102.07974609 -98.57211792 102.07974609 -97.46508789 101.64477539 C-96.72669678 101.35151367 -95.98830566 101.05825195 -95.22753906 100.75610352 C-93.23461914 100.11352539 -93.23461914 100.11352539 -90.23461914 100.11352539 C-89.92524414 98.35008789 -89.92524414 98.35008789 -89.60961914 96.55102539 C-88.59666383 91.96722044 -87.03358951 87.71108149 -85.29711914 83.36352539 C-84.91789307 82.40724243 -84.91789307 82.40724243 -84.53100586 81.43164062 C-83.37919146 78.60973229 -82.22810172 76.10417746 -80.48071289 73.59790039 C-78.6999917 70.0476224 -79.30136505 67.92500117 -80.23461914 64.11352539 C-81.69680121 60.68727713 -83.36296663 57.41946154 -85.05493164 54.10180664 C-86.34646836 50.83019872 -86.50747931 50.25465626 -85.23461914 47.11352539 C-82.40426833 43.65586549 -79.24144202 40.52057368 -76.08935547 37.35742188 C-74.55182746 35.80577694 -73.04294731 34.22949753 -71.53344727 32.65063477 C-70.55658104 31.66137311 -69.57811614 30.67368701 -68.59790039 29.68774414 C-67.27205933 28.33555786 -67.27205933 28.33555786 -65.91943359 26.95605469 C-63.23461914 25.11352539 -63.23461914 25.11352539 -60.1027832 25.23730469 C-55.58739037 26.61675182 -51.54849002 28.79053368 -47.35571289 30.93383789 C-42.5803627 32.73878878 -40.37867582 31.6234478 -35.81665039 29.59008789 C-34.55854624 28.97615566 -33.30209167 28.35883401 -32.04711914 27.73852539 C-18.26765872 21.11352539 -18.26765872 21.11352539 -11.23461914 21.11352539 C-11.06446289 20.50766602 -10.89430664 19.90180664 -10.71899414 19.27758789 C-5.19606853 0.18236636 -5.19606853 0.18236636 0 0 Z " fill="#aaa" transform="translate(242.234619140625,87.886474609375)"/>
<path d="M0 0 C8.60474584 8.60474584 14.53071281 18.81645959 16.8125 30.8125 C28.19161704 33.76153556 39.57121621 36.70870279 50.95141888 39.65354633 C56.23680838 41.02130248 61.52203548 42.38967936 66.80688477 43.75952148 C71.915834 45.08374482 77.02521847 46.40627667 82.13489723 47.72768211 C84.07527779 48.22978839 86.01550605 48.73248361 87.95557213 49.2358036 C98.21291552 51.89649218 108.46588066 54.5174404 118.8125 56.8125 C119.42496582 56.03003906 120.03743164 55.24757813 120.66845703 54.44140625 C128.77673365 44.49948839 141.35677529 39.32830313 153.875 37.875 C168.18510309 37.24786401 181.54621261 41.15347284 192.4921875 50.515625 C199.0949342 57.05167729 204.36365329 64.77432233 206.8125 73.8125 C206.8125 75.1325 206.8125 76.4525 206.8125 77.8125 C200.78678576 77.252545 195.58505874 75.88879531 189.87890625 73.9296875 C171.09214788 66.89434532 171.09214788 66.89434532 152.19140625 69.12890625 C146.97016587 72.9968417 143.42538059 77.4674384 141.8125 83.8125 C141.71470024 91.23114209 144.11737309 97.98933265 146.99194336 104.74389648 C147.8125 106.8125 147.8125 106.8125 147.8125 108.8125 C148.94042969 108.93036865 150.06835938 109.0482373 151.23046875 109.16967773 C155.97291399 109.76515134 160.50815033 110.88298972 165.125 112.09765625 C165.97932617 112.31820175 166.83365234 112.53874725 167.71386719 112.76597595 C170.41464605 113.4643194 173.11357275 114.16953831 175.8125 114.875 C177.65482938 115.35267095 179.49727626 115.82988896 181.33984375 116.30664062 C185.83210439 117.47002901 190.32271837 118.63958264 194.8125 119.8125 C194.8125 123.8125 194.8125 123.8125 193.01171875 125.77734375 C180.78643422 135.37885027 168.4080103 140.04837063 152.8125 138.8125 C138.35182789 136.58056747 125.94731792 129.88748385 117.125 118.1875 C112.71945681 111.59939413 108.8125 103.83250188 108.8125 95.8125 C108.25554443 95.72835342 107.69858887 95.64420685 107.12475586 95.55751038 C97.05650246 93.88716503 87.24175116 91.19067767 77.375 88.62109375 C75.40258828 88.11036626 73.43009337 87.59995998 71.45751953 87.08985901 C67.34524104 86.02559659 63.23363404 84.95879259 59.12255859 83.88989258 C53.84974671 82.51895535 48.57581 81.15240885 43.30143738 79.78748989 C38.2630819 78.48347571 33.22526151 77.17740037 28.1875 75.87109375 C27.22667511 75.62211271 26.26585022 75.37313168 25.27590942 75.11660576 C22.56645576 74.41407727 19.85738454 73.71009441 17.1484375 73.00561523 C16.34428909 72.79728561 15.54014069 72.58895599 14.71162415 72.37431335 C11.71330751 71.593257 8.75287924 70.79262641 5.8125 69.8125 C5.42191406 70.69808594 5.42191406 70.69808594 5.0234375 71.6015625 C0.22227368 80.36755838 -10.89237949 85.23098083 -20.01953125 87.95703125 C-34.05410389 91.21999444 -48.56862206 88.92406344 -60.9375 81.6875 C-70.41499737 75.18982713 -77.19208764 66.61438269 -81.1875 55.8125 C-81.5822295 53.48876504 -81.9307334 51.15549519 -82.1875 48.8125 C-65.79393075 52.56524477 -49.49640456 56.7110202 -33.1875 60.8125 C-30.42518944 58.26098079 -27.74032569 55.6398265 -25.0625 53 C-24.28261719 52.28134766 -23.50273437 51.56269531 -22.69921875 50.82226562 C-18.41591297 46.61214773 -18.41591297 46.61214773 -17.08447266 40.97485352 C-17.58168135 38.14677052 -18.27860903 35.53406073 -19.1875 32.8125 C-19.46851563 31.78253906 -19.74953125 30.75257813 -20.0390625 29.69140625 C-20.42191406 28.54478516 -20.42191406 28.54478516 -20.8125 27.375 C-21.88492543 24.15241467 -22.1875 22.32912803 -22.1875 18.8125 C-22.75315674 18.72758301 -23.31881348 18.64266602 -23.90161133 18.55517578 C-33.72336112 16.93182361 -43.26925818 14.25773573 -52.875 11.6875 C-54.65549497 11.21445217 -56.43609318 10.74179276 -58.21679688 10.26953125 C-62.5415679 9.12166212 -66.86490782 7.9685458 -71.1875 6.8125 C-65.82262128 -2.51705944 -56.1030147 -6.79350487 -46.1875 -10.1875 C-29.55138345 -14.44074663 -13.71938344 -9.41526315 0 0 Z " fill="#aaa" transform="translate(289.1875,174.1875)"/>
<path d="M0 0 C29.44523471 6.44523471 29.44523471 6.44523471 31 8 C31.07271741 10.35313555 31.08370868 12.70833668 31.0625 15.0625 C31.05347656 16.35285156 31.04445313 17.64320313 31.03515625 18.97265625 C31.02355469 19.97167969 31.01195312 20.97070312 31 22 C23.84207622 20.92229013 16.87044864 19.27012526 9.875 17.4375 C9.02123779 17.21553955 8.16747559 16.9935791 7.2878418 16.76489258 C6.48902588 16.55243896 5.69020996 16.33998535 4.8671875 16.12109375 C4.14644043 15.9295874 3.42569336 15.73808105 2.68310547 15.54077148 C1 15 1 15 0 14 C-0.07271741 11.64686445 -0.08370868 9.29166332 -0.0625 6.9375 C-0.05347656 5.64714844 -0.04445313 4.35679687 -0.03515625 3.02734375 C-0.02355469 2.02832031 -0.01195312 1.02929688 0 0 Z " fill="#aaa" transform="translate(465,260)"/>
</svg>
