<?xml version="1.0" encoding="UTF-8"?>
<svg version="1.1" xmlns="http://www.w3.org/2000/svg" width="512" height="512">
<path d="M0 0 C0.74900574 0.0028299 1.49801147 0.00565979 2.26971436 0.00857544 C4.65393276 0.0197399 7.03777079 0.04483719 9.421875 0.0703125 C11.04166123 0.08034715 12.66145336 0.08947215 14.28125 0.09765625 C18.24493746 0.11966695 22.20834181 0.15417075 26.171875 0.1953125 C26.18589355 2.13180664 26.18589355 2.13180664 26.20019531 4.10742188 C26.24024061 8.92352066 26.30603985 13.73899041 26.37939453 18.5546875 C26.40751999 20.63403202 26.42877621 22.71348179 26.44287109 24.79296875 C26.46441738 27.79221142 26.51112776 30.79019995 26.5625 33.7890625 C26.56372864 34.71021851 26.56495728 35.63137451 26.56622314 36.58044434 C26.71414318 43.18411434 27.98670356 48.75326129 32.58331299 53.72058105 C38.09950584 58.59939915 43.15833338 59.49760548 50.31640625 59.609375 C51.08619308 59.62874115 51.85597992 59.6481073 52.64909363 59.6680603 C55.09407671 59.72756873 57.53910762 59.77412545 59.984375 59.8203125 C61.64780634 59.85851881 63.31121847 59.89757207 64.97460938 59.9375 C69.04020741 60.03324633 73.10589801 60.11738259 77.171875 60.1953125 C77.55170532 61.01153076 77.55170532 61.01153076 77.93920898 61.84423828 C78.28282471 62.5607959 78.62644043 63.27735352 78.98046875 64.015625 C79.48404907 65.07934326 79.48404907 65.07934326 79.99780273 66.16455078 C82.39537284 70.31156432 86.24253793 72.57575445 90.171875 75.1953125 C90.7265625 77.2265625 90.7265625 77.2265625 91.046875 79.6953125 C92.48646601 87.79447495 95.60045518 94.82736816 102.203125 99.953125 C105.05591437 101.75309925 108.02698817 103.08860936 111.15625 104.3359375 C114.33714141 105.69213151 115.92775094 106.64461404 117.34765625 109.84765625 C117.91033203 111.47380859 117.91033203 111.47380859 118.484375 113.1328125 C124.46006093 129.17373934 134.89648151 144.33899584 150.734375 152.1328125 C156.96261166 154.05790383 161.18660447 153.90823219 167.046875 151.2578125 C172.87129026 148.09061895 177.49883733 143.85253617 182.171875 139.1953125 C182.79964844 138.59074219 183.42742187 137.98617187 184.07421875 137.36328125 C191.13016435 130.01933787 195.97607615 120.12134307 199.109375 110.5078125 C200.14818223 107.71457528 200.70487335 106.50754675 203.19921875 104.83984375 C205.49523632 103.84273795 207.80690656 103.01252673 210.171875 102.1953125 C217.52451428 98.15856936 221.95218406 91.96679885 224.6796875 84.13671875 C225.30330274 81.94224876 225.30330274 81.94224876 225.359375 78.5703125 C226.4368706 74.09456156 228.46186315 73.2103204 232.1640625 70.7421875 C235.26523491 68.35295739 236.48854807 65.69663252 238.171875 62.1953125 C238.501875 61.5353125 238.831875 60.8753125 239.171875 60.1953125 C240.19023437 60.1859668 241.20859375 60.17662109 242.2578125 60.16699219 C246.0676508 60.12685631 249.87670145 60.06103487 253.68603516 59.98779297 C255.32883519 59.95971919 256.97176689 59.93843755 258.61474609 59.92431641 C260.98863473 59.90269629 263.36096292 59.8559549 265.734375 59.8046875 C266.82081299 59.80284454 266.82081299 59.80284454 267.92919922 59.80096436 C273.92470711 59.63210353 279.22284854 57.91056322 283.70483398 53.78387451 C289.15906759 47.58175504 289.48862574 41.97264048 289.5859375 34.08203125 C289.60530365 33.11248001 289.6246698 32.14292877 289.6446228 31.14399719 C289.70424936 28.05702422 289.7507364 24.97001362 289.796875 21.8828125 C289.83507034 19.78579132 289.87412298 17.68878556 289.9140625 15.59179688 C290.00993709 10.45976119 290.09403077 5.32765207 290.171875 0.1953125 C295.10146622 0.14588351 300.03091325 0.10957932 304.96069336 0.08544922 C306.63780225 0.07539013 308.31489361 0.06174128 309.99194336 0.04443359 C312.40222502 0.02018098 314.81227486 0.0088286 317.22265625 0 C318.34780388 -0.01548386 318.34780388 -0.01548386 319.49568176 -0.03128052 C323.27488279 -0.0320955 324.94601899 0.04474183 328.171875 2.1953125 C328.46853134 4.82859585 328.5674776 7.22745963 328.53936768 9.86328125 C328.54427094 11.06429222 328.54427094 11.06429222 328.54927325 12.28956604 C328.55658867 14.98750432 328.54236397 17.68490692 328.52832031 20.3828125 C328.5291107 22.31087334 328.53120644 24.23893403 328.53451538 26.16699219 C328.53966319 31.41485006 328.52608654 36.66251289 328.50898838 41.91033936 C328.49398928 47.39204443 328.49512728 52.87374659 328.49432373 58.35546875 C328.49062739 67.56253402 328.47564168 76.76952492 328.453125 85.9765625 C328.42425123 97.80738256 328.41390247 109.63814267 328.4094429 121.46899414 C328.40546699 131.62262713 328.39296385 141.77624699 328.37909603 151.92987061 C328.37499148 155.20210744 328.37206866 158.47434382 328.36930084 161.74658203 C328.36441694 166.88140655 328.35422892 172.0161945 328.33986282 177.15100098 C328.33532993 179.04007639 328.33249883 180.92915674 328.33145523 182.8182373 C328.32971663 185.38797653 328.32185255 187.95762339 328.31231689 190.52734375 C328.31361662 191.66049767 328.31361662 191.66049767 328.3149426 192.81654358 C328.28608276 197.96689698 328.28608276 197.96689698 327.171875 200.1953125 C215.631875 200.1953125 104.091875 200.1953125 -10.828125 200.1953125 C-12.36666382 197.11823486 -11.96137342 193.88989877 -11.94837952 190.5138855 C-11.94923394 189.71180039 -11.95008837 188.90971527 -11.95096868 188.08332455 C-11.95262302 185.38088545 -11.94710286 182.67850766 -11.94165039 179.97607422 C-11.94136848 178.0447693 -11.94152632 176.11346428 -11.9420929 174.18215942 C-11.94238073 168.92623781 -11.93648625 163.67033885 -11.92951894 158.41442251 C-11.92328308 152.92643949 -11.92268142 147.43845599 -11.92149353 141.95046997 C-11.9183809 131.55240355 -11.91016843 121.15434759 -11.90014404 110.75628579 C-11.88898079 98.92091581 -11.88347192 87.08554535 -11.87844861 75.25017142 C-11.86798577 50.89854597 -11.85038764 26.54692982 -11.828125 2.1953125 C-7.86435787 -0.00418538 -4.44883237 -0.06351226 0 0 Z " fill="#000000" transform="translate(97.828125,204.8046875)"/>
<path d="M0 0 C2.33735193 1.36464734 4.40730871 2.70759639 6.5625 4.3125 C7.46669678 4.97258057 7.46669678 4.97258057 8.38916016 5.64599609 C14.5289748 10.22644191 20.12417425 15.3442736 25.61914062 20.67041016 C26.79570007 21.80328546 27.99699623 22.91037777 29.203125 24.01171875 C58.51198618 51.4738834 71.73988801 97.03409551 73.06851196 136.00982666 C73.21429555 141.75610963 73.24612616 147.50207429 73.25 153.25 C73.25067474 154.15394501 73.25134949 155.05789001 73.25204468 155.98922729 C73.16531926 229.66936149 73.16531926 229.66936149 61 254 C58.01676207 254.99441264 56.06556846 255.12569042 52.9519043 255.12698364 C51.90876068 255.12980347 50.86561707 255.13262329 49.79086304 255.13552856 C48.07487411 255.13249222 48.07487411 255.13249222 46.32421875 255.12939453 C44.51662582 255.13202301 44.51662582 255.13202301 42.67251587 255.13470459 C39.3667904 255.13835518 36.06112741 255.13749449 32.75540543 255.1343255 C29.29746669 255.13179547 25.83953064 255.13414124 22.3815918 255.13571167 C16.57437663 255.13753148 10.76717418 255.13513199 4.95996094 255.13037109 C-1.75595652 255.12492883 -8.47184363 255.12669162 -15.18776035 255.1321975 C-20.95172924 255.13673399 -26.71568898 255.13737654 -32.47965908 255.13475883 C-35.92318151 255.13319902 -39.36668967 255.13299423 -42.81021118 255.13629532 C-46.64822573 255.13971752 -50.48620621 255.13497551 -54.32421875 255.12939453 C-55.46821136 255.13141876 -56.61220398 255.13344299 -57.79086304 255.13552856 C-58.83400665 255.13270874 -59.87715027 255.12988892 -60.9519043 255.12698364 C-61.8596611 255.12660662 -62.76741791 255.12622959 -63.7026825 255.12584114 C-66 255 -66 255 -69 254 C-71.01999944 250.12366366 -71.65798479 246.04722943 -72.40234375 241.76953125 C-72.52471405 241.06983719 -72.64708435 240.37014313 -72.77316284 239.64924622 C-73.16833182 237.37147815 -73.55381252 235.09222846 -73.9375 232.8125 C-74.07006195 232.03388611 -74.2026239 231.25527222 -74.33920288 230.45306396 C-76.73135621 216.35474765 -78.67895573 202.24303872 -80 188 C-80.0942627 187.03771484 -80.18852539 186.07542969 -80.28564453 185.08398438 C-81.16731734 175.14742138 -81.24329073 165.21849508 -81.25 155.25 C-81.25067474 154.34470551 -81.25134949 153.43941101 -81.25204468 152.50668335 C-81.19449609 103.72968581 -69.50217478 57.75679931 -35 22 C-34.33484375 21.28328125 -33.6696875 20.5665625 -32.984375 19.828125 C-27.24836116 13.80290038 -20.69727398 8.89512892 -14 4 C-12.81083984 3.11828125 -12.81083984 3.11828125 -11.59765625 2.21875 C-7.24259739 -0.79050372 -5.06271628 -1.40217387 0 0 Z M-36.1796875 81.66796875 C-43.06010955 90.4825867 -47.24563578 101.74973403 -46 113 C-44.00224428 125.10404936 -38.79311713 135.36857428 -29 143 C-18.55008953 149.33754678 -7.98521579 152.92384182 4.2109375 150.3125 C11.35865307 148.313139 17.23209224 145.68005089 23 141 C23.62519531 140.49855469 24.25039063 139.99710937 24.89453125 139.48046875 C33.59028172 131.6940778 37.38275356 120.53040653 38.3125 109.1875 C37.88398523 96.50850429 32.48675469 85.46741265 23.33203125 76.8203125 C4.55509801 62.16361084 -19.928496 64.46275993 -36.1796875 81.66796875 Z " fill="#000000" transform="translate(260,11)"/>
<path d="M0 0 C1.24467545 -0.00043808 1.24467545 -0.00043808 2.51449585 -0.00088501 C5.24699496 0.00050417 7.97921866 0.01604595 10.71166992 0.03173828 C12.61024324 0.03546988 14.50881848 0.03831616 16.40739441 0.04031372 C21.39689479 0.04793864 26.38627817 0.06757736 31.37573242 0.08972168 C36.47011736 0.11020468 41.56452127 0.11932069 46.65893555 0.12939453 C56.64922124 0.1508243 66.63942021 0.1849465 76.62963867 0.22705078 C75.08686884 3.38623399 73.33307649 6.23879368 71.37963867 9.16455078 C66.94205491 16.06230128 63.22722031 23.43430586 60.62963867 31.22705078 C59.39922852 31.23639648 58.16881836 31.24574219 56.90112305 31.25537109 C52.30864089 31.29543303 47.71681725 31.36123644 43.12475586 31.43457031 C41.14242045 31.46268625 39.15997488 31.48394717 37.17749023 31.49804688 C34.31721992 31.5196067 31.45826097 31.56632293 28.59838867 31.61767578 C27.282276 31.61951874 27.282276 31.61951874 25.9395752 31.62139893 C19.44045061 31.77391446 14.07686144 33.20049997 9.10266113 37.56768799 C3.87819499 43.27211618 3.33074186 50.01011508 3.36894226 57.41795349 C3.36511671 58.21458265 3.36129117 59.01121181 3.35734969 59.83198124 C3.34707699 62.48644438 3.35100088 65.14068889 3.35498047 67.79516602 C3.35063085 69.70437825 3.34544686 71.61358873 3.3394928 73.52279663 C3.32611914 78.69839376 3.32552227 83.8739178 3.3280561 89.04952884 C3.32912682 93.37360313 3.32423989 97.69766269 3.31945068 102.02173382 C3.30836134 112.22405449 3.307915 122.42633833 3.31396484 132.62866211 C3.32000626 143.14704659 3.30768801 153.66529735 3.28639477 164.18365902 C3.26877242 173.22165098 3.26277839 182.2596004 3.26603252 191.29760891 C3.26784435 196.69243034 3.26521898 202.08715636 3.25131798 207.4819622 C3.23873384 212.55536581 3.24068937 217.62856107 3.25372887 222.70196152 C3.25609283 224.56111153 3.25336642 226.42027624 3.24510574 228.27940941 C3.23462137 230.8229016 3.24275224 233.36569685 3.25541687 235.90916443 C3.24804259 236.63982178 3.2406683 237.37047912 3.23307055 238.1232776 C3.30935828 245.43679483 5.43113236 251.87564723 10.62963867 257.22705078 C15.54525215 260.66798022 19.45814968 261.35125083 25.38094807 261.35847855 C26.56198307 261.36231969 27.74301808 261.36616084 28.95984203 261.37011838 C30.25855635 261.3692519 31.55727067 261.36838542 32.89533997 261.36749268 C34.2879867 261.3700765 35.68063269 261.37308972 37.07327765 261.37649608 C40.90446163 261.38456713 44.73562688 261.38635571 48.56681836 261.38709354 C52.69712332 261.38894389 56.82741855 261.3964911 60.9577179 261.40322876 C69.99071947 261.41681293 79.02371661 261.42283681 88.05672669 261.42723942 C93.69585085 261.43000146 99.3349733 261.43423872 104.9740963 261.43874359 C120.58428369 261.45093592 136.1944697 261.4612356 151.80466175 261.46461868 C153.30338853 261.46494803 153.30338853 261.46494803 154.83239261 261.46528403 C156.33472032 261.46561145 156.33472032 261.46561145 157.86739808 261.46594548 C159.89695029 261.46638895 161.92650249 261.46683551 163.95605469 261.46728516 C165.46614911 261.4676173 165.46614911 261.4676173 167.00675049 261.46795616 C183.32330063 261.47190508 199.63980614 261.48936216 215.95633904 261.51264468 C232.70441505 261.5363503 249.45246864 261.54882016 266.2005617 261.5499866 C275.60558833 261.55090376 285.01055678 261.55666638 294.4155674 261.57480621 C302.42325674 261.59019649 310.43086993 261.59533398 318.43857125 261.58706811 C322.52448628 261.58315792 326.6102479 261.58410918 330.6961441 261.59812546 C334.43737895 261.61084212 338.17834476 261.60968668 341.91957911 261.59753475 C343.91246514 261.59464569 345.90535572 261.60653039 347.8982051 261.6189568 C356.72981061 261.57000319 363.05365786 260.62036546 369.62963867 254.22705078 C373.15791192 248.17858236 373.77814536 243.29960896 373.77008057 236.39691162 C373.77305169 235.60284574 373.77602281 234.80877985 373.77908397 233.99065137 C373.78776315 231.3269275 373.78927856 228.66324861 373.79077148 225.99951172 C373.79540022 224.09074304 373.80042496 222.18197529 373.80581665 220.27320862 C373.81893755 215.08505761 373.82538504 209.89691955 373.82982731 204.70875454 C373.83275861 201.46702081 373.83686354 198.22529061 373.84133148 194.98355865 C373.85500577 184.83984034 373.86467269 174.6961301 373.86853337 164.55240321 C373.8730137 152.8450475 373.89056076 141.13780856 373.91953397 129.43048835 C373.94115457 120.37982435 373.95123786 111.3291932 373.95257449 102.27850366 C373.95362227 96.87356849 373.95952438 91.46874311 373.9773941 86.06383514 C373.99388119 80.97817182 373.99602713 75.89270073 373.9872551 70.80702019 C373.98648506 68.94303052 373.99082303 67.07903049 374.00071335 65.21506691 C374.01344863 62.66485831 374.00754763 60.11532895 373.99713135 57.56512451 C374.00518775 56.8324208 374.01324416 56.0997171 374.02154469 55.34481025 C373.96010857 48.88665159 372.2877637 43.12371065 368.37963867 37.91455078 C362.51971614 32.1878083 356.57757564 31.77194286 348.75854492 31.71533203 C347.83621567 31.69738083 346.91388641 31.67942963 345.96360779 31.66093445 C343.03983019 31.60708342 340.11621347 31.57301693 337.19213867 31.53955078 C335.20057995 31.50635544 333.20904239 31.47186374 331.2175293 31.43603516 C326.35501564 31.35137153 321.4925476 31.28444053 316.62963867 31.22705078 C316.30350586 30.42895996 315.97737305 29.63086914 315.64135742 28.80859375 C311.6357519 19.08554761 307.57342382 10.1919808 300.62963867 2.22705078 C300.62963867 1.56705078 300.62963867 0.90705078 300.62963867 0.22705078 C311.57402339 0.13421256 322.51831382 0.0632156 333.4630127 0.01980209 C338.54555204 -0.00103833 343.6278212 -0.02929116 348.71020508 -0.07470703 C353.61854698 -0.11829127 358.52662961 -0.14211298 363.43515015 -0.15245819 C365.30418985 -0.15982701 367.17321598 -0.17421659 369.04214478 -0.19586945 C371.66797114 -0.22507098 374.29273756 -0.22889829 376.91870117 -0.22705078 C377.68475174 -0.24143188 378.45080231 -0.25581299 379.24006653 -0.27062988 C385.34584747 -0.22439802 390.55543722 1.46439877 395.16152954 5.60369492 C400.93747814 12.04727144 400.91732669 18.79561723 400.87014771 26.97103882 C400.87271576 28.59190399 400.87271576 28.59190399 400.87533569 30.24551392 C400.87864621 33.87793573 400.86759866 37.51017316 400.85668945 41.14257812 C400.85607682 43.78656225 400.85625491 46.43053539 400.85741997 49.0745182 C400.85848249 55.44115704 400.84925562 61.80773938 400.83641731 68.17436371 C400.82200955 75.53999075 400.82042738 82.90559807 400.81884766 90.27124023 C400.80834971 109.7148527 400.78042745 129.15845259 400.75463867 148.60205078 C400.71338867 192.03830078 400.67213867 235.47455078 400.62963867 280.22705078 C260.70963867 280.22705078 120.78963867 280.22705078 -23.37036133 280.22705078 C-23.43223633 236.83205078 -23.49411133 193.43705078 -23.55786133 148.72705078 C-23.58517334 135.01722656 -23.61248535 121.30740234 -23.640625 107.18212891 C-23.6541748 90.46044922 -23.6541748 90.46044922 -23.6566925 82.6361084 C-23.65949117 77.16308697 -23.67050012 71.69015451 -23.68708801 66.21716309 C-23.70619329 59.90424781 -23.71486699 53.59142061 -23.71069618 47.27847621 C-23.70889002 44.04956933 -23.71341695 40.82089899 -23.72800672 37.59201908 C-23.74291706 34.1317014 -23.73933554 30.67187674 -23.73112488 27.21154785 C-23.73986287 26.20792961 -23.74860086 25.20431137 -23.75760365 24.17028046 C-23.71526879 17.53693644 -23.07125238 11.54236255 -18.72192383 6.20361328 C-18.1521582 5.75759766 -17.58239258 5.31158203 -16.99536133 4.85205078 C-16.43075195 4.39056641 -15.86614258 3.92908203 -15.28442383 3.45361328 C-10.31340975 0.2681063 -5.78821757 -0.05357689 0 0 Z " fill="#000000" transform="translate(67.370361328125,158.77294921875)"/>
<path d="M0 0 C1.55829104 0.00138269 1.55829104 0.00138269 3.14806271 0.00279331 C4.92971828 0.00073132 4.92971828 0.00073132 6.74736691 -0.00137234 C8.71965519 0.00402058 8.71965519 0.00402058 10.73178768 0.00952244 C12.12108006 0.00980431 13.51037259 0.00964658 14.89966488 0.00907993 C18.6825558 0.00879195 22.46541529 0.01468882 26.24829888 0.02165389 C30.19745968 0.02788728 34.14662113 0.02849122 38.09578609 0.0296793 C45.57915367 0.03279266 53.0625067 0.04100611 60.54586786 0.05102879 C69.06326025 0.06218978 77.58065332 0.06770034 86.09805119 0.07272422 C103.62367685 0.08318872 121.14928835 0.10078825 138.67490292 0.12304783 C138.72678768 1.22294041 138.77867245 2.32283298 138.83212948 3.45605564 C138.90954006 4.91278209 138.98736119 6.36948676 139.06552792 7.82617283 C139.09856014 8.54949802 139.13159237 9.27282322 139.16562557 10.01806736 C139.56142318 17.10203683 140.93338233 21.51860327 146.17490292 26.49804783 C146.99990292 27.03429783 147.82490292 27.57054783 148.67490292 28.12304783 C149.22105377 28.48090901 149.76720463 28.8387702 150.32990551 29.20747566 C153.74130967 30.53941176 157.08538194 30.40865619 160.69486141 30.39720249 C161.50934506 30.40243917 162.3238287 30.40767585 163.16299367 30.41307122 C165.89585406 30.4280889 168.62852751 30.42877676 171.36142635 30.42944431 C173.31945773 30.43706468 175.27748611 30.44549197 177.23551083 30.45466709 C182.55796117 30.4766328 187.88035406 30.48541395 193.20284462 30.49049354 C196.52833839 30.49413507 199.85381706 30.50037412 203.17930508 30.50749493 C214.78168557 30.53199795 226.38402131 30.54504288 237.98642635 30.54858494 C248.79963097 30.55221945 259.6125516 30.58210673 270.42566943 30.62398952 C279.70988461 30.65868901 288.99400568 30.67413333 298.27828526 30.67483097 C303.82302186 30.67562399 309.36746936 30.68437396 314.91213894 30.71282864 C320.12923246 30.73900275 325.34579709 30.74121792 330.56292629 30.725173 C332.47529917 30.72335792 334.3877024 30.73005452 336.30000973 30.74599171 C338.91630018 30.76646242 341.53074189 30.75589551 344.14700985 30.73777866 C344.8991683 30.75097863 345.65132675 30.7641786 346.42627788 30.77777857 C352.19964418 30.68681615 356.20984694 28.76579243 360.67490292 25.12304783 C365.06760049 19.49138428 365.86656623 14.89633474 366.23740292 7.93554783 C366.28058651 7.18595798 366.3237701 6.43636814 366.36826229 5.66406345 C366.47412977 3.81726408 366.57500051 1.97017949 366.67490292 0.12304783 C385.04174673 0.09971979 403.40858671 0.08206912 421.77544212 0.07123566 C430.30288786 0.0660725 438.83032441 0.05902942 447.35776424 0.04760838 C454.78756547 0.03766215 462.21736004 0.03119455 469.64716774 0.02895933 C473.58363611 0.02765212 477.52008545 0.02456562 481.45654774 0.01731777 C485.15743619 0.01055852 488.85829767 0.00843067 492.5591917 0.00994015 C494.57361093 0.00953145 496.58802719 0.00413576 498.60243893 -0.00137234 C499.79020931 0.00000233 500.9779797 0.00137699 502.20174313 0.00279331 C503.24060382 0.00187152 504.27946451 0.00094973 505.34980583 0 C507.67490292 0.12304783 507.67490292 0.12304783 508.67490292 1.12304783 C508.81308085 3.57384797 508.88800968 5.99446119 508.91318417 8.44726658 C508.92125591 9.18628712 508.92932766 9.92530766 508.937644 10.68672276 C508.95150348 12.25621273 508.96221727 13.82573309 508.97006893 15.39526463 C508.98720977 17.78363488 509.03106674 20.1705947 509.07529354 22.5585947 C509.08542673 24.08397515 509.09394087 25.60936738 509.10068417 27.13476658 C509.11819225 27.84437031 509.13570034 28.55397404 509.15373898 29.28508091 C509.12838537 35.15232486 507.09693591 38.62995275 503.07724667 42.76757908 C497.89591372 46.89882855 494.15540482 47.26923336 487.73247719 47.25447559 C486.91026362 47.25652823 486.08805006 47.25858086 485.24092093 47.2606957 C482.46195739 47.26638901 479.68304305 47.26490558 476.90407467 47.26348972 C474.9011081 47.26607202 472.89814204 47.2690848 470.89517671 47.27249312 C465.37237099 47.28058223 459.84957826 47.28235376 454.32676733 47.28309059 C448.37777091 47.28493782 442.42878129 47.29248344 436.47978878 47.29922581 C422.78444932 47.3135322 409.08911082 47.31933728 395.3937656 47.32391775 C388.62823451 47.32625268 381.86270428 47.3298552 375.09717385 47.33361313 C351.9447128 47.34644898 328.79225221 47.35716848 305.63978767 47.36061573 C304.18610653 47.36083736 302.73242538 47.36105915 301.27874424 47.36128108 C299.82152437 47.36150172 298.36430451 47.36172221 296.90708464 47.36194253 C293.98358071 47.36238509 291.06007677 47.3628322 288.13657284 47.3632822 C287.04928233 47.36344629 287.04928233 47.36344629 285.94002637 47.36361369 C262.4301206 47.36724528 238.92024565 47.38316901 215.41035169 47.40647257 C190.56271245 47.43105717 165.71509084 47.44478792 140.86743909 47.44598365 C138.14089477 47.44615511 135.41435045 47.44637054 132.68780613 47.44661808 C132.01643904 47.44667385 131.34507194 47.44672962 130.65336039 47.44678708 C119.839807 47.44793868 109.02628519 47.45896985 98.21274247 47.47350514 C87.34810075 47.48785682 76.48350154 47.4908617 65.61885305 47.48306516 C59.7305993 47.47914806 53.84245201 47.48013983 47.95421124 47.49412251 C42.56737336 47.50679789 37.18072265 47.50572016 31.79388527 47.49353179 C29.84165861 47.49156372 27.88941897 47.49470403 25.93721058 47.50337616 C23.28952835 47.51439617 20.64251513 47.50703219 17.99485207 47.49498463 C17.23175981 47.50257982 16.46866755 47.51017501 15.68245128 47.51800036 C10.07271076 47.46265783 5.93407774 46.24960862 1.81162167 42.36914158 C1.33337948 41.77230564 0.85513729 41.1754697 0.36240292 40.56054783 C-0.1287299 39.96113377 -0.61986271 39.3617197 -1.12587833 38.74414158 C-3.78491875 35.14967327 -3.46984143 31.82985022 -3.45790958 27.52539158 C-3.45934467 26.40119564 -3.45934467 26.40119564 -3.46080875 25.25428867 C-3.46148949 23.66976939 -3.4596426 22.08524731 -3.45546818 20.50073338 C-3.45011092 18.06683228 -3.45542056 15.6331151 -3.46181583 13.1992197 C-3.46115518 11.66210992 -3.45987428 10.12500025 -3.45790958 8.58789158 C-3.45993382 7.85561848 -3.46195805 7.12334538 -3.46404362 6.36888218 C-3.43511535 0.18179176 -3.43511535 0.18179176 0 0 Z " fill="#000000" transform="translate(3.32509708404541,454.8769521713257)"/>
<path d="M0 0 C64.68 0 129.36 0 196 0 C196 4.95 196 9.9 196 15 C192.96382836 16.51808582 189.81422556 16.13702465 186.48388672 16.12698364 C185.30737706 16.12932363 185.30737706 16.12932363 184.10709953 16.13171089 C181.46461005 16.13571684 178.82217747 16.13253279 176.1796875 16.12939453 C174.29103563 16.13074875 172.40238402 16.1325288 170.51373291 16.13470459 C165.37337857 16.13927646 160.23304422 16.13749037 155.09268951 16.1343255 C149.72308802 16.13180064 144.35348828 16.1341398 138.98388672 16.13571167 C129.96516613 16.13753299 120.94645372 16.13512803 111.92773438 16.13037109 C101.48833753 16.12492855 91.0489602 16.12669123 80.60956383 16.1321975 C71.66009542 16.13672968 62.7106329 16.13737866 53.76116371 16.13475883 C48.41008814 16.13319664 43.05902176 16.13300072 37.70794678 16.13629532 C32.67819043 16.13917555 27.64845936 16.13719551 22.61870575 16.13140106 C20.76832878 16.13007429 18.91794969 16.13046619 17.06757355 16.13266373 C14.55039102 16.13537844 12.03329052 16.13199011 9.51611328 16.12698364 C8.40630506 16.13032973 8.40630506 16.13032973 7.27407646 16.13374341 C2.22830015 16.11415008 2.22830015 16.11415008 0 15 C0 10.05 0 5.1 0 0 Z " fill="#000000" transform="translate(158,455)"/>
<path d="M0 0 C6.17589504 4.18489808 10.55772659 9.51650589 12 17 C12.67674562 26.11003724 12.02911664 33.30593242 6.4375 40.6875 C0.70154739 46.80210963 -5.67973926 49.29038082 -14 49.625 C-22.32026074 49.29038082 -28.70154739 46.80210963 -34.4375 40.6875 C-39.98165759 33.36858374 -40.87932325 26.04970177 -40 17 C-38.62401127 10.24618864 -34.79886614 4.71347581 -29.1953125 0.7109375 C-20.55198752 -4.44538083 -8.86231376 -5.09152367 0 0 Z " fill="#000000" transform="translate(270,97)"/>
<path d="M0 0 C12.52264154 10.20910667 19.62109011 23.28458932 23 39 C23.36530563 42.71091711 23.37674442 46.37527683 23.328125 50.1015625 C23.32625183 51.10464447 23.32437866 52.10772644 23.32244873 53.14120483 C23.31578395 55.23691184 23.30198263 57.33260761 23.28125 59.42822266 C23.24974111 62.65148339 23.24023662 65.87425586 23.234375 69.09765625 C23.22521771 71.14063103 23.21484605 73.18360082 23.203125 75.2265625 C23.19675018 76.67634995 23.19675018 76.67634995 23.19024658 78.15542603 C23.18063904 79.04080048 23.17103149 79.92617493 23.16113281 80.83837891 C23.15430481 81.6201651 23.14747681 82.40195129 23.14044189 83.20742798 C23 85 23 85 22 86 C19.70848583 86.08790975 17.41427476 86.10694038 15.12109375 86.09765625 C14.09110008 86.09553383 14.09110008 86.09553383 13.04029846 86.09336853 C10.83932199 86.08775479 8.63844591 86.07520007 6.4375 86.0625 C4.94856917 86.05748676 3.45963676 86.05292355 1.97070312 86.04882812 C-1.68623075 86.03778093 -5.34310558 86.02050713 -9 86 C-8.85900879 85.04448242 -8.71801758 84.08896484 -8.57275391 83.10449219 C-4.49792446 55.40852606 -1.6783661 27.94398614 0 0 Z " fill="#000000" transform="translate(349,163)"/>
<path d="M0 0 C0.06993164 1.1152002 0.13986328 2.23040039 0.21191406 3.37939453 C1.60220188 25.27683457 3.25995915 46.99973731 6.50830078 68.70898438 C7.06173246 72.41318447 7.59279285 76.12026119 8.12109375 79.828125 C8.28923584 81.00793945 8.45737793 82.18775391 8.63061523 83.40332031 C8.75251221 84.26022461 8.87440918 85.11712891 9 86 C4.60343827 86.02465504 0.2069128 86.04283842 -4.18969727 86.05493164 C-5.68644918 86.05997121 -7.18319616 86.06680287 -8.67993164 86.07543945 C-10.82699807 86.08752159 -12.97399962 86.09323191 -15.12109375 86.09765625 C-17.06133423 86.10551147 -17.06133423 86.10551147 -19.04077148 86.11352539 C-22 86 -22 86 -23 85 C-23.1135843 83.63210114 -23.1595172 82.25848149 -23.17700195 80.88598633 C-23.18983719 80.01029495 -23.20267242 79.13460358 -23.21589661 78.2323761 C-23.22328354 77.2752623 -23.23067047 76.3181485 -23.23828125 75.33203125 C-23.246353 74.34563156 -23.25442474 73.35923187 -23.26274109 72.34294128 C-23.27661356 70.24207326 -23.28732146 68.14118239 -23.29516602 66.0402832 C-23.31218693 62.87079677 -23.3560193 59.70240672 -23.40039062 56.53320312 C-23.48699142 45.34617122 -23.17025133 35.5271906 -19 25 C-18.60010864 23.96661499 -18.60010864 23.96661499 -18.19213867 22.91235352 C-16.19436678 18.23881464 -6.47570583 0 0 0 Z " fill="#000000" transform="translate(163,163)"/>
<path d="M0 0 C34.98 0 69.96 0 106 0 C104.11028903 7.55884389 103.45791544 10.00784928 97.33930969 14.11465454 C93.91872044 15.40922583 90.55396957 15.29482966 86.94604492 15.29052734 C85.73308495 15.30060318 85.73308495 15.30060318 84.49562073 15.31088257 C81.82384077 15.32987109 79.15231197 15.33378736 76.48046875 15.3359375 C74.61965329 15.34236549 72.75883885 15.34909385 70.89802551 15.35610962 C66.99669045 15.36808498 63.09544394 15.37179024 59.1940918 15.37060547 C54.20395638 15.37040242 49.21439134 15.39768927 44.22439098 15.43214989 C40.38012606 15.45443007 36.53599806 15.45844264 32.69167519 15.45738602 C30.85253244 15.45974087 29.01338586 15.46855792 27.17430687 15.48405075 C24.59651609 15.50373094 22.01995079 15.4978649 19.44213867 15.48583984 C18.68812775 15.49707886 17.93411682 15.50831787 17.15725708 15.51989746 C11.69895229 15.45546234 8.51237096 14.09349809 4 11 C0.97331441 7.16619825 0.85341586 5.12049518 0 0 Z " fill="#000000" transform="translate(203,281)"/>
<path d="M0 0 C17.16 0 34.32 0 52 0 C49.93013822 12.41917066 42.11017365 22.40824819 32.3125 30.125 C28.63722146 32.20534635 27.13319343 32.4378162 23 32 C12.6548623 26.19504812 4.04170217 15.07581843 0 4 C0 2.68 0 1.36 0 0 Z " fill="#000000" transform="translate(230,311)"/>
</svg>
